<?xml version="1.0" encoding="UTF-8" standalone="no"?>
<!-- Created with Inkscape (http://www.inkscape.org/) -->

<svg
   xmlns:dc="http://purl.org/dc/elements/1.1/"
   xmlns:cc="http://creativecommons.org/ns#"
   xmlns:rdf="http://www.w3.org/1999/02/22-rdf-syntax-ns#"
   xmlns:svg="http://www.w3.org/2000/svg"
   xmlns="http://www.w3.org/2000/svg"
   xmlns:sodipodi="http://sodipodi.sourceforge.net/DTD/sodipodi-0.dtd"
   xmlns:inkscape="http://www.inkscape.org/namespaces/inkscape"
   width="330"
   height="300"
   id="svg3049"
   version="1.1"
   inkscape:version="0.48.1 "
   sodipodi:docname="fravic.svg"
   inkscape:export-filename="C:\Users\Cnidaria\Github\doodles\fravic.png"
   inkscape:export-xdpi="90"
   inkscape:export-ydpi="90">
  <defs
     id="defs3051">
    <clipPath
       clipPathUnits="userSpaceOnUse"
       id="clipPath4008">
      <rect
         style="fill:#000000;fill-opacity:1;fill-rule:nonzero;stroke:#000000;stroke-width:0.25;stroke-linecap:round;stroke-linejoin:round;stroke-miterlimit:4;stroke-opacity:1;stroke-dasharray:none;stroke-dashoffset:0"
         id="rect4010"
         width="384.1843"
         height="335.38251"
         x="6.2300158"
         y="708.67297" />
    </clipPath>
  </defs>
  <sodipodi:namedview
     id="base"
     pagecolor="#ffffff"
     bordercolor="#666666"
     borderopacity="1.0"
     inkscape:pageopacity="0.0"
     inkscape:pageshadow="2"
     inkscape:zoom="1.3758278"
     inkscape:cx="53.322663"
     inkscape:cy="130.65981"
     inkscape:document-units="px"
     inkscape:current-layer="layer1"
     showgrid="false"
     showguides="true"
     inkscape:guide-bbox="true"
     inkscape:window-width="1600"
     inkscape:window-height="848"
     inkscape:window-x="-8"
     inkscape:window-y="172"
     inkscape:window-maximized="1" />
  <metadata
     id="metadata3054">
    <rdf:RDF>
      <cc:Work
         rdf:about="">
        <dc:format>image/svg+xml</dc:format>
        <dc:type
           rdf:resource="http://purl.org/dc/dcmitype/StillImage" />
        <dc:title></dc:title>
      </cc:Work>
    </rdf:RDF>
  </metadata>
  <g
     inkscape:label="Layer 1"
     inkscape:groupmode="layer"
     id="layer1"
     transform="translate(0,-752.36218)">
    <rect
       style="fill:#ffffff;fill-opacity:1;fill-rule:nonzero;stroke:#000000;stroke-width:0.82113326;stroke-linecap:round;stroke-linejoin:round;stroke-miterlimit:4;stroke-opacity:1;stroke-dasharray:none;stroke-dashoffset:0"
       id="rect4012"
       width="329.17889"
       height="299.17886"
       x="0.41056663"
       y="752.77277" />
    <g
       id="g4014"
       transform="matrix(1.0293232,0,0,1.030163,-47.26771,8.1898465)">
      <path
         sodipodi:nodetypes="csssssssssscsssssssssc"
         inkscape:connector-curvature="0"
         id="path3068"
         d="m 144.02607,871.4932 c 3.9867,13.90378 10.35274,26.98349 17.28685,35.68699 6.93412,8.7035 15.01451,13.73747 23.58629,12.96314 19.16816,-1.73155 35.56254,-13.18587 47.07116,-28.61209 4.58157,-6.14116 3.32627,-18.59783 5.12859,-22.56878 0.0574,-0.12653 0.31292,-0.32016 0.37802,-0.19186 0.57467,1.13266 3.03131,2.74941 4.77239,2.38619 7.10129,-1.48144 10.2129,-10.1532 13.04154,-16.83316 2.95087,-6.96859 3.90783,-13.31976 2.1266,-20.37064 -0.68625,-2.71648 -3.44823,-5.17721 -6.25004,-5.18403 -3.29488,-0.008 -5.71856,0.92329 -7.66471,3.582 -3.34829,4.57423 -3.5665,17.02618 -4.55735,16.7794 -4.95017,-1.42371 0.11424,-18.43016 -4.03818,-26.24816 -2.11215,-3.97667 -5.46189,-1.66667 -7.06682,-5.87372 -1.84016,-4.82368 -0.82286,-14.32467 -3.67107,-18.63068 -8.98395,-13.58223 -25.71591,-17.0052 -42.12173,-16.98253 -12.74811,0.0176 -32.62782,9.31434 -37.2652,12.3019 -4.03108,2.59697 -3.11067,30.6645 -5.38581,36.98028 -0.54074,1.50108 -1.61256,-2.92815 -3.20679,-2.99173 -3.03428,-0.12102 -2.59457,3.73747 -2.79514,6.06872 -0.36673,4.26247 2.20709,7.94627 2.96006,12.20601 3.01892,17.07873 6.48502,19.52737 6.38916,19.90409"
         style="fill:none;stroke:#000000;stroke-width:1px;stroke-linecap:round;stroke-linejoin:round;stroke-opacity:1" />
      <path
         sodipodi:nodetypes="csssc"
         inkscape:connector-curvature="0"
         id="path3838"
         d="m 166.07463,865.46663 c -0.62492,1.67551 -0.0597,5.42329 6.26043,5.37334 1.60072,-0.0127 1.10383,4.68244 7.32254,4.90566 8.88517,0.31893 7.41474,-4.75876 12.19603,-4.3417 7.00067,0.61065 9.30278,-6.21427 6.89354,-9.42482"
         style="fill:none;stroke:#000000;stroke-width:0.25;stroke-linecap:butt;stroke-linejoin:miter;stroke-miterlimit:4;stroke-opacity:1;stroke-dasharray:none" />
      <path
         sodipodi:nodetypes="cscsc"
         inkscape:connector-curvature="0"
         id="path3840"
         d="m 165.19026,884.01016 c 6.86954,0.89395 13.07651,1.34905 19.34451,1.41128 6.26799,0.0622 12.59699,-0.26838 19.71058,-0.94587 0,0 -6.02243,9.6091 -19.44825,10.00176 -12.76647,0.37337 -19.60684,-10.46717 -19.60684,-10.46717 z"
         style="fill:none;stroke:#000000;stroke-width:0.5;stroke-linecap:butt;stroke-linejoin:miter;stroke-miterlimit:4;stroke-opacity:1;stroke-dasharray:none" />
      <path
         sodipodi:nodetypes="cscc"
         inkscape:connector-curvature="0"
         id="path3842"
         d="m 171.21413,839.58558 c 0,0 -6.759,-6.1528 -11.38033,-6.60794 -4.16195,-0.40989 -12.20631,3.67108 -12.20631,3.67108 6.67511,2.75961 14.46459,3.84766 23.58664,2.93686 z"
         style="fill:none;stroke:#000000;stroke-width:0.625;stroke-linecap:butt;stroke-linejoin:miter;stroke-miterlimit:4;stroke-opacity:1;stroke-dasharray:none" />
      <path
         sodipodi:nodetypes="cscc"
         inkscape:connector-curvature="0"
         id="path3842-1"
         d="m 196.32751,839.12831 c 0,0 4.78718,-5.60175 12.00058,-5.40027 5.46482,0.15264 11.76313,4.90916 11.76313,4.90916 -6.92391,2.05719 -14.78404,2.3369 -23.76371,0.49111 z"
         style="fill:none;stroke:#000000;stroke-width:0.625;stroke-linecap:butt;stroke-linejoin:miter;stroke-miterlimit:4;stroke-opacity:1;stroke-dasharray:none" />
      <path
         transform="matrix(0.7591977,0,0,0.7591977,31.961734,718.88652)"
         d="m 173.18282,154.78157 c 0,2.40763 -1.95177,4.3594 -4.35939,4.3594 -2.40763,0 -4.3594,-1.95177 -4.3594,-4.3594 0,-2.40763 1.95177,-4.3594 4.3594,-4.3594 2.40762,0 4.35939,1.95177 4.35939,4.3594 z"
         sodipodi:ry="4.3593979"
         sodipodi:rx="4.3593979"
         sodipodi:cy="154.78157"
         sodipodi:cx="168.82343"
         id="path3862"
         style="fill:none;stroke:#000000;stroke-width:0.82323748;stroke-miterlimit:4;stroke-opacity:1;stroke-dasharray:none"
         sodipodi:type="arc" />
      <path
         transform="matrix(0.7591977,0,0,0.7591977,80.351048,719.5519)"
         d="m 173.18282,154.78157 c 0,2.40763 -1.95177,4.3594 -4.35939,4.3594 -2.40763,0 -4.3594,-1.95177 -4.3594,-4.3594 0,-2.40763 1.95177,-4.3594 4.3594,-4.3594 2.40762,0 4.35939,1.95177 4.35939,4.3594 z"
         sodipodi:ry="4.3593979"
         sodipodi:rx="4.3593979"
         sodipodi:cy="154.78157"
         sodipodi:cx="168.82343"
         id="path3862-7"
         style="fill:none;stroke:#000000;stroke-width:0.82323748;stroke-miterlimit:4;stroke-opacity:1;stroke-dasharray:none"
         sodipodi:type="arc" />
      <path
         sodipodi:nodetypes="cscsssc"
         inkscape:connector-curvature="0"
         id="path3882"
         d="m 168.73615,828.89032 c -0.78485,-0.82484 -5.30462,-4.52799 -13.0323,-7.293 -3.37253,-1.20671 -10.37078,1.1931 -10.37078,1.1931 0,0 2.95407,0.27506 5.05915,0.90196 2.10507,0.62689 4.02575,1.95389 5.09197,2.42889 1.49274,0.66502 2.97242,0.20538 6.31783,2.48358 2.64025,1.798 6.93413,0.28547 6.93413,0.28547 z"
         style="fill:none;stroke:#000000;stroke-width:0.25;stroke-linecap:butt;stroke-linejoin:miter;stroke-miterlimit:4;stroke-opacity:1;stroke-dasharray:none" />
      <path
         sodipodi:nodetypes="cssscsssc"
         inkscape:connector-curvature="0"
         id="path3884"
         d="m 195.64998,829.88921 c 0.12748,0.12748 1.92329,-2.59293 5.56516,-3.36318 3.23875,-0.68499 4.67351,-1.38123 6.57799,-2.28824 1.91376,-0.91144 4.84447,-0.33035 6.41055,-0.51194 4.01426,-0.46548 14.95135,7.49316 15.28872,7.32448 0,0 -10.2121,-4.20505 -12.54193,-3.86114 -4.31489,0.63692 -6.70004,0.61068 -8.10616,1.09927 -1.40612,0.48859 -2.49087,0.14239 -3.23789,0.34323 -4.55786,1.22535 -9.98332,1.26769 -9.98332,1.26769"
         style="fill:none;stroke:#000000;stroke-width:0.25;stroke-linecap:butt;stroke-linejoin:miter;stroke-miterlimit:4;stroke-opacity:1;stroke-dasharray:none" />
      <path
         sodipodi:nodetypes="csccscssccccccccccssccc"
         inkscape:connector-curvature="0"
         id="path3886"
         d="m 140.08493,827.30286 c -4.85514,-9.14829 -4.07518,-49.20524 -3.80334,-49.84012 2.26196,-5.28287 4.86515,-10.30982 4.29776,-17.7147 l 0.63433,5.25467 c 0.78823,-0.88676 2.47116,-10.75168 2.35471,-8.6738 -0.0726,1.29589 1.12471,3.20679 1.12471,3.20679 0.95198,-2.60517 1.89271,-6.76814 0.42738,-8.73764 -2.0397,-2.74151 2.73314,4.70185 2.4313,3.67203 -0.27447,-0.93648 -1.45391,-5.31211 -1.00454,-6.62872 2.20077,1.61305 2.93018,1.64752 6.34787,1.84588 -2.40316,-1.22317 -2.00876,-4.12487 -2.07667,-6.74918 2.06914,2.82425 4.91204,5.04056 10.38336,5.19168 -1.50839,-0.56149 -2.06376,-2.42559 -2.07667,-3.89376 1.0256,1.12486 1.73222,2.24972 4.15334,3.37459 l -1.65198,-4.53238 2.38619,1.98378 -0.73421,-2.51329 4.77239,1.43312 c -1.16764,0.1946 -2.77465,-4.63847 -2.20804,-3.81797 0.75696,1.09616 5.22136,2.35416 4.76699,2.103 -1.23834,-0.68453 -1.21415,-4.93322 -0.84174,-5.03962 0.40021,1.38477 2.78898,3.10376 3.57389,3.60808 -0.13103,0.97711 -1.95299,-3.49348 -1.78352,-4.70512"
         style="fill:none;stroke:#000000;stroke-width:1px;stroke-linecap:butt;stroke-linejoin:miter;stroke-opacity:1" />
      <path
         inkscape:connector-curvature="0"
         id="path3888"
         d="M 177.55544,739.82306 z"
         style="fill:none;stroke:#000000;stroke-width:1px;stroke-linecap:butt;stroke-linejoin:miter;stroke-opacity:1" />
      <path
         sodipodi:nodetypes="cccccccsssssc"
         inkscape:connector-curvature="0"
         id="path3890"
         d="m 171.76479,736.2449 c 0.91221,1.33761 2.3277,3.52783 4.95594,3.39574 -1.20305,-1.47874 -0.95924,-3.68093 -1.28487,-5.59838 1.44982,1.09131 2.18901,3.33381 4.31351,3.02863 -0.8774,-1.73619 -1.32629,-3.6282 0.45889,-6.3326 0.63186,1.85216 0.57481,3.79043 3.02863,5.41484 -0.44711,-1.86704 -0.40104,-4.59069 2.17768,-6.69048 -1.6898,1.74612 1.20246,3.71457 5.99994,5.91619 4.96056,2.27646 9.51161,6.98274 13.75704,7.47399 6.71463,0.77697 12.60208,4.49328 18.06199,7.20284 5.45992,2.70956 16.33242,7.58472 17.4437,9.46905 5.75022,9.75034 12.78797,23.70886 12.21824,32.52047 -0.86245,13.33883 -2.93686,35.6094 -2.93686,35.6094"
         style="fill:none;stroke:#000000;stroke-width:1px;stroke-linecap:butt;stroke-linejoin:miter;stroke-opacity:1" />
      <path
         sodipodi:nodetypes="cccc"
         inkscape:connector-curvature="0"
         id="path3894"
         d="m 235.09078,889.87926 c 7.30215,23.02421 10.95312,48.8709 12.48165,76.3583 -12.77943,-6.52829 -12.03131,-15.74424 -15.0514,-24.59619 -2.23867,-17.25403 -0.54808,-34.50807 2.56975,-51.76211 z"
         style="fill:none;stroke:#000000;stroke-width:1px;stroke-linecap:butt;stroke-linejoin:miter;stroke-opacity:1" />
      <path
         sodipodi:nodetypes="cccc"
         inkscape:connector-curvature="0"
         id="path3896"
         d="m 161.8529,966.23756 c 10.58223,-7.22396 20.56653,-15.37804 26.79882,-29.36858 -17.844,-14.44996 -27.4817,-26.66489 -36.52716,-42.03377 -11.43896,8.93107 8.4717,47.1163 9.72834,71.40235 z"
         style="fill:none;stroke:#000000;stroke-width:1px;stroke-linecap:butt;stroke-linejoin:miter;stroke-opacity:1" />
      <path
         sodipodi:nodetypes="csc"
         inkscape:connector-curvature="0"
         id="path3898"
         d="m 176.99607,954.76546 c 5.1362,7.84517 20.98885,18.90186 22.91492,19.058 4.33581,0.3515 23.77315,-19.58006 32.7936,-32.09031"
         style="fill:none;stroke:#000000;stroke-width:1px;stroke-linecap:butt;stroke-linejoin:miter;stroke-opacity:1" />
      <path
         sodipodi:nodetypes="cc"
         inkscape:connector-curvature="0"
         id="path3900"
         d="m 188.8997,937.06319 c 17.10809,12.38564 13.82905,23.24317 16.4554,34.49742"
         style="fill:none;stroke:#000000;stroke-width:1px;stroke-linecap:butt;stroke-linejoin:miter;stroke-opacity:1" />
      <path
         transform="translate(-10.772735,679.42854)"
         d="m 203.38405,268.3862 c 0,2.04294 -1.65613,3.69907 -3.69907,3.69907 -2.04294,0 -3.69907,-1.65613 -3.69907,-3.69907 0,-2.04294 1.65613,-3.69907 3.69907,-3.69907 2.04294,0 3.69907,1.65613 3.69907,3.69907 z"
         sodipodi:ry="3.6990719"
         sodipodi:rx="3.6990719"
         sodipodi:cy="268.3862"
         sodipodi:cx="199.68498"
         id="path3902"
         style="fill:none;stroke:#000000;stroke-width:0.5;stroke-linecap:round;stroke-linejoin:round;stroke-miterlimit:4;stroke-opacity:1;stroke-dasharray:none;stroke-dashoffset:0"
         sodipodi:type="arc" />
      <path
         sodipodi:nodetypes="cc"
         inkscape:connector-curvature="0"
         id="path3904"
         d="m 204.7033,961.9525 c 12.59753,-10.6621 21.69283,-25.13098 26.625,-44.125"
         style="fill:none;stroke:#000000;stroke-width:1px;stroke-linecap:butt;stroke-linejoin:miter;stroke-opacity:1" />
      <path
         sodipodi:nodetypes="cc"
         inkscape:connector-curvature="0"
         id="path3906"
         d="m 139.7033,829.4525 c -0.20484,14.43402 0.9135,29.3575 4.375,42.125"
         style="fill:none;stroke:#000000;stroke-width:1px;stroke-linecap:butt;stroke-linejoin:miter;stroke-opacity:1" />
      <path
         sodipodi:nodetypes="csc"
         inkscape:connector-curvature="0"
         id="path3908"
         d="m 242.3283,841.0775 c 3.74541,2.67998 8.59183,5.67821 10,9.625 0.76408,2.14154 -8.39535,9.42775 -9.375,8.625"
         style="fill:none;stroke:#000000;stroke-width:0.3125;stroke-linecap:butt;stroke-linejoin:miter;stroke-miterlimit:4;stroke-opacity:1;stroke-dasharray:none" />
      <path
         sodipodi:nodetypes="cc"
         inkscape:connector-curvature="0"
         id="path3910"
         d="m 249.7033,832.5775 c 3.03442,4.50121 3.43994,9.44057 4.625,14.25"
         style="fill:none;stroke:#000000;stroke-width:0.3125;stroke-linecap:butt;stroke-linejoin:miter;stroke-miterlimit:4;stroke-opacity:1;stroke-dasharray:none" />
      <path
         transform="matrix(0.2833157,0,0,0.2833157,112.1703,792.53795)"
         d="m 173.18282,154.78157 c 0,2.40763 -1.95177,4.3594 -4.35939,4.3594 -2.40763,0 -4.3594,-1.95177 -4.3594,-4.3594 0,-2.40763 1.95177,-4.3594 4.3594,-4.3594 2.40762,0 4.35939,1.95177 4.35939,4.3594 z"
         sodipodi:ry="4.3593979"
         sodipodi:rx="4.3593979"
         sodipodi:cy="154.78157"
         sodipodi:cx="168.82343"
         id="path3862-4"
         style="fill:#000000;fill-opacity:1;stroke:#000000;stroke-width:2.20601964;stroke-miterlimit:4;stroke-opacity:1;stroke-dasharray:none"
         sodipodi:type="arc" />
      <path
         transform="matrix(0.2833157,0,0,0.2833157,160.69619,793.15981)"
         d="m 173.18282,154.78157 c 0,2.40763 -1.95177,4.3594 -4.35939,4.3594 -2.40763,0 -4.3594,-1.95177 -4.3594,-4.3594 0,-2.40763 1.95177,-4.3594 4.3594,-4.3594 2.40762,0 4.35939,1.95177 4.35939,4.3594 z"
         sodipodi:ry="4.3593979"
         sodipodi:rx="4.3593979"
         sodipodi:cy="154.78157"
         sodipodi:cx="168.82343"
         id="path3862-4-0"
         style="fill:#000000;fill-opacity:1;stroke:#000000;stroke-width:2.20601964;stroke-miterlimit:4;stroke-opacity:1;stroke-dasharray:none"
         sodipodi:type="arc" />
      <path
         sodipodi:nodetypes="cc"
         inkscape:connector-curvature="0"
         id="path3948"
         d="m 233.82885,887.95195 0.75716,5.1395"
         style="fill:none;stroke:#000000;stroke-width:1px;stroke-linecap:butt;stroke-linejoin:miter;stroke-opacity:1" />
      <path
         sodipodi:nodetypes="cssssssssccsssssc"
         inkscape:connector-curvature="0"
         id="path3950"
         d="m 234.31068,889.78749 c 0,0 15.04359,-1.04107 21.3381,1.92731 1.57402,0.74228 3.5111,0.30391 5.13951,0.91777 2.54303,0.95864 4.56217,2.97108 6.97503,4.22173 10.84913,5.62341 23.07541,8.45828 33.59031,14.68428 4.65448,2.75597 -0.19219,-1.36755 12.84875,9.9119 12.02594,10.40155 20.01213,27.06583 27.61978,42.68463 4.04708,8.3088 8.21262,15.81646 9.0724,25.5598 l 0.58215,6.59713 c 0.08,0.90659 7.21404,4.81196 9.28013,8.82586 l -304.037739,0 c 0,0 -6.054195,-21.28584 -5.840639,-32.18842 0.187476,-9.57115 3.245808,-18.79969 7.852416,-27.19142 4.121958,-7.50886 9.595392,-14.01173 16.548479,-19.01453 10.545667,-7.5877 22.616068,-16.38411 32.318193,-21.41568 9.235,-4.78931 18.53816,-8.91655 24.72538,-10.64294 6.97239,-1.94547 13.54198,-5.66186 18.60852,-4.51031"
         style="fill:none;stroke:#000000;stroke-width:1px;stroke-linecap:butt;stroke-linejoin:miter;stroke-opacity:1" />
      <path
         sodipodi:nodetypes="cc"
         inkscape:connector-curvature="0"
         id="path3954"
         d="m 103.48285,967.15533 c 7.02998,12.45738 7.35709,25.28715 10.46256,37.96257"
         style="fill:none;stroke:#000000;stroke-width:0.5;stroke-linecap:butt;stroke-linejoin:miter;stroke-miterlimit:4;stroke-opacity:1;stroke-dasharray:none" />
      <path
         sodipodi:nodetypes="ccc"
         inkscape:connector-curvature="0"
         id="path3956"
         d="m 58.037595,990.11257 c 10.839071,3.50727 16.840991,12.79883 36.97014,15.00533 -7.651643,-8.2009 -20.879266,-6.72166 -33.486329,-19.72839"
         style="fill:none;stroke:#000000;stroke-width:0.5;stroke-linecap:butt;stroke-linejoin:miter;stroke-miterlimit:4;stroke-opacity:1;stroke-dasharray:none" />
      <path
         sodipodi:nodetypes="csccsc"
         inkscape:connector-curvature="0"
         id="path3958"
         d="m 90.335225,941.26023 c 9.53391,0.79449 19.344045,26.52516 25.828605,30.50112 8.80411,5.39817 -14.07131,-18.94792 -11.16211,-25.04985 13.07415,4.31402 20.41351,22.86261 26.73715,29.20319 4.03169,3.92288 -7.51149,-35.43005 -8.1769,-51.00825 -0.41289,-9.66642 30.49419,24.91215 30.8905,23.88173"
         style="fill:none;stroke:#000000;stroke-width:0.25;stroke-linecap:butt;stroke-linejoin:miter;stroke-miterlimit:4;stroke-opacity:1;stroke-dasharray:none" />
      <path
         sodipodi:nodetypes="cccccscscsssssssc"
         inkscape:connector-curvature="0"
         id="path3960"
         d="m 247.12395,915.821 c 5.91186,-5.19168 7.78264,-10.38336 9.08544,-15.57504 -0.89814,7.04984 -1.00482,13.11035 -0.51917,18.43046 6.39902,-5.60194 12.78947,-12.76545 19.59859,-10.90252 -1.16544,6.15297 -7.53073,10.12504 -8.95564,15.83462 l 5.71084,0.77875 c 1.6184,0.22069 -7.8033,10.04024 -8.63116,15.96442 7.1098,-7.67271 13.83856,-8.84446 17.7166,-12.33024 28.73624,-25.82959 -9.43263,21.64305 2.33626,25.17964 5.5717,-4.26672 6.02865,-10.85275 12.46003,-15.83462 2.26402,-1.75376 8.81916,-13.70917 7.39815,-8.89075 -5.91076,20.04243 -24.67729,73.22288 -18.30068,58.99046 9.34194,-20.85094 19.33972,-50.39301 27.45292,-57.79005 4.65242,-4.24174 2.59584,8.2698 2.13966,8.98826 -0.84637,1.333 -6.06186,9.32559 -10.90253,12.9792 -4.15532,3.13633 10.68781,-2.18704 15.05587,-4.15334 1.83522,-0.82613 2.59584,5.45126 2.59584,5.45126"
         style="fill:none;stroke:#000000;stroke-width:0.25;stroke-linecap:round;stroke-linejoin:round;stroke-miterlimit:4;stroke-opacity:1;stroke-dasharray:none" />
      <path
         sodipodi:nodetypes="csc"
         inkscape:connector-curvature="0"
         id="path3962"
         d="m 338.2479,968.80731 c 4.89002,4.48382 -8.89574,21.83878 -10.09544,23.49486 -2.41626,3.33543 8.47344,-3.48547 16.15271,-16.70338"
         style="fill:none;stroke:#000000;stroke-width:0.25;stroke-linecap:round;stroke-linejoin:round;stroke-miterlimit:4;stroke-opacity:1;stroke-dasharray:none" />
      <path
         sodipodi:nodetypes="csc"
         inkscape:connector-curvature="0"
         id="path3964"
         d="m 200.58271,860.87779 c 4.36414,6.97736 12.5364,11.50825 14.59251,15.41851 1.52192,2.89435 -1.28488,5.69016 -1.28488,5.69016"
         style="fill:none;stroke:#000000;stroke-width:0.25;stroke-linecap:butt;stroke-linejoin:miter;stroke-miterlimit:4;stroke-opacity:1;stroke-dasharray:none" />
      <path
         sodipodi:nodetypes="csc"
         inkscape:connector-curvature="0"
         id="path3968"
         d="m 176.12773,837.29684 c 0,0 2.56258,3.08379 2.07667,5.19169 -0.72452,3.14302 -6.73311,10.48397 -5.84063,11.68127"
         style="fill:none;stroke:#000000;stroke-width:0.3125;stroke-linecap:butt;stroke-linejoin:miter;stroke-miterlimit:4;stroke-opacity:1;stroke-dasharray:none" />
    </g>
  </g>
</svg>
