<?xml version="1.0" encoding="UTF-8" standalone="no"?>
<!-- Created with Inkscape (http://www.inkscape.org/) -->

<svg
   xmlns:dc="http://purl.org/dc/elements/1.1/"
   xmlns:cc="http://creativecommons.org/ns#"
   xmlns:rdf="http://www.w3.org/1999/02/22-rdf-syntax-ns#"
   xmlns:svg="http://www.w3.org/2000/svg"
   xmlns="http://www.w3.org/2000/svg"
   xmlns:sodipodi="http://sodipodi.sourceforge.net/DTD/sodipodi-0.dtd"
   xmlns:inkscape="http://www.inkscape.org/namespaces/inkscape"
   width="600"
   height="600"
   id="svg3785"
   version="1.1"
   inkscape:version="0.48.1 "
   sodipodi:docname="jammie-dodger.svg"
   inkscape:export-filename="C:\Users\Cnidaria\Github\misc-doodles\jammie-dodger3.png"
   inkscape:export-xdpi="90"
   inkscape:export-ydpi="90">
  <defs
     id="defs3787" />
  <sodipodi:namedview
     id="base"
     pagecolor="#ffffff"
     bordercolor="#666666"
     borderopacity="1.0"
     inkscape:pageopacity="0.0"
     inkscape:pageshadow="2"
     inkscape:zoom="1.135"
     inkscape:cx="300"
     inkscape:cy="300"
     inkscape:document-units="px"
     inkscape:current-layer="layer1"
     showgrid="true"
     inkscape:window-width="1600"
     inkscape:window-height="848"
     inkscape:window-x="-8"
     inkscape:window-y="172"
     inkscape:window-maximized="1"
     showguides="true"
     inkscape:guide-bbox="true">
    <inkscape:grid
       type="xygrid"
       id="grid3810"
       empspacing="5"
       visible="true"
       enabled="true"
       snapvisiblegridlinesonly="true" />
  </sodipodi:namedview>
  <metadata
     id="metadata3790">
    <rdf:RDF>
      <cc:Work
         rdf:about="">
        <dc:format>image/svg+xml</dc:format>
        <dc:type
           rdf:resource="http://purl.org/dc/dcmitype/StillImage" />
        <dc:title></dc:title>
      </cc:Work>
    </rdf:RDF>
  </metadata>
  <g
     inkscape:label="Layer 1"
     inkscape:groupmode="layer"
     id="layer1"
     transform="translate(0,-452.36217)">
    <path
       sodipodi:type="star"
       style="fill:#ffbc6f;fill-opacity:0.54901960999999999;stroke:#f2b36a;stroke-width:1.42416688;stroke-linecap:round;stroke-linejoin:round;stroke-miterlimit:4;stroke-opacity:1;stroke-dasharray:none;stroke-dashoffset:0"
       id="path4340"
       sodipodi:sides="60"
       sodipodi:cx="261.27594"
       sodipodi:cy="413.84476"
       sodipodi:r1="93.602135"
       sodipodi:r2="94.547607"
       sodipodi:arg1="0.78539816"
       sodipodi:arg2="0.83775804"
       inkscape:flatsided="false"
       inkscape:rounded="0.25"
       inkscape:randomized="0"
       d="m 327.46264,480.03146 c -0.88654,0.88655 -1.99027,3.23693 -2.922,4.07586 -0.93173,0.83893 -3.38461,1.69094 -4.35897,2.47996 -0.97436,0.78902 -2.31772,3.01115 -3.33204,3.7481 -1.01432,0.73694 -3.54282,1.32788 -4.59431,2.01073 -1.0515,0.68285 -2.61979,2.7524 -3.70558,3.37928 -1.08579,0.62688 -3.66221,0.95028 -4.77932,1.51948 -1.11711,0.5692 -2.89313,2.46347 -4.0385,2.97342 -1.14537,0.50996 -3.74149,0.56228 -4.91197,1.01159 -1.17049,0.44931 -3.13479,2.14756 -4.32719,2.535 -1.1924,0.38743 -3.77976,0.1681 -4.9908,0.4926 -1.21105,0.32449 -3.3421,1.80812 -4.56847,2.06879 -1.22636,0.26067 -3.77662,-0.22791 -5.01495,-0.0318 -1.23833,0.19614 -3.51279,1.44888 -4.75968,1.57993 -1.2469,0.13106 -3.73212,-0.62142 -4.98416,-0.55581 -1.25205,0.0656 -3.645,1.07375 -4.89876,1.07375 -1.25376,0 -3.64671,-1.00813 -4.89876,-1.07375 -1.25204,-0.0656 -3.73726,0.68687 -4.98416,0.55581 -1.24689,-0.13105 -3.52135,-1.38379 -4.75968,-1.57993 -1.23833,-0.19613 -3.78859,0.29245 -5.01495,0.0318 -1.22637,-0.26067 -3.35742,-1.7443 -4.56846,-2.06879 -1.21105,-0.3245 -3.79841,-0.10517 -4.99081,-0.4926 -1.1924,-0.38744 -3.1567,-2.08569 -4.32718,-2.535 -1.17049,-0.44931 -3.76661,-0.50163 -4.91198,-1.01159 -1.14537,-0.50995 -2.92139,-2.40422 -4.0385,-2.97342 -1.11711,-0.5692 -3.69353,-0.8926 -4.77932,-1.51948 -1.08579,-0.62688 -2.65408,-2.69643 -3.70558,-3.37928 -1.05149,-0.68285 -3.57999,-1.27379 -4.59431,-2.01073 -1.01432,-0.73695 -2.35768,-2.95908 -3.33204,-3.7481 -0.97436,-0.78902 -3.42724,-1.64103 -4.35897,-2.47996 -0.93173,-0.83893 -2.03546,-3.18931 -2.922,-4.07586 -0.88655,-0.88654 -3.23693,-1.99028 -4.07587,-2.922 -0.83893,-0.93173 -1.69093,-3.38461 -2.47995,-4.35897 -0.78902,-0.97436 -3.01116,-2.31773 -3.7481,-3.33204 -0.73694,-1.01432 -1.32789,-3.54282 -2.01074,-4.59432 -0.68284,-1.05149 -2.75239,-2.61978 -3.37927,-3.70557 -0.62688,-1.08579 -0.95029,-3.66221 -1.51948,-4.77932 -0.5692,-1.11711 -2.46348,-2.89314 -2.97343,-4.03851 -0.50995,-1.14537 -0.56227,-3.74148 -1.01158,-4.91197 -0.44931,-1.17049 -2.14756,-3.13479 -2.535,-4.32719 -0.38743,-1.1924 -0.1681,-3.77976 -0.4926,-4.9908 -0.3245,-1.21104 -1.80812,-3.34209 -2.0688,-4.56846 -0.26067,-1.22637 0.22791,-3.77663 0.0318,-5.01495 -0.19613,-1.23833 -1.44887,-3.51279 -1.57993,-4.75969 -0.13105,-1.24689 0.62143,-3.73211 0.55581,-4.98416 -0.0656,-1.25204 -1.07375,-3.64499 -1.07375,-4.89875 0,-1.25377 1.00814,-3.64671 1.07375,-4.89876 0.0656,-1.25205 -0.68686,-3.73726 -0.55581,-4.98416 0.13106,-1.24689 1.3838,-3.52136 1.57993,-4.75968 0.19613,-1.23833 -0.29245,-3.78859 -0.0318,-5.01496 0.26068,-1.22636 1.7443,-3.35742 2.0688,-4.56846 0.3245,-1.21104 0.10517,-3.7984 0.4926,-4.9908 0.38744,-1.1924 2.08569,-3.1567 2.535,-4.32719 0.44931,-1.17049 0.50163,-3.7666 1.01158,-4.91197 0.50995,-1.14537 2.40423,-2.92139 2.97343,-4.0385 0.56919,-1.11711 0.8926,-3.69354 1.51948,-4.77933 0.62688,-1.08579 2.69643,-2.65407 3.37927,-3.70557 0.68285,-1.05149 1.2738,-3.58 2.01074,-4.59431 0.73694,-1.01432 2.95908,-2.35769 3.7481,-3.33204 0.78902,-0.97436 1.64102,-3.42724 2.47995,-4.35897 0.83894,-0.93173 3.18932,-2.03546 4.07587,-2.92201 0.88654,-0.88654 1.99027,-3.23693 2.922,-4.07586 0.93173,-0.83893 3.38461,-1.69093 4.35897,-2.47995 0.97435,-0.78902 2.31772,-3.01116 3.33204,-3.7481 1.01432,-0.73695 3.54282,-1.32789 4.59431,-2.01074 1.0515,-0.68285 2.61979,-2.75239 3.70558,-3.37927 1.08579,-0.62688 3.66221,-0.95029 4.77932,-1.51949 1.11711,-0.56919 2.89313,-2.46347 4.0385,-2.97342 1.14537,-0.50995 3.74149,-0.56228 4.91197,-1.01158 1.17049,-0.44931 3.13479,-2.14757 4.32719,-2.535 1.1924,-0.38744 3.77976,-0.1681 4.9908,-0.4926 1.21105,-0.3245 3.3421,-1.80813 4.56847,-2.0688 1.22636,-0.26067 3.77662,0.22791 5.01495,0.0318 1.23833,-0.19613 3.51279,-1.44887 4.75968,-1.57993 1.2469,-0.13105 3.73212,0.62143 4.98416,0.55581 1.25205,-0.0656 3.645,-1.07375 4.89876,-1.07375 1.25376,0 3.64671,1.00813 4.89876,1.07375 1.25204,0.0656 3.73726,-0.68686 4.98416,-0.55581 1.24689,0.13106 3.52135,1.3838 4.75968,1.57993 1.23833,0.19613 3.78859,-0.29245 5.01495,-0.0318 1.22637,0.26067 3.35742,1.7443 4.56846,2.0688 1.21105,0.3245 3.79841,0.10516 4.99081,0.4926 1.1924,0.38743 3.1567,2.08569 4.32718,2.535 1.17049,0.4493 3.76661,0.50163 4.91198,1.01158 1.14537,0.50995 2.92139,2.40423 4.0385,2.97342 1.11711,0.5692 3.69353,0.89261 4.77932,1.51949 1.08579,0.62688 2.65408,2.69642 3.70558,3.37927 1.05149,0.68285 3.57999,1.27379 4.59431,2.01074 1.01432,0.73694 2.35768,2.95908 3.33204,3.7481 0.97436,0.78901 3.42724,1.64102 4.35897,2.47995 0.93173,0.83893 2.03546,3.18932 2.922,4.07586 0.88655,0.88655 3.23693,1.99028 4.07587,2.92201 0.83893,0.93173 1.69093,3.38461 2.47995,4.35896 0.78902,0.97436 3.01116,2.31773 3.7481,3.33205 0.73694,1.01431 1.32789,3.54282 2.01074,4.59431 0.68284,1.0515 2.75239,2.61978 3.37927,3.70557 0.62688,1.08579 0.95029,3.66222 1.51948,4.77933 0.5692,1.11711 2.46348,2.89313 2.97343,4.0385 0.50995,1.14537 0.56227,3.74148 1.01158,4.91197 0.44931,1.17049 2.14756,3.13479 2.535,4.32719 0.38743,1.1924 0.1681,3.77976 0.4926,4.9908 0.3245,1.21104 1.80812,3.3421 2.0688,4.56846 0.26067,1.22637 -0.22791,3.77663 -0.0318,5.01496 0.19613,1.23832 1.44887,3.51279 1.57993,4.75968 0.13105,1.2469 -0.62143,3.73211 -0.55581,4.98416 0.0656,1.25204 1.07375,3.64499 1.07375,4.89876 0,1.25376 -1.00814,3.64671 -1.07375,4.89875 -0.0656,1.25205 0.68686,3.73727 0.55581,4.98416 -0.13106,1.2469 -1.3838,3.52136 -1.57993,4.75969 -0.19613,1.23832 0.29245,3.78858 0.0318,5.01495 -0.26068,1.22637 -1.7443,3.35742 -2.0688,4.56846 -0.3245,1.21104 -0.10517,3.7984 -0.4926,4.9908 -0.38744,1.1924 -2.08569,3.1567 -2.535,4.32719 -0.44931,1.17049 -0.50163,3.7666 -1.01158,4.91197 -0.50995,1.14537 -2.40423,2.9214 -2.97343,4.03851 -0.56919,1.11711 -0.8926,3.69353 -1.51948,4.77932 -0.62688,1.08579 -2.69643,2.65408 -3.37927,3.70557 -0.68285,1.0515 -1.2738,3.58 -2.01074,4.59432 -0.73694,1.01431 -2.95908,2.35768 -3.7481,3.33204 -0.78902,0.97436 -1.64102,3.42724 -2.47995,4.35896 -0.83894,0.93173 -3.18932,2.03547 -4.07587,2.92201 z"
       transform="matrix(2.605147,0.38278134,-0.38278134,2.605147,-222.25018,-425.77581)"
       inkscape:export-xdpi="90"
       inkscape:export-ydpi="90" />
    <path
       sodipodi:type="star"
       style="fill:#ffbc6f;fill-opacity:0.31372549000000000;stroke:#f2b36a;stroke-width:1.58830739;stroke-linecap:round;stroke-linejoin:round;stroke-miterlimit:4;stroke-opacity:1;stroke-dasharray:none;stroke-dashoffset:0"
       id="path4340-9"
       sodipodi:sides="60"
       sodipodi:cx="261.27594"
       sodipodi:cy="413.84476"
       sodipodi:r1="93.602135"
       sodipodi:r2="94.547607"
       sodipodi:arg1="0.78539816"
       sodipodi:arg2="0.83775804"
       inkscape:flatsided="false"
       inkscape:rounded="0.25"
       inkscape:randomized="0"
       d="m 327.46264,480.03146 c -0.88654,0.88655 -1.99027,3.23693 -2.922,4.07586 -0.93173,0.83893 -3.38461,1.69094 -4.35897,2.47996 -0.97436,0.78902 -2.31772,3.01115 -3.33204,3.7481 -1.01432,0.73694 -3.54282,1.32788 -4.59431,2.01073 -1.0515,0.68285 -2.61979,2.7524 -3.70558,3.37928 -1.08579,0.62688 -3.66221,0.95028 -4.77932,1.51948 -1.11711,0.5692 -2.89313,2.46347 -4.0385,2.97342 -1.14537,0.50996 -3.74149,0.56228 -4.91197,1.01159 -1.17049,0.44931 -3.13479,2.14756 -4.32719,2.535 -1.1924,0.38743 -3.77976,0.1681 -4.9908,0.4926 -1.21105,0.32449 -3.3421,1.80812 -4.56847,2.06879 -1.22636,0.26067 -3.77662,-0.22791 -5.01495,-0.0318 -1.23833,0.19614 -3.51279,1.44888 -4.75968,1.57993 -1.2469,0.13106 -3.73212,-0.62142 -4.98416,-0.55581 -1.25205,0.0656 -3.645,1.07375 -4.89876,1.07375 -1.25376,0 -3.64671,-1.00813 -4.89876,-1.07375 -1.25204,-0.0656 -3.73726,0.68687 -4.98416,0.55581 -1.24689,-0.13105 -3.52135,-1.38379 -4.75968,-1.57993 -1.23833,-0.19613 -3.78859,0.29245 -5.01495,0.0318 -1.22637,-0.26067 -3.35742,-1.7443 -4.56846,-2.06879 -1.21105,-0.3245 -3.79841,-0.10517 -4.99081,-0.4926 -1.1924,-0.38744 -3.1567,-2.08569 -4.32718,-2.535 -1.17049,-0.44931 -3.76661,-0.50163 -4.91198,-1.01159 -1.14537,-0.50995 -2.92139,-2.40422 -4.0385,-2.97342 -1.11711,-0.5692 -3.69353,-0.8926 -4.77932,-1.51948 -1.08579,-0.62688 -2.65408,-2.69643 -3.70558,-3.37928 -1.05149,-0.68285 -3.57999,-1.27379 -4.59431,-2.01073 -1.01432,-0.73695 -2.35768,-2.95908 -3.33204,-3.7481 -0.97436,-0.78902 -3.42724,-1.64103 -4.35897,-2.47996 -0.93173,-0.83893 -2.03546,-3.18931 -2.922,-4.07586 -0.88655,-0.88654 -3.23693,-1.99028 -4.07587,-2.922 -0.83893,-0.93173 -1.69093,-3.38461 -2.47995,-4.35897 -0.78902,-0.97436 -3.01116,-2.31773 -3.7481,-3.33204 -0.73694,-1.01432 -1.32789,-3.54282 -2.01074,-4.59432 -0.68284,-1.05149 -2.75239,-2.61978 -3.37927,-3.70557 -0.62688,-1.08579 -0.95029,-3.66221 -1.51948,-4.77932 -0.5692,-1.11711 -2.46348,-2.89314 -2.97343,-4.03851 -0.50995,-1.14537 -0.56227,-3.74148 -1.01158,-4.91197 -0.44931,-1.17049 -2.14756,-3.13479 -2.535,-4.32719 -0.38743,-1.1924 -0.1681,-3.77976 -0.4926,-4.9908 -0.3245,-1.21104 -1.80812,-3.34209 -2.0688,-4.56846 -0.26067,-1.22637 0.22791,-3.77663 0.0318,-5.01495 -0.19613,-1.23833 -1.44887,-3.51279 -1.57993,-4.75969 -0.13105,-1.24689 0.62143,-3.73211 0.55581,-4.98416 -0.0656,-1.25204 -1.07375,-3.64499 -1.07375,-4.89875 0,-1.25377 1.00814,-3.64671 1.07375,-4.89876 0.0656,-1.25205 -0.68686,-3.73726 -0.55581,-4.98416 0.13106,-1.24689 1.3838,-3.52136 1.57993,-4.75968 0.19613,-1.23833 -0.29245,-3.78859 -0.0318,-5.01496 0.26068,-1.22636 1.7443,-3.35742 2.0688,-4.56846 0.3245,-1.21104 0.10517,-3.7984 0.4926,-4.9908 0.38744,-1.1924 2.08569,-3.1567 2.535,-4.32719 0.44931,-1.17049 0.50163,-3.7666 1.01158,-4.91197 0.50995,-1.14537 2.40423,-2.92139 2.97343,-4.0385 0.56919,-1.11711 0.8926,-3.69354 1.51948,-4.77933 0.62688,-1.08579 2.69643,-2.65407 3.37927,-3.70557 0.68285,-1.05149 1.2738,-3.58 2.01074,-4.59431 0.73694,-1.01432 2.95908,-2.35769 3.7481,-3.33204 0.78902,-0.97436 1.64102,-3.42724 2.47995,-4.35897 0.83894,-0.93173 3.18932,-2.03546 4.07587,-2.92201 0.88654,-0.88654 1.99027,-3.23693 2.922,-4.07586 0.93173,-0.83893 3.38461,-1.69093 4.35897,-2.47995 0.97435,-0.78902 2.31772,-3.01116 3.33204,-3.7481 1.01432,-0.73695 3.54282,-1.32789 4.59431,-2.01074 1.0515,-0.68285 2.61979,-2.75239 3.70558,-3.37927 1.08579,-0.62688 3.66221,-0.95029 4.77932,-1.51949 1.11711,-0.56919 2.89313,-2.46347 4.0385,-2.97342 1.14537,-0.50995 3.74149,-0.56228 4.91197,-1.01158 1.17049,-0.44931 3.13479,-2.14757 4.32719,-2.535 1.1924,-0.38744 3.77976,-0.1681 4.9908,-0.4926 1.21105,-0.3245 3.3421,-1.80813 4.56847,-2.0688 1.22636,-0.26067 3.77662,0.22791 5.01495,0.0318 1.23833,-0.19613 3.51279,-1.44887 4.75968,-1.57993 1.2469,-0.13105 3.73212,0.62143 4.98416,0.55581 1.25205,-0.0656 3.645,-1.07375 4.89876,-1.07375 1.25376,0 3.64671,1.00813 4.89876,1.07375 1.25204,0.0656 3.73726,-0.68686 4.98416,-0.55581 1.24689,0.13106 3.52135,1.3838 4.75968,1.57993 1.23833,0.19613 3.78859,-0.29245 5.01495,-0.0318 1.22637,0.26067 3.35742,1.7443 4.56846,2.0688 1.21105,0.3245 3.79841,0.10516 4.99081,0.4926 1.1924,0.38743 3.1567,2.08569 4.32718,2.535 1.17049,0.4493 3.76661,0.50163 4.91198,1.01158 1.14537,0.50995 2.92139,2.40423 4.0385,2.97342 1.11711,0.5692 3.69353,0.89261 4.77932,1.51949 1.08579,0.62688 2.65408,2.69642 3.70558,3.37927 1.05149,0.68285 3.57999,1.27379 4.59431,2.01074 1.01432,0.73694 2.35768,2.95908 3.33204,3.7481 0.97436,0.78901 3.42724,1.64102 4.35897,2.47995 0.93173,0.83893 2.03546,3.18932 2.922,4.07586 0.88655,0.88655 3.23693,1.99028 4.07587,2.92201 0.83893,0.93173 1.69093,3.38461 2.47995,4.35896 0.78902,0.97436 3.01116,2.31773 3.7481,3.33205 0.73694,1.01431 1.32789,3.54282 2.01074,4.59431 0.68284,1.0515 2.75239,2.61978 3.37927,3.70557 0.62688,1.08579 0.95029,3.66222 1.51948,4.77933 0.5692,1.11711 2.46348,2.89313 2.97343,4.0385 0.50995,1.14537 0.56227,3.74148 1.01158,4.91197 0.44931,1.17049 2.14756,3.13479 2.535,4.32719 0.38743,1.1924 0.1681,3.77976 0.4926,4.9908 0.3245,1.21104 1.80812,3.3421 2.0688,4.56846 0.26067,1.22637 -0.22791,3.77663 -0.0318,5.01496 0.19613,1.23832 1.44887,3.51279 1.57993,4.75968 0.13105,1.2469 -0.62143,3.73211 -0.55581,4.98416 0.0656,1.25204 1.07375,3.64499 1.07375,4.89876 0,1.25376 -1.00814,3.64671 -1.07375,4.89875 -0.0656,1.25205 0.68686,3.73727 0.55581,4.98416 -0.13106,1.2469 -1.3838,3.52136 -1.57993,4.75969 -0.19613,1.23832 0.29245,3.78858 0.0318,5.01495 -0.26068,1.22637 -1.7443,3.35742 -2.0688,4.56846 -0.3245,1.21104 -0.10517,3.7984 -0.4926,4.9908 -0.38744,1.1924 -2.08569,3.1567 -2.535,4.32719 -0.44931,1.17049 -0.50163,3.7666 -1.01158,4.91197 -0.50995,1.14537 -2.40423,2.9214 -2.97343,4.03851 -0.56919,1.11711 -0.8926,3.69353 -1.51948,4.77932 -0.62688,1.08579 -2.69643,2.65408 -3.37927,3.70557 -0.68285,1.0515 -1.2738,3.58 -2.01074,4.59432 -0.73694,1.01431 -2.95908,2.35768 -3.7481,3.33204 -0.78902,0.97436 -1.64102,3.42724 -2.47995,4.35896 -0.83894,0.93173 -3.18932,2.03547 -4.07587,2.92201 z"
       transform="matrix(2.3359232,0.34322356,-0.34322356,2.3359232,-168.5975,-303.57363)"
       inkscape:export-filename="C:\Users\Cnidaria\Github\misc-doodles\path4340.png"
       inkscape:export-xdpi="90"
       inkscape:export-ydpi="90" />
    <path
       style="fill:#ffbc6f;fill-opacity:0.39215686000000000;stroke:#f2b36a;stroke-width:3.75;stroke-linecap:round;stroke-linejoin:round;stroke-miterlimit:4;stroke-opacity:1;stroke-dasharray:none"
       d="m 180.15056,649.43992 c 17.03675,-15.55528 35.60542,-2.50916 44.14742,4.62958 13.27764,11.09638 30.93418,38.4782 44.48074,37.51786 20.37736,-1.4446 16.38322,-20.1956 43.96222,-20.79752 14.1798,-0.30946 24.1469,10.05804 33.91414,11.10902 12.72816,1.36956 15.41208,-1.8544 19.78868,-5.79272 17.46512,-15.7161 17.85112,-21.50478 29.62914,-28.51802 14.7062,-8.75688 27.07252,-3.23326 34.07352,5.9258 7.3594,9.62798 5.4379,24.82014 -0.43656,30.26074 -11.90232,11.02328 -23.5455,9.83136 -31.50302,14.5104 -12.4726,7.33388 -20.60934,23.84522 -13.98558,36.709 7.20754,13.99756 13.92472,12.61282 22.77738,15.4442 11.8037,3.77524 28.20778,0.62762 34.99942,-0.83332 12.44458,-2.67696 15.2144,9.3828 15.68532,18.19946 0.99662,18.65772 -16.42836,18.55886 -25.24032,19.25894 -13.62658,1.08252 -24.60796,0.82834 -31.9258,12.3741 -5.83994,9.214 -1.79034,22.77324 2.96294,32.59204 5.93574,12.2614 25.22524,15.25656 29.62912,28.14768 3.14962,9.2196 2.78514,22.35726 -4.44438,28.8884 -7.15482,6.4637 -20.47738,6.19584 -28.8884,1.48148 -11.27634,-6.3204 -6.3924,-21.8989 -16.81846,-29.54088 -7.30344,-5.35318 -17.62024,-5.5938 -26.66622,-5.1851 -11.8172,0.53392 -19.63748,9.1137 -23.18088,19.17068 -5.58906,15.86306 10.11168,35.14552 2.96294,50.36952 -4.42898,9.43194 -14.78574,19.1794 -25.1848,18.5182 -14.29188,-0.90868 -30.90686,-15.29224 -33.66016,-29.34582 -3.12338,-15.94238 22.22594,-28.35154 19.99968,-44.44372 -2.8858,-20.85928 -18.66444,-27.20706 -29.29782,-22.76046 -7.99168,3.3419 -17.13074,16.3646 -20.25734,23.95192 -3.729,9.04928 -17.73624,6.3739 -23.02288,-1.2226 -9.9601,-14.3119 2.879,-19.03114 4.7584,-29.8813 5.63282,-50.46192 -71.1837,-15.91636 -87.40594,-29.62912 -14.24695,-18.6191 -1.68194,-46.28118 17.55682,-46.7309 7.40729,0 27.52083,1.32818 37.15028,-3.11618 18.0064,-10.32078 24.10428,-17.89384 25.29156,-34.59598 -2.89018,-27.64432 -45.01447,-37.1476 -49.51771,-54.22132 -1.87175,-9.16904 -0.0695,-15.38074 7.66655,-22.44406 z"
       id="path3806"
       inkscape:connector-curvature="0"
       sodipodi:nodetypes="ssssssssssssssssssssssssssssssccccccs"
       inkscape:export-filename="C:\Users\Cnidaria\Github\misc-doodles\path4340.png"
       inkscape:export-xdpi="90"
       inkscape:export-ydpi="90" />
    <path
       sodipodi:type="arc"
       style="fill:#ffbc6f;fill-opacity:0.39215686000000000;stroke:#f2b36a;stroke-width:1.80806572;stroke-miterlimit:4;stroke-opacity:1;stroke-dasharray:none;stroke-linecap:round;stroke-linejoin:round"
       id="path4324"
       sodipodi:cx="451.56055"
       sodipodi:cy="497.54099"
       sodipodi:rx="10.107526"
       sodipodi:ry="7.375762"
       d="m 461.66807,497.54099 a 10.107526,7.375762 0 1 1 -20.21505,0 10.107526,7.375762 0 1 1 20.21505,0 z"
       transform="matrix(2.0427654,-0.35881752,0.35881752,2.0427654,-641.60597,-139.36119)"
       inkscape:export-filename="C:\Users\Cnidaria\Github\misc-doodles\path4340.png"
       inkscape:export-xdpi="90"
       inkscape:export-ydpi="90" />
    <path
       sodipodi:type="arc"
       style="fill:#ffbc6f;fill-opacity:0.39215686000000000;stroke:#f2b36a;stroke-width:1.8080658;stroke-linecap:round;stroke-linejoin:round;stroke-miterlimit:4;stroke-opacity:1;stroke-dasharray:none;stroke-dashoffset:0"
       id="path4326"
       sodipodi:cx="329.86047"
       sodipodi:cy="590.01117"
       sodipodi:rx="9.9709377"
       sodipodi:ry="8.878232"
       d="m 339.83141,590.01117 a 9.9709377,8.878232 0 1 1 -19.94187,0 9.9709377,8.878232 0 1 1 19.94187,0 z"
       transform="matrix(1.8600142,-0.91759865,0.91759865,1.8600142,-940.63121,111.44109)"
       inkscape:export-filename="C:\Users\Cnidaria\Github\misc-doodles\path4340.png"
       inkscape:export-xdpi="90"
       inkscape:export-ydpi="90" />
    <path
       style="fill:#ffbc6f;fill-opacity:0.39215686000000000;stroke:#f2b36a;stroke-width:3.75;stroke-linecap:round;stroke-linejoin:round;stroke-miterlimit:4;stroke-opacity:1;stroke-dasharray:none"
       d="m 178.89624,733.66752 c 2.43326,-10.5497 -11.86911,-20.07104 -22.09655,-22.66316 -8.62769,-2.18664 -23.15379,4.24956 -24.92946,8.78198 -3.39061,8.65464 4.60881,20.77598 14.16445,24.07958 10.38642,3.5908 30.39165,0.51012 32.86156,-10.1984 z"
       id="path4328"
       inkscape:connector-curvature="0"
       sodipodi:nodetypes="sssss"
       inkscape:export-filename="C:\Users\Cnidaria\Github\misc-doodles\path4340.png"
       inkscape:export-xdpi="90"
       inkscape:export-ydpi="90" />
    <path
       sodipodi:type="arc"
       style="fill:#ffbc6f;fill-opacity:0.23529412;stroke:#f2b36a;stroke-width:1.7660296;stroke-linecap:round;stroke-linejoin:round;stroke-miterlimit:4;stroke-opacity:1;stroke-dasharray:none;stroke-dashoffset:0"
       id="path4332"
       sodipodi:cx="367.69553"
       sodipodi:cy="446.01813"
       sodipodi:rx="20.506096"
       sodipodi:ry="20.506096"
       d="m 388.20162,446.01813 a 20.506096,20.506096 0 1 1 -41.01219,0 20.506096,20.506096 0 1 1 41.01219,0 z"
       transform="matrix(2.1234072,0,0,2.1234072,-475.34954,-352.13372)"
       inkscape:export-filename="C:\Users\Cnidaria\Github\misc-doodles\path4340.png"
       inkscape:export-xdpi="90"
       inkscape:export-ydpi="90" />
    <path
       style="fill:none;stroke:#f2b36a;stroke-width:6.25;stroke-linecap:round;stroke-linejoin:round;stroke-miterlimit:4;stroke-opacity:1;stroke-dasharray:none"
       d="m 287.64215,585.80623 c -1.74256,-0.96808 27.08762,20.06766 20.99964,31.62912 -5.13158,9.74524 -19.18486,-1.55554 -19.18486,-1.55554 l 0,0"
       id="path4334"
       inkscape:connector-curvature="0"
       sodipodi:nodetypes="cscc"
       inkscape:export-filename="C:\Users\Cnidaria\Github\misc-doodles\path4340.png"
       inkscape:export-xdpi="90"
       inkscape:export-ydpi="90" />
    <path
       style="fill:none;stroke:#f2b36a;stroke-width:6.25;stroke-linecap:round;stroke-linejoin:round;stroke-miterlimit:4;stroke-opacity:1;stroke-dasharray:none"
       d="m 296.71607,578.54711 25.9255,26.9625 c 0,0 15.41362,-14.97292 -0.25926,-30.85132 -13.08488,-13.2565 -25.66624,3.88882 -25.66624,3.88882 z"
       id="path4336"
       inkscape:connector-curvature="0"
       sodipodi:nodetypes="ccsc"
       inkscape:export-filename="C:\Users\Cnidaria\Github\misc-doodles\path4340.png"
       inkscape:export-xdpi="90"
       inkscape:export-ydpi="90" />
    <path
       style="fill:#c81d37;fill-opacity:0.58823528999999997;stroke:#f2b36a;stroke-width:2.5;stroke-linecap:round;stroke-linejoin:round;stroke-miterlimit:4;stroke-opacity:1;stroke-dasharray:none"
       d="m 282.58014,741.8829 c 0,0 -9.60506,-31.43342 18.98038,-42.77668 31.61048,-12.54368 51.77672,17.46162 56.37456,34.56128 8.33332,30.99204 7.36554,105.38364 7.36554,105.38364 0,0 -47.14744,-5.16662 -90.3693,-15.86422 -35.65346,-8.8244 -53.6013,-41.34158 -40.79366,-64.02338 13.24696,-23.45982 48.44248,-17.28064 48.44248,-17.28064 z"
       id="path4320"
       inkscape:connector-curvature="0"
       sodipodi:nodetypes="csscssc"
       inkscape:export-filename="C:\Users\Cnidaria\Github\misc-doodles\path4340.png"
       inkscape:export-xdpi="90"
       inkscape:export-ydpi="90" />
    <path
       inkscape:connector-curvature="0"
       style="fill:#c81d37;fill-opacity:0.58823528999999997;fill-rule:nonzero;stroke:none;stroke-width:2.50099999999999990;stroke-miterlimit:4;stroke-dasharray:none;stroke-linecap:round;stroke-linejoin:round"
       d="m 342.1692,752.46766 c 0.52858,-1.03572 -1.33742,-2.6135 -2.20358,-3.27176 -0.1342,-0.126 -0.278,-0.23998 -0.45018,-0.32786 -0.98384,-0.5021 -2.18846,-0.1116 -2.69056,0.87228 -0.5021,0.98384 -0.1116,2.18846 0.87228,2.69056 0.1722,0.0878 0.34896,0.1372 0.52962,0.1722 1.04126,0.31516 3.41374,0.90052 3.94232,-0.1352 z"
       id="path3761"
       inkscape:export-filename="C:\Users\Cnidaria\Github\misc-doodles\path4340.png"
       inkscape:export-xdpi="90"
       inkscape:export-ydpi="90" />
    <path
       inkscape:connector-curvature="0"
       style="fill:#c81d37;fill-opacity:0.58823528999999997;fill-rule:nonzero;stroke:none;stroke-width:2.50099999999999990;stroke-miterlimit:4;stroke-dasharray:none;stroke-linecap:round;stroke-linejoin:round"
       d="m 267.1372,777.91974 c 1.1628,0 1.71992,2.37928 1.9125,3.45 0.0512,0.1768 0.0874,0.3567 0.0874,0.55 0,1.10456 -0.89544,2 -2,2 -1.10456,0 -2,-0.89544 -2,-2 0,-0.1932 0.0364,-0.37318 0.0874,-0.55 0.1926,-1.07072 0.74968,-3.45 1.9125,-3.45 z"
       id="path3761-2"
       inkscape:export-filename="C:\Users\Cnidaria\Github\misc-doodles\path4340.png"
       inkscape:export-xdpi="90"
       inkscape:export-ydpi="90" />
    <path
       inkscape:connector-curvature="0"
       style="fill:#c81d37;fill-opacity:0.58823528999999997;fill-rule:nonzero;stroke:none;stroke-width:2.50099999999999990;stroke-miterlimit:4;stroke-dasharray:none;stroke-linecap:round;stroke-linejoin:round"
       d="m 327.70526,766.53552 c -1.02528,0.54854 -0.3941,2.90926 -0.0588,3.9442 0.0382,0.18 0.0912,0.35574 0.1824,0.52618 0.52108,0.97392 1.73304,1.34104 2.70696,0.81998 0.97394,-0.52108 1.34106,-1.73304 0.81998,-2.70696 -0.0912,-0.1704 -0.20814,-0.31188 -0.33652,-0.44372 -0.67492,-0.85324 -2.28854,-2.68834 -3.31384,-2.13978 z"
       id="path3761-5"
       inkscape:export-filename="C:\Users\Cnidaria\Github\misc-doodles\path4340.png"
       inkscape:export-xdpi="90"
       inkscape:export-ydpi="90" />
    <path
       inkscape:connector-curvature="0"
       style="fill:#c81d37;fill-opacity:0.58823528999999997;fill-rule:nonzero;stroke:none;stroke-width:2.50099999999999990;stroke-miterlimit:4;stroke-dasharray:none;stroke-linecap:round;stroke-linejoin:round"
       d="m 272.46814,769.0962 c -1.02528,0.54854 -0.3941,2.90926 -0.0588,3.9442 0.0382,0.18 0.0912,0.35574 0.1824,0.52618 0.52106,0.97394 1.73302,1.34106 2.70696,0.81998 0.97392,-0.52106 1.34104,-1.73302 0.81998,-2.70696 -0.0912,-0.1704 -0.20814,-0.31188 -0.33652,-0.44372 -0.67494,-0.85324 -2.28854,-2.68834 -3.31384,-2.13978 z"
       id="path3761-0"
       inkscape:export-filename="C:\Users\Cnidaria\Github\misc-doodles\path4340.png"
       inkscape:export-xdpi="90"
       inkscape:export-ydpi="90" />
    <path
       inkscape:connector-curvature="0"
       style="fill:#c81d37;fill-opacity:0.58823528999999997;fill-rule:nonzero;stroke:none;stroke-width:2.50099999999999990;stroke-miterlimit:4;stroke-dasharray:none;stroke-linecap:round;stroke-linejoin:round"
       d="m 328.9284,754.9985 c -0.82222,0.82222 0.46624,2.89856 1.08718,3.79186 0.0888,0.1612 0.1904,0.31402 0.32712,0.4507 0.78104,0.78104 2.04738,0.78104 2.82842,0 0.78104,-0.78104 0.78104,-2.04738 0,-2.82842 -0.1366,-0.1366 -0.28962,-0.23814 -0.4507,-0.32712 -0.89332,-0.62092 -2.96964,-1.9094 -3.79186,-1.08718 z"
       id="path3761-7"
       inkscape:export-filename="C:\Users\Cnidaria\Github\misc-doodles\path4340.png"
       inkscape:export-xdpi="90"
       inkscape:export-ydpi="90" />
    <path
       inkscape:connector-curvature="0"
       style="fill:#c81d37;fill-opacity:0.58823528999999997;fill-rule:nonzero;stroke:none;stroke-width:2.50099999999999990;stroke-miterlimit:4;stroke-dasharray:none;stroke-linecap:round;stroke-linejoin:round"
       d="m 321.0497,714.11974 c -1.1628,0 -1.71992,2.37928 -1.9125,3.45 -0.0512,0.1768 -0.0874,0.3567 -0.0874,0.55 0,1.10456 0.89544,2 2,2 1.10456,0 2,-0.89544 2,-2 0,-0.1932 -0.0364,-0.37318 -0.0874,-0.55 -0.1926,-1.07072 -0.74968,-3.45 -1.9125,-3.45 z"
       id="path3761-1"
       inkscape:export-filename="C:\Users\Cnidaria\Github\misc-doodles\path4340.png"
       inkscape:export-xdpi="90"
       inkscape:export-ydpi="90" />
    <path
       inkscape:connector-curvature="0"
       style="fill:#c81d37;fill-opacity:0.58823528999999997;fill-rule:nonzero;stroke:none;stroke-width:2.50099999999999990;stroke-miterlimit:4;stroke-dasharray:none;stroke-linecap:round;stroke-linejoin:round"
       d="m 261.0497,754.11974 c -1.1628,0 -1.71992,2.37928 -1.9125,3.45 -0.0512,0.1768 -0.0874,0.3567 -0.0874,0.55 0,1.10456 0.89544,2 2,2 1.10456,0 2,-0.89544 2,-2 0,-0.1932 -0.0364,-0.37318 -0.0874,-0.55 -0.1926,-1.07072 -0.74968,-3.45 -1.9125,-3.45 z"
       id="path3761-4"
       inkscape:export-filename="C:\Users\Cnidaria\Github\misc-doodles\path4340.png"
       inkscape:export-xdpi="90"
       inkscape:export-ydpi="90" />
    <path
       inkscape:connector-curvature="0"
       style="fill:#c81d37;fill-opacity:0.58823528999999997;fill-rule:nonzero;stroke:none;stroke-width:2.50099999999999990;stroke-miterlimit:4;stroke-dasharray:none;stroke-linecap:round;stroke-linejoin:round"
       d="m 301.0497,754.11974 c -1.1628,0 -1.71992,2.37928 -1.9125,3.45 -0.0512,0.1768 -0.0874,0.3567 -0.0874,0.55 0,1.10456 0.89544,2 2,2 1.10456,0 2,-0.89544 2,-2 0,-0.1932 -0.0364,-0.37318 -0.0874,-0.55 -0.1926,-1.07072 -0.74968,-3.45 -1.9125,-3.45 z"
       id="path3761-00"
       inkscape:export-filename="C:\Users\Cnidaria\Github\misc-doodles\path4340.png"
       inkscape:export-xdpi="90"
       inkscape:export-ydpi="90" />
    <path
       inkscape:connector-curvature="0"
       style="fill:#c81d37;fill-opacity:0.58823528999999997;fill-rule:nonzero;stroke:none;stroke-width:2.50099999999999990;stroke-miterlimit:4;stroke-dasharray:none;stroke-linecap:round;stroke-linejoin:round"
       d="m 338.0498,727.11984 c 0,1.1628 2.37928,1.71992 3.45,1.9125 0.1768,0.0512 0.3567,0.0874 0.55,0.0874 1.10456,0 2,-0.89544 2,-2 0,-1.10456 -0.89544,-2 -2,-2 -0.1932,0 -0.37318,0.0364 -0.55,0.0874 -1.07072,0.1926 -3.45,0.74968 -3.45,1.9125 z"
       id="path3761-6"
       inkscape:export-filename="C:\Users\Cnidaria\Github\misc-doodles\path4340.png"
       inkscape:export-xdpi="90"
       inkscape:export-ydpi="90" />
    <path
       inkscape:connector-curvature="0"
       style="fill:#c81d37;fill-opacity:0.58823528999999997;fill-rule:nonzero;stroke:none;stroke-width:2.50099999999999990;stroke-miterlimit:4;stroke-dasharray:none;stroke-linecap:round;stroke-linejoin:round"
       d="m 297.15736,771.42544 c -0.63274,-0.97556 -2.93206,-0.1486 -3.93522,0.2725 -0.1762,0.0534 -0.3471,0.12 -0.50904,0.22592 -0.9268,0.60094 -1.19088,1.83944 -0.58988,2.76624 0.60092,0.9268 1.83948,1.19088 2.76624,0.58986 0.162,-0.1052 0.29356,-0.23326 0.41352,-0.37308 0.79354,-0.7442 2.48672,-2.50614 1.85406,-3.48176 z"
       id="path3761-13"
       inkscape:export-filename="C:\Users\Cnidaria\Github\misc-doodles\path4340.png"
       inkscape:export-xdpi="90"
       inkscape:export-ydpi="90" />
    <path
       inkscape:connector-curvature="0"
       style="fill:#c81d37;fill-opacity:0.58823528999999997;fill-rule:nonzero;stroke:none;stroke-width:2.50099999999999990;stroke-miterlimit:4;stroke-dasharray:none;stroke-linecap:round;stroke-linejoin:round"
       d="m 357.137,797.91974 c -1.1628,0 -1.71992,2.37928 -1.9125,3.45 -0.0512,0.1768 -0.0874,0.3567 -0.0874,0.55 0,1.10456 0.89544,2 2,2 1.10456,0 2,-0.89544 2,-2 0,-0.1932 -0.0364,-0.37318 -0.0874,-0.55 -0.1926,-1.07072 -0.74968,-3.45 -1.9125,-3.45 z"
       id="path3761-45"
       inkscape:export-filename="C:\Users\Cnidaria\Github\misc-doodles\path4340.png"
       inkscape:export-xdpi="90"
       inkscape:export-ydpi="90" />
    <path
       inkscape:connector-curvature="0"
       style="fill:#c81d37;fill-opacity:0.58823528999999997;fill-rule:nonzero;stroke:none;stroke-width:2.50099999999999990;stroke-miterlimit:4;stroke-dasharray:none;stroke-linecap:round;stroke-linejoin:round"
       d="m 265.0157,798.7985 c -0.82222,0.82222 0.46624,2.89856 1.08718,3.79186 0.0888,0.1612 0.1904,0.31402 0.32712,0.4507 0.78104,0.78104 2.04738,0.78104 2.82842,0 0.78104,-0.78104 0.78104,-2.04738 0,-2.82842 -0.1366,-0.1366 -0.28962,-0.23814 -0.4507,-0.32712 -0.89332,-0.62092 -2.96964,-1.9094 -3.79186,-1.08718 z"
       id="path3761-68"
       inkscape:export-filename="C:\Users\Cnidaria\Github\misc-doodles\path4340.png"
       inkscape:export-xdpi="90"
       inkscape:export-ydpi="90" />
    <path
       inkscape:connector-curvature="0"
       style="fill:#c81d37;fill-opacity:0.58823528999999997;fill-rule:nonzero;stroke:none;stroke-width:2.50099999999999990;stroke-miterlimit:4;stroke-dasharray:none;stroke-linecap:round;stroke-linejoin:round"
       d="m 305.90596,792.631 c 1.02528,0.54854 0.3941,2.90926 0.0588,3.9442 -0.0382,0.18 -0.0912,0.35574 -0.1824,0.52618 -0.52106,0.97394 -1.73302,1.34106 -2.70696,0.81998 -0.97392,-0.52106 -1.34104,-1.73302 -0.81998,-2.70696 0.0912,-0.1704 0.20814,-0.31188 0.33652,-0.44372 0.67494,-0.85324 2.28854,-2.68832 3.31384,-2.13978 z"
       id="path3761-9"
       inkscape:export-filename="C:\Users\Cnidaria\Github\misc-doodles\path4340.png"
       inkscape:export-xdpi="90"
       inkscape:export-ydpi="90" />
    <path
       inkscape:connector-curvature="0"
       style="fill:#c81d37;fill-opacity:0.58823528999999997;fill-rule:nonzero;stroke:none;stroke-width:2.50099999999999990;stroke-miterlimit:4;stroke-dasharray:none;stroke-linecap:round;stroke-linejoin:round"
       d="m 316.56738,793.86514 c 1.14164,0.22086 2.14054,-2.00928 2.53298,-3.02394 0.0838,-0.1638 0.1536,-0.3336 0.1902,-0.52338 0.20978,-1.08446 -0.49928,-2.13368 -1.58372,-2.34346 -1.08446,-0.2098 -2.13368,0.49926 -2.34348,1.5837 -0.0366,0.1898 -0.0352,0.3733 -0.018,0.5566 -0.014,1.0878 0.0808,3.52958 1.2224,3.75044 z"
       id="path3761-63"
       inkscape:export-filename="C:\Users\Cnidaria\Github\misc-doodles\path4340.png"
       inkscape:export-xdpi="90"
       inkscape:export-ydpi="90" />
    <path
       inkscape:connector-curvature="0"
       style="fill:#c81d37;fill-opacity:0.58823528999999997;fill-rule:nonzero;stroke:none;stroke-width:2.50099999999999990;stroke-miterlimit:4;stroke-dasharray:none;stroke-linecap:round;stroke-linejoin:round"
       d="m 310.9078,742.4314 c 0.88612,0.75298 -0.23028,2.9268 -0.77696,3.86736 -0.076,0.1676 -0.1644,0.32832 -0.28874,0.4762 -0.71526,0.84168 -1.97748,0.94406 -2.81916,0.22874 -0.84166,-0.71526 -0.94402,-1.97754 -0.22872,-2.81916 0.1252,-0.1472 0.26942,-0.26088 0.42268,-0.36264 0.83976,-0.69158 2.80544,-2.14336 3.69152,-1.39022 z"
       id="path3761-51"
       inkscape:export-filename="C:\Users\Cnidaria\Github\misc-doodles\path4340.png"
       inkscape:export-xdpi="90"
       inkscape:export-ydpi="90" />
    <path
       inkscape:connector-curvature="0"
       style="fill:#c81d37;fill-opacity:0.58823528999999997;fill-rule:nonzero;stroke:none;stroke-width:2.50099999999999990;stroke-miterlimit:4;stroke-dasharray:none;stroke-linecap:round;stroke-linejoin:round"
       d="m 301.73066,723.57922 c 0.52856,-1.03572 -1.33744,-2.6135 -2.2036,-3.27174 -0.1342,-0.126 -0.27798,-0.24 -0.45016,-0.32786 -0.98384,-0.5021 -2.18846,-0.1116 -2.69056,0.87228 -0.5021,0.98384 -0.1116,2.18846 0.87228,2.69056 0.172,0.0878 0.34894,0.1372 0.52962,0.1722 1.04126,0.31516 3.41374,0.90052 3.94232,-0.1352 z"
       id="path3761-77"
       inkscape:export-filename="C:\Users\Cnidaria\Github\misc-doodles\path4340.png"
       inkscape:export-xdpi="90"
       inkscape:export-ydpi="90" />
    <path
       inkscape:connector-curvature="0"
       style="fill:#c81d37;fill-opacity:0.58823528999999997;fill-rule:nonzero;stroke:none;stroke-width:2.50099999999999990;stroke-miterlimit:4;stroke-dasharray:none;stroke-linecap:round;stroke-linejoin:round"
       d="m 334.50942,799.58354 c -0.58138,1.00702 1.20056,2.67914 2.03154,3.38126 0.1272,0.133 0.2651,0.25412 0.43262,0.35068 0.95658,0.55228 2.17978,0.22452 2.73206,-0.73204 0.55228,-0.95658 0.22452,-2.17976 -0.73204,-2.73204 -0.1674,-0.0966 -0.34138,-0.155 -0.52004,-0.1992 -1.02354,-0.3686 -3.36262,-1.07578 -3.94402,-0.0688 z"
       id="path3761-8"
       inkscape:export-filename="C:\Users\Cnidaria\Github\misc-doodles\path4340.png"
       inkscape:export-xdpi="90"
       inkscape:export-ydpi="90" />
    <path
       inkscape:connector-curvature="0"
       style="fill:#c81d37;fill-opacity:0.58823528999999997;fill-rule:nonzero;stroke:none;stroke-width:2.50099999999999990;stroke-miterlimit:4;stroke-dasharray:none;stroke-linecap:round;stroke-linejoin:round"
       d="m 349.42064,772.62698 c -0.3586,-1.10612 -2.79372,-0.90232 -3.87166,-0.75532 -0.184,0.006 -0.36626,0.0268 -0.55014,0.0864 -1.05074,0.34066 -1.6264,1.46858 -1.28574,2.51932 0.34064,1.05072 1.46856,1.6264 2.51932,1.28572 0.1838,-0.0596 0.34376,-0.1498 0.49626,-0.25274 0.95914,-0.51342 3.05064,-1.7771 2.69204,-2.88324 z"
       id="path3761-75"
       inkscape:export-filename="C:\Users\Cnidaria\Github\misc-doodles\path4340.png"
       inkscape:export-xdpi="90"
       inkscape:export-ydpi="90" />
    <path
       inkscape:connector-curvature="0"
       style="fill:#c81d37;fill-opacity:0.58823528999999997;fill-rule:nonzero;stroke:none;stroke-width:2.50099999999999990;stroke-miterlimit:4;stroke-dasharray:none;stroke-linecap:round;stroke-linejoin:round"
       d="m 247.137,757.91974 c -1.1628,0 -1.71992,2.37928 -1.9125,3.45 -0.0512,0.1768 -0.0874,0.3567 -0.0874,0.55 0,1.10456 0.89544,2 2,2 1.10456,0 2,-0.89544 2,-2 0,-0.1932 -0.0364,-0.37318 -0.0874,-0.55 -0.1926,-1.07072 -0.74968,-3.45 -1.9125,-3.45 z"
       id="path3761-43"
       inkscape:export-filename="C:\Users\Cnidaria\Github\misc-doodles\path4340.png"
       inkscape:export-xdpi="90"
       inkscape:export-ydpi="90" />
    <path
       inkscape:connector-curvature="0"
       style="fill:#c81d37;fill-opacity:0.58823528999999997;fill-rule:nonzero;stroke:none;stroke-width:2.50099999999999990;stroke-miterlimit:4;stroke-dasharray:none;stroke-linecap:round;stroke-linejoin:round"
       d="m 283.2245,804.11974 c 1.1628,0 1.71992,2.37928 1.9125,3.45 0.0512,0.1768 0.0874,0.3567 0.0874,0.55 0,1.10456 -0.89544,2 -2,2 -1.10456,0 -2,-0.89544 -2,-2 0,-0.1932 0.0364,-0.37318 0.0874,-0.55 0.1926,-1.07072 0.74968,-3.45 1.9125,-3.45 z"
       id="path3761-755"
       inkscape:export-filename="C:\Users\Cnidaria\Github\misc-doodles\path4340.png"
       inkscape:export-xdpi="90"
       inkscape:export-ydpi="90" />
    <path
       inkscape:connector-curvature="0"
       style="fill:#c81d37;fill-opacity:0.58823528999999997;fill-rule:nonzero;stroke:none;stroke-width:2.50099999999999990;stroke-miterlimit:4;stroke-dasharray:none;stroke-linecap:round;stroke-linejoin:round"
       d="m 351.0497,824.11974 c -1.1628,0 -1.71992,2.37928 -1.9125,3.45 -0.0512,0.1768 -0.0874,0.3567 -0.0874,0.55 0,1.10456 0.89544,2 2,2 1.10456,0 2,-0.89544 2,-2 0,-0.1932 -0.0364,-0.37318 -0.0874,-0.55 -0.1926,-1.07072 -0.74968,-3.45 -1.9125,-3.45 z"
       id="path3761-08"
       inkscape:export-filename="C:\Users\Cnidaria\Github\misc-doodles\path4340.png"
       inkscape:export-xdpi="90"
       inkscape:export-ydpi="90" />
    <path
       inkscape:connector-curvature="0"
       style="fill:#c81d37;fill-opacity:0.58823528999999997;fill-rule:nonzero;stroke:none;stroke-width:2.50099999999999990;stroke-miterlimit:4;stroke-dasharray:none;stroke-linecap:round;stroke-linejoin:round"
       d="m 318.9284,804.9985 c -0.82222,0.82222 0.46624,2.89856 1.08718,3.79186 0.0888,0.1612 0.1904,0.31402 0.32712,0.4507 0.78104,0.78104 2.04738,0.78104 2.82842,0 0.78104,-0.78104 0.78104,-2.04738 0,-2.82842 -0.1366,-0.1366 -0.28962,-0.23814 -0.4507,-0.32712 -0.89332,-0.62092 -2.96964,-1.9094 -3.79186,-1.08718 z"
       id="path3761-84"
       inkscape:export-filename="C:\Users\Cnidaria\Github\misc-doodles\path4340.png"
       inkscape:export-xdpi="90"
       inkscape:export-ydpi="90" />
    <path
       inkscape:connector-curvature="0"
       style="fill:#c81d37;fill-opacity:0.58823528999999997;fill-rule:nonzero;stroke:none;stroke-width:2.50099999999999990;stroke-miterlimit:4;stroke-dasharray:none;stroke-linecap:round;stroke-linejoin:round"
       d="m 301.0497,814.11974 c -1.1628,0 -1.71992,2.37928 -1.9125,3.45 -0.0512,0.1768 -0.0874,0.3567 -0.0874,0.55 0,1.10456 0.89544,2 2,2 1.10456,0 2,-0.89544 2,-2 0,-0.1932 -0.0364,-0.37318 -0.0874,-0.55 -0.1926,-1.07072 -0.74968,-3.45 -1.9125,-3.45 z"
       id="path3761-61"
       inkscape:export-filename="C:\Users\Cnidaria\Github\misc-doodles\path4340.png"
       inkscape:export-xdpi="90"
       inkscape:export-ydpi="90" />
    <path
       inkscape:connector-curvature="0"
       style="fill:#c81d37;fill-opacity:0.58823528999999997;fill-rule:nonzero;stroke:none;stroke-width:2.50099999999999990;stroke-miterlimit:4;stroke-dasharray:none;stroke-linecap:round;stroke-linejoin:round"
       d="m 333.0001,784.8402 c -0.88352,-0.75596 -2.85366,0.68966 -3.6961,1.37802 -0.1538,0.101 -0.2983,0.21422 -0.42398,0.3611 -0.7181,0.83926 -0.61988,2.1018 0.2194,2.8199 0.83928,0.7181 2.1018,0.61988 2.8199,-0.2194 0.1256,-0.1468 0.21496,-0.30722 0.29116,-0.47472 0.54976,-0.93878 1.67332,-3.1088 0.78978,-3.86478 z"
       id="path3761-76"
       inkscape:export-filename="C:\Users\Cnidaria\Github\misc-doodles\path4340.png"
       inkscape:export-xdpi="90"
       inkscape:export-ydpi="90" />
    <path
       inkscape:connector-curvature="0"
       style="fill:#c81d37;fill-opacity:0.58823528999999997;fill-rule:nonzero;stroke:none;stroke-width:2.50099999999999990;stroke-miterlimit:4;stroke-dasharray:none;stroke-linecap:round;stroke-linejoin:round"
       d="m 318.9284,734.9985 c -0.82222,0.82222 0.46624,2.89856 1.08718,3.79186 0.0888,0.1612 0.1904,0.31402 0.32712,0.4507 0.78104,0.78104 2.04738,0.78104 2.82842,0 0.78104,-0.78104 0.78104,-2.04738 0,-2.82842 -0.1366,-0.1366 -0.28962,-0.23814 -0.4507,-0.32712 -0.89332,-0.62092 -2.96964,-1.9094 -3.79186,-1.08718 z"
       id="path3761-10"
       inkscape:export-filename="C:\Users\Cnidaria\Github\misc-doodles\path4340.png"
       inkscape:export-xdpi="90"
       inkscape:export-ydpi="90" />
    <path
       inkscape:connector-curvature="0"
       style="fill:#c81d37;fill-opacity:0.58823528999999997;fill-rule:nonzero;stroke:none;stroke-width:2.50099999999999990;stroke-miterlimit:4;stroke-dasharray:none;stroke-linecap:round;stroke-linejoin:round"
       d="m 248.42212,785.78354 c -0.58138,1.00702 1.20056,2.67914 2.03154,3.38126 0.1272,0.133 0.2651,0.25412 0.43262,0.35068 0.95658,0.55228 2.17978,0.22452 2.73206,-0.73204 0.55228,-0.95658 0.22452,-2.17976 -0.73204,-2.73204 -0.1674,-0.0966 -0.34138,-0.155 -0.52004,-0.1992 -1.02354,-0.3686 -3.36262,-1.07578 -3.94402,-0.0688 z"
       id="path3761-438"
       inkscape:export-filename="C:\Users\Cnidaria\Github\misc-doodles\path4340.png"
       inkscape:export-xdpi="90"
       inkscape:export-ydpi="90" />
    <path
       inkscape:connector-curvature="0"
       style="fill:#c81d37;fill-opacity:0.58823528999999997;fill-rule:nonzero;stroke:none;stroke-width:2.50099999999999990;stroke-miterlimit:4;stroke-dasharray:none;stroke-linecap:round;stroke-linejoin:round"
       d="m 281.0497,754.11974 c -1.1628,0 -1.71992,2.37928 -1.9125,3.45 -0.0512,0.1768 -0.0874,0.3567 -0.0874,0.55 0,1.10456 0.89544,2 2,2 1.10456,0 2,-0.89544 2,-2 0,-0.1932 -0.0364,-0.37318 -0.0874,-0.55 -0.1926,-1.07072 -0.74968,-3.45 -1.9125,-3.45 z"
       id="path3761-3"
       inkscape:export-filename="C:\Users\Cnidaria\Github\misc-doodles\path4340.png"
       inkscape:export-xdpi="90"
       inkscape:export-ydpi="90" />
    <path
       inkscape:connector-curvature="0"
       style="fill:#c81d37;fill-opacity:0.58823528999999997;fill-rule:nonzero;stroke:none;stroke-width:2.50099999999999990;stroke-miterlimit:4;stroke-dasharray:none;stroke-linecap:round;stroke-linejoin:round"
       d="m 301.0497,784.11974 c -1.1628,0 -1.71992,2.37928 -1.9125,3.45 -0.0512,0.1768 -0.0874,0.3567 -0.0874,0.55 0,1.10456 0.89544,2 2,2 1.10456,0 2,-0.89544 2,-2 0,-0.1932 -0.0364,-0.37318 -0.0874,-0.55 -0.1926,-1.07072 -0.74968,-3.45 -1.9125,-3.45 z"
       id="path3761-58"
       inkscape:export-filename="C:\Users\Cnidaria\Github\misc-doodles\path4340.png"
       inkscape:export-xdpi="90"
       inkscape:export-ydpi="90" />
    <path
       inkscape:connector-curvature="0"
       style="fill:#c81d37;fill-opacity:0.58823528999999997;fill-rule:nonzero;stroke:none;stroke-width:2.50099999999999990;stroke-miterlimit:4;stroke-dasharray:none;stroke-linecap:round;stroke-linejoin:round"
       d="m 251.10316,764.99834 c 0.82222,-0.82222 2.89856,0.46624 3.79186,1.08718 0.1612,0.0888 0.31402,0.1904 0.4507,0.32712 0.78104,0.78104 0.78104,2.04738 0,2.82842 -0.78104,0.78104 -2.04738,0.78104 -2.82842,0 -0.1366,-0.1366 -0.23814,-0.28962 -0.32712,-0.4507 -0.62092,-0.89332 -1.9094,-2.96964 -1.08718,-3.79186 z"
       id="path3761-81"
       inkscape:export-filename="C:\Users\Cnidaria\Github\misc-doodles\path4340.png"
       inkscape:export-xdpi="90"
       inkscape:export-ydpi="90" />
    <path
       inkscape:connector-curvature="0"
       style="fill:#c81d37;fill-opacity:0.58823528999999997;fill-rule:nonzero;stroke:none;stroke-width:2.50099999999999990;stroke-miterlimit:4;stroke-dasharray:none;stroke-linecap:round;stroke-linejoin:round"
       d="m 357.0497,778.11974 c -1.1628,0 -1.71992,2.37928 -1.9125,3.45 -0.0512,0.1768 -0.0874,0.3567 -0.0874,0.55 0,1.10456 0.89544,2 2,2 1.10456,0 2,-0.89544 2,-2 0,-0.1932 -0.0364,-0.37318 -0.0874,-0.55 -0.1926,-1.07072 -0.74968,-3.45 -1.9125,-3.45 z"
       id="path3761-91"
       inkscape:export-filename="C:\Users\Cnidaria\Github\misc-doodles\path4340.png"
       inkscape:export-xdpi="90"
       inkscape:export-ydpi="90" />
    <path
       inkscape:connector-curvature="0"
       style="fill:#c81d37;fill-opacity:0.58823528999999997;fill-rule:nonzero;stroke:none;stroke-width:2.50099999999999990;stroke-miterlimit:4;stroke-dasharray:none;stroke-linecap:round;stroke-linejoin:round"
       d="m 328.0498,817.11984 c 0,1.1628 2.37928,1.71992 3.45,1.9125 0.1768,0.0512 0.3567,0.0874 0.55,0.0874 1.10456,0 2,-0.89544 2,-2 0,-1.10456 -0.89544,-2 -2,-2 -0.1932,0 -0.37318,0.0364 -0.55,0.0874 -1.07072,0.1926 -3.45,0.74968 -3.45,1.9125 z"
       id="path3761-6-5"
       inkscape:export-filename="C:\Users\Cnidaria\Github\misc-doodles\path4340.png"
       inkscape:export-xdpi="90"
       inkscape:export-ydpi="90" />
    <path
       inkscape:connector-curvature="0"
       style="fill:#c81d37;fill-opacity:0.58823528999999997;fill-rule:nonzero;stroke:none;stroke-width:2.50099999999999990;stroke-miterlimit:4;stroke-dasharray:none;stroke-linecap:round;stroke-linejoin:round"
       d="m 308.0498,767.11984 c 0,1.1628 2.37928,1.71992 3.45,1.9125 0.1768,0.0512 0.3567,0.0874 0.55,0.0874 1.10456,0 2,-0.89544 2,-2 0,-1.10456 -0.89544,-2 -2,-2 -0.1932,0 -0.37318,0.0364 -0.55,0.0874 -1.07072,0.1926 -3.45,0.74968 -3.45,1.9125 z"
       id="path3761-6-6"
       inkscape:export-filename="C:\Users\Cnidaria\Github\misc-doodles\path4340.png"
       inkscape:export-xdpi="90"
       inkscape:export-ydpi="90" />
    <path
       inkscape:connector-curvature="0"
       style="fill:#c81d37;fill-opacity:0.58823528999999997;fill-rule:nonzero;stroke:none;stroke-width:2.50099999999999990;stroke-miterlimit:4;stroke-dasharray:none;stroke-linecap:round;stroke-linejoin:round"
       d="m 288.0498,787.11984 c 0,1.1628 2.37928,1.71992 3.45,1.9125 0.1768,0.0512 0.3567,0.0874 0.55,0.0874 1.10456,0 2,-0.89544 2,-2 0,-1.10456 -0.89544,-2 -2,-2 -0.1932,0 -0.37318,0.0364 -0.55,0.0874 -1.07072,0.1926 -3.45,0.74968 -3.45,1.9125 z"
       id="path3761-6-63"
       inkscape:export-filename="C:\Users\Cnidaria\Github\misc-doodles\path4340.png"
       inkscape:export-xdpi="90"
       inkscape:export-ydpi="90" />
    <path
       inkscape:connector-curvature="0"
       style="fill:#c81d37;fill-opacity:0.58823528999999997;fill-rule:nonzero;stroke:none;stroke-width:2.50099999999999990;stroke-miterlimit:4;stroke-dasharray:none;stroke-linecap:round;stroke-linejoin:round"
       d="m 348.92856,809.24114 c 0.82222,0.82222 2.89856,-0.46624 3.79186,-1.08718 0.1612,-0.0888 0.31402,-0.1904 0.4507,-0.32712 0.78104,-0.78104 0.78104,-2.04738 0,-2.82842 -0.78104,-0.78104 -2.04738,-0.78104 -2.82842,0 -0.1366,0.1366 -0.23814,0.28962 -0.32712,0.4507 -0.62092,0.89332 -1.9094,2.96964 -1.08718,3.79186 z"
       id="path3761-6-9"
       inkscape:export-filename="C:\Users\Cnidaria\Github\misc-doodles\path4340.png"
       inkscape:export-xdpi="90"
       inkscape:export-ydpi="90" />
    <path
       inkscape:connector-curvature="0"
       style="fill:#c81d37;fill-opacity:0.58823528999999997;fill-rule:nonzero;stroke:none;stroke-width:2.50099999999999990;stroke-miterlimit:4;stroke-dasharray:none;stroke-linecap:round;stroke-linejoin:round"
       d="m 348.0498,737.11984 c 0,1.1628 2.37928,1.71992 3.45,1.9125 0.1768,0.0512 0.3567,0.0874 0.55,0.0874 1.10456,0 2,-0.89544 2,-2 0,-1.10456 -0.89544,-2 -2,-2 -0.1932,0 -0.37318,0.0364 -0.55,0.0874 -1.07072,0.1926 -3.45,0.74968 -3.45,1.9125 z"
       id="path3761-6-95"
       inkscape:export-filename="C:\Users\Cnidaria\Github\misc-doodles\path4340.png"
       inkscape:export-xdpi="90"
       inkscape:export-ydpi="90" />
    <path
       inkscape:connector-curvature="0"
       style="fill:#c81d37;fill-opacity:0.58823528999999997;fill-rule:nonzero;stroke:none;stroke-width:2.50099999999999990;stroke-miterlimit:4;stroke-dasharray:none;stroke-linecap:round;stroke-linejoin:round"
       d="m 348.42212,755.78354 c -0.58138,1.00702 1.20056,2.67914 2.03154,3.38126 0.1272,0.133 0.2651,0.25412 0.43262,0.35068 0.95658,0.55228 2.17978,0.22452 2.73206,-0.73204 0.55228,-0.95658 0.22452,-2.17976 -0.73204,-2.73204 -0.1674,-0.0966 -0.34138,-0.155 -0.52004,-0.1992 -1.02354,-0.3686 -3.36262,-1.07578 -3.94402,-0.0688 z"
       id="path3761-6-4"
       inkscape:export-filename="C:\Users\Cnidaria\Github\misc-doodles\path4340.png"
       inkscape:export-xdpi="90"
       inkscape:export-ydpi="90" />
    <path
       inkscape:connector-curvature="0"
       style="fill:#c81d37;fill-opacity:0.58823528999999997;fill-rule:nonzero;stroke:none;stroke-width:2.50099999999999990;stroke-miterlimit:4;stroke-dasharray:none;stroke-linecap:round;stroke-linejoin:round"
       d="m 308.0498,707.11984 c 0,1.1628 2.37928,1.71992 3.45,1.9125 0.1768,0.0512 0.3567,0.0874 0.55,0.0874 1.10456,0 2,-0.89544 2,-2 0,-1.10456 -0.89544,-2 -2,-2 -0.1932,0 -0.37318,0.0364 -0.55,0.0874 -1.07072,0.1926 -3.45,0.74968 -3.45,1.9125 z"
       id="path3761-6-7"
       inkscape:export-filename="C:\Users\Cnidaria\Github\misc-doodles\path4340.png"
       inkscape:export-xdpi="90"
       inkscape:export-ydpi="90" />
    <path
       inkscape:connector-curvature="0"
       style="fill:#c81d37;fill-opacity:0.58823528999999997;fill-rule:nonzero;stroke:none;stroke-width:2.50099999999999990;stroke-miterlimit:4;stroke-dasharray:none;stroke-linecap:round;stroke-linejoin:round"
       d="m 308.0498,727.11984 c 0,1.1628 2.37928,1.71992 3.45,1.9125 0.1768,0.0512 0.3567,0.0874 0.55,0.0874 1.10456,0 2,-0.89544 2,-2 0,-1.10456 -0.89544,-2 -2,-2 -0.1932,0 -0.37318,0.0364 -0.55,0.0874 -1.07072,0.1926 -3.45,0.74968 -3.45,1.9125 z"
       id="path3761-6-2"
       inkscape:export-filename="C:\Users\Cnidaria\Github\misc-doodles\path4340.png"
       inkscape:export-xdpi="90"
       inkscape:export-ydpi="90" />
  </g>
</svg>
