<?xml version="1.0" encoding="UTF-8" standalone="no"?>
<!-- Created with Inkscape (http://www.inkscape.org/) -->

<svg
   xmlns:dc="http://purl.org/dc/elements/1.1/"
   xmlns:cc="http://creativecommons.org/ns#"
   xmlns:rdf="http://www.w3.org/1999/02/22-rdf-syntax-ns#"
   xmlns:svg="http://www.w3.org/2000/svg"
   xmlns="http://www.w3.org/2000/svg"
   xmlns:sodipodi="http://sodipodi.sourceforge.net/DTD/sodipodi-0.dtd"
   xmlns:inkscape="http://www.inkscape.org/namespaces/inkscape"
   width="500"
   height="600"
   id="svg3011"
   version="1.1"
   inkscape:version="0.48.1 "
   sodipodi:docname="Androidlove.svg"
   inkscape:export-filename="C:\Users\Cnidaria\Desktop\Dropbox\Art\michelle-bday.png"
   inkscape:export-xdpi="90"
   inkscape:export-ydpi="90">
  <defs
     id="defs3013" />
  <sodipodi:namedview
     id="base"
     pagecolor="#ffffff"
     bordercolor="#666666"
     borderopacity="1.0"
     inkscape:pageopacity="0.0"
     inkscape:pageshadow="2"
     inkscape:zoom="0.97285714"
     inkscape:cx="297.66878"
     inkscape:cy="284.66337"
     inkscape:document-units="px"
     inkscape:current-layer="layer1"
     showgrid="false"
     inkscape:window-width="1582"
     inkscape:window-height="830"
     inkscape:window-x="1921"
     inkscape:window-y="181"
     inkscape:window-maximized="1"
     showguides="true"
     inkscape:guide-bbox="true"
     fit-margin-top="0"
     fit-margin-left="0"
     fit-margin-right="0"
     fit-margin-bottom="0" />
  <metadata
     id="metadata3016">
    <rdf:RDF>
      <cc:Work
         rdf:about="">
        <dc:format>image/svg+xml</dc:format>
        <dc:type
           rdf:resource="http://purl.org/dc/dcmitype/StillImage" />
        <dc:title></dc:title>
      </cc:Work>
    </rdf:RDF>
  </metadata>
  <g
     inkscape:label="Layer 1"
     inkscape:groupmode="layer"
     id="layer1"
     transform="translate(0,-452.36212)">
    <rect
       style="fill:#52001b;fill-opacity:1;fill-rule:nonzero;stroke:none"
       id="rect4434"
       width="500"
       height="600"
       x="-1.2264531e-008"
       y="452.36212" />
    <g
       id="g4436"
       transform="matrix(0.45960199,0,0,0.45960202,89.924829,567.2904)">
      <path
         sodipodi:nodetypes="cscc"
         inkscape:connector-curvature="0"
         id="path3880"
         d="m 504.13572,942.21301 c 0,0 -18.91103,90.07179 6.23002,93.02959 22.32178,2.6266 30.77959,-82.86181 30.77959,-82.86181 z"
         style="fill:#9fbf3b;fill-opacity:1;stroke:#000000;stroke-width:7.57240391;stroke-linecap:butt;stroke-linejoin:miter;stroke-miterlimit:4;stroke-opacity:1;stroke-dasharray:none" />
      <path
         sodipodi:nodetypes="ccc"
         inkscape:connector-curvature="0"
         id="path3856"
         d="m 431.56306,603.05951 c 1.0995,-207.45922 327.66542,-226.75143 339.82663,3.25081 -115.61123,38.3451 -228.56173,31.77507 -339.82663,-3.25081 z"
         style="fill:#9fbf3b;fill-opacity:1;stroke:#000000;stroke-width:7.57240391;stroke-linecap:butt;stroke-linejoin:miter;stroke-miterlimit:4;stroke-opacity:1;stroke-dasharray:none" />
      <path
         sodipodi:nodetypes="zsz"
         inkscape:connector-curvature="0"
         id="path3860"
         d="m 441.58445,663.72433 c -8.75081,24.8194 -166.67497,-14.50862 -143.24523,-41.7894 22.05508,-25.68022 151.99589,16.96983 143.24523,41.7894 z"
         style="fill:#9fbf3b;fill-opacity:1;stroke:#000000;stroke-width:7.57240391;stroke-linecap:butt;stroke-linejoin:miter;stroke-miterlimit:4;stroke-opacity:1;stroke-dasharray:none" />
      <path
         sodipodi:nodetypes="zsz"
         inkscape:connector-curvature="0"
         id="path3860-4"
         d="m 789.81282,621.67894 c 25.3962,-7.01312 82.71198,145.04881 46.9541,141.42577 -33.66002,-3.4105 -72.35031,-134.41279 -46.9541,-141.42577 z"
         style="fill:#9fbf3b;fill-opacity:1;stroke:#000000;stroke-width:7.57240391;stroke-linecap:butt;stroke-linejoin:miter;stroke-miterlimit:4;stroke-opacity:1;stroke-dasharray:none" />
      <path
         sodipodi:nodetypes="cc"
         inkscape:connector-curvature="0"
         id="path3900"
         d="M 480.77254,489.83777 442.0531,425.97678"
         style="fill:none;stroke:#000000;stroke-width:7.57240391;stroke-linecap:butt;stroke-linejoin:miter;stroke-miterlimit:4;stroke-opacity:1;stroke-dasharray:none" />
      <path
         sodipodi:nodetypes="cc"
         inkscape:connector-curvature="0"
         id="path3900-8"
         d="m 723.29972,486.43653 34.98604,-68.61857"
         style="fill:none;stroke:#000000;stroke-width:7.57240391;stroke-linecap:butt;stroke-linejoin:miter;stroke-miterlimit:4;stroke-opacity:1;stroke-dasharray:none" />
      <path
         sodipodi:nodetypes="cscc"
         inkscape:connector-curvature="0"
         id="path3880-6"
         d="m 686.6071,947.12801 c 0,0 8.13118,91.90239 -17.15806,91.44629 -22.45337,-0.4044 -20.75579,-86.35073 -20.75579,-86.35073 z"
         style="fill:#9fbf3b;fill-opacity:1;stroke:#000000;stroke-width:7.57240391;stroke-linecap:butt;stroke-linejoin:miter;stroke-miterlimit:4;stroke-opacity:1;stroke-dasharray:none" />
      <path
         sodipodi:nodetypes="ccccc"
         inkscape:connector-curvature="0"
         id="path3858"
         d="m 432.00494,617.39998 0.33951,306.22185 c 113.13146,49.65857 222.25753,37.63583 330.27422,8.53063 L 769.87473,622.4939 C 663.63608,652.04185 553.44194,662.23132 432.0052,617.39998 z"
         style="fill:#9fbf3b;fill-opacity:1;stroke:#000000;stroke-width:7.57240391;stroke-linecap:butt;stroke-linejoin:miter;stroke-miterlimit:4;stroke-opacity:1;stroke-dasharray:none" />
      <path
         sodipodi:nodetypes="ccccccccccccc"
         inkscape:connector-curvature="0"
         id="path3894"
         d="m 431.08587,864.74598 0,59.88639 c 19.88878,15.40387 45.48899,18.09078 68.42421,24.81009 l -8.40299,62.02524 c 13.20469,6.934 26.40937,6.9284 39.61404,5.9886 l 12.00424,-58.17537 c 36.92696,8.99782 66.56452,2.67256 102.43624,-2.99432 l 4.00143,65.44729 c 13.87156,2.3358 27.74315,2.4558 41.61472,-4.2776 l -3.20114,-67.58609 c 24.69679,-2.77776 50.00536,-7.51749 76.82721,-17.1104 l 0.40014,-60.31414 c -110.60755,19.60921 -225.19556,23.60861 -333.7181,-7.69969 z"
         style="fill:#101e2a;fill-opacity:1;stroke:#000000;stroke-width:4.54344225;stroke-linecap:butt;stroke-linejoin:miter;stroke-miterlimit:4;stroke-opacity:1;stroke-dasharray:none" />
      <g
         transform="matrix(1.4647738,0,0,1.5658747,321.8472,95.069883)"
         id="g4119">
        <g
           id="g4064">
          <g
             id="g4051">
            <g
               id="g4103">
              <g
                 id="g4086">
                <path
                   style="fill:none;stroke:#000000;stroke-width:1px;stroke-linecap:butt;stroke-linejoin:miter;stroke-opacity:1"
                   d="m 90.967732,496.72144 0,9.56118"
                   id="path3901"
                   inkscape:connector-curvature="0" />
                <path
                   style="fill:none;stroke:#000000;stroke-width:1px;stroke-linecap:butt;stroke-linejoin:miter;stroke-opacity:1"
                   d="m 93.972672,496.17509 0.273176,10.3807"
                   id="path3909"
                   inkscape:connector-curvature="0" />
                <path
                   inkscape:connector-curvature="0"
                   id="path3901-6"
                   d="m 114.18772,501.63862 0,9.56118"
                   style="fill:none;stroke:#000000;stroke-width:1px;stroke-linecap:butt;stroke-linejoin:miter;stroke-opacity:1" />
                <path
                   inkscape:connector-curvature="0"
                   id="path3909-4"
                   d="m 117.19266,501.09227 0.27318,10.3807"
                   style="fill:none;stroke:#000000;stroke-width:1px;stroke-linecap:butt;stroke-linejoin:miter;stroke-opacity:1" />
                <path
                   inkscape:connector-curvature="0"
                   id="path3901-5"
                   d="m 139.59313,504.00233 0,11.38288"
                   style="fill:none;stroke:#000000;stroke-width:1.09111464px;stroke-linecap:butt;stroke-linejoin:miter;stroke-opacity:1" />
                <path
                   inkscape:connector-curvature="0"
                   id="path3909-3"
                   d="m 142.59807,505.27768 0.27317,10.3807"
                   style="fill:none;stroke:#000000;stroke-width:1px;stroke-linecap:butt;stroke-linejoin:miter;stroke-opacity:1" />
              </g>
              <path
                 style="fill:none;stroke:#000000;stroke-width:1.11012471px;stroke-linecap:butt;stroke-linejoin:miter;stroke-opacity:1"
                 d="m 161.44724,506.1364 0,11.78298"
                 id="path3901-7"
                 inkscape:connector-curvature="0" />
              <path
                 style="fill:none;stroke:#000000;stroke-width:1.11012471px;stroke-linecap:butt;stroke-linejoin:miter;stroke-opacity:1"
                 d="m 164.45218,505.46309 0.27317,12.79293"
                 id="path3909-0"
                 inkscape:connector-curvature="0" />
              <path
                 inkscape:connector-curvature="0"
                 id="path3901-9"
                 d="m 190.67711,506.54339 0,11.69794"
                 style="fill:none;stroke:#000000;stroke-width:1.10611153px;stroke-linecap:butt;stroke-linejoin:miter;stroke-opacity:1" />
            </g>
            <g
               id="g4045">
              <path
                 inkscape:connector-curvature="0"
                 id="path3901-57"
                 d="m 279.7326,498.3605 0,9.56118"
                 style="fill:none;stroke:#000000;stroke-width:1px;stroke-linecap:butt;stroke-linejoin:miter;stroke-opacity:1" />
              <path
                 inkscape:connector-curvature="0"
                 id="path3909-49"
                 d="m 282.73754,497.81415 0.27318,10.3807"
                 style="fill:none;stroke:#000000;stroke-width:1px;stroke-linecap:butt;stroke-linejoin:miter;stroke-opacity:1" />
              <path
                 inkscape:connector-curvature="0"
                 id="path3901-4"
                 d="m 257.05897,503.0045 0,9.56118"
                 style="fill:none;stroke:#000000;stroke-width:1px;stroke-linecap:butt;stroke-linejoin:miter;stroke-opacity:1" />
              <path
                 inkscape:connector-curvature="0"
                 id="path3909-1"
                 d="m 260.06391,502.45815 0.27317,10.3807"
                 style="fill:none;stroke:#000000;stroke-width:1px;stroke-linecap:butt;stroke-linejoin:miter;stroke-opacity:1" />
            </g>
            <path
               style="fill:none;stroke:#000000;stroke-width:1px;stroke-linecap:butt;stroke-linejoin:miter;stroke-opacity:1"
               d="m 233.5658,506.28261 0,9.56118"
               id="path3901-8"
               inkscape:connector-curvature="0" />
            <path
               style="fill:none;stroke:#000000;stroke-width:1px;stroke-linecap:butt;stroke-linejoin:miter;stroke-opacity:1"
               d="m 236.57074,505.73626 0.27317,10.3807"
               id="path3909-11"
               inkscape:connector-curvature="0" />
            <g
               id="g4115">
              <path
                 inkscape:connector-curvature="0"
                 id="path3909-7"
                 d="m 193.68205,505.87494 0.27317,12.70061"
                 style="fill:none;stroke:#000000;stroke-width:1.10611153px;stroke-linecap:butt;stroke-linejoin:miter;stroke-opacity:1" />
              <path
                 inkscape:connector-curvature="0"
                 id="path3901-1"
                 d="m 212.53122,506.82897 0,9.56118"
                 style="fill:none;stroke:#000000;stroke-width:1px;stroke-linecap:butt;stroke-linejoin:miter;stroke-opacity:1" />
            </g>
            <path
               style="fill:none;stroke:#000000;stroke-width:1px;stroke-linecap:butt;stroke-linejoin:miter;stroke-opacity:1"
               d="m 215.53616,506.28262 0.27317,10.3807"
               id="path3909-5"
               inkscape:connector-curvature="0" />
          </g>
        </g>
      </g>
      <path
         sodipodi:nodetypes="cc"
         inkscape:connector-curvature="0"
         id="path3896"
         d="m 431.88615,880.57311 c 112.19859,39.58757 222.84226,30.95544 332.91782,4.70535"
         style="fill:none;stroke:#000000;stroke-width:4.54344225;stroke-linecap:butt;stroke-linejoin:miter;stroke-miterlimit:4;stroke-opacity:1;stroke-dasharray:none" />
      <path
         transform="matrix(0.40120918,0,0,0.42890123,446.24054,681.81096)"
         d="m 351.85116,510.92661 c 0,4.07352 -3.30224,7.37576 -7.37576,7.37576 -4.07352,0 -7.37576,-3.30224 -7.37576,-7.37576 0,-4.07353 3.30224,-7.37577 7.37576,-7.37577 4.07352,0 7.37576,3.30224 7.37576,7.37577 z"
         sodipodi:ry="7.375762"
         sodipodi:rx="7.375762"
         sodipodi:cy="510.92661"
         sodipodi:cx="344.4754"
         id="path3999"
         style="fill:#fc9818;fill-opacity:0.42857145;stroke:#000000;stroke-width:1.82544911;stroke-linecap:round;stroke-linejoin:miter;stroke-miterlimit:4;stroke-opacity:1;stroke-dasharray:none;stroke-dashoffset:0"
         sodipodi:type="arc" />
      <path
         sodipodi:nodetypes="ccc"
         inkscape:connector-curvature="0"
         id="path4037"
         d="m 590.74236,941.74276 -10.40367,2.99432 -0.8003,0"
         style="fill:none;stroke:#000000;stroke-width:1.51448083px;stroke-linecap:butt;stroke-linejoin:miter;stroke-opacity:1" />
      <path
         inkscape:connector-curvature="0"
         id="path3909-0-5-5"
         d="m 579.33834,895.68401 0.40012,69.15"
         style="fill:none;stroke:#000000;stroke-width:1.51448083;stroke-linecap:butt;stroke-linejoin:miter;stroke-miterlimit:4;stroke-opacity:1;stroke-dasharray:none" />
      <path
         sodipodi:nodetypes="cc"
         inkscape:connector-curvature="0"
         id="path4039"
         d="m 450.6928,887.41726 c -5.29255,6.75514 -8.22451,18.05265 -18.4065,15.39936"
         style="fill:none;stroke:#000000;stroke-width:1.51448083px;stroke-linecap:butt;stroke-linejoin:miter;stroke-opacity:1" />
      <path
         sodipodi:nodetypes="cc"
         inkscape:connector-curvature="0"
         id="path4041"
         d="m 740.79546,891.69484 c 7.49581,6.73348 7.99993,21.77171 24.00851,18.3937"
         style="fill:none;stroke:#000000;stroke-width:1.51448083px;stroke-linecap:butt;stroke-linejoin:miter;stroke-opacity:1" />
      <path
         sodipodi:nodetypes="cc"
         inkscape:connector-curvature="0"
         id="path3909-0-5"
         d="m 590.14215,893.84134 0.40015,48.24627"
         style="fill:none;stroke:#000000;stroke-width:1.51448083;stroke-linecap:butt;stroke-linejoin:miter;stroke-miterlimit:4;stroke-opacity:1;stroke-dasharray:none" />
      <path
         inkscape:connector-curvature="0"
         id="path3074"
         d="m 478.14275,569.16588 27.84167,-37.96592 18.98297,43.02804"
         style="fill:none;stroke:#000000;stroke-width:4.35288048;stroke-linecap:butt;stroke-linejoin:miter;stroke-miterlimit:4;stroke-opacity:1;stroke-dasharray:none" />
      <path
         inkscape:connector-curvature="0"
         id="path3074-3"
         d="m 685.05701,576.75906 -27.84167,-37.96592 -18.98296,43.02804"
         style="fill:none;stroke:#000000;stroke-width:4.35288048;stroke-linecap:butt;stroke-linejoin:miter;stroke-miterlimit:4;stroke-opacity:1;stroke-dasharray:none" />
      <path
         sodipodi:nodetypes="cscccscccccccc"
         inkscape:connector-curvature="0"
         id="path3869"
         d="m 516.33897,636.32782 c 4.84665,13.08811 37.83703,33.55929 55.52982,34.03873 20.19195,0.54715 56.32813,-16.70301 68.75429,-29.12356 44.75384,-0.18614 88.89451,-6.15555 135.33501,-24.89497 42.56283,-6.55644 54.73171,48.41148 63.03306,71.24809 -11.78292,25.0561 -36.34603,31.92118 -55.33009,30.76193 -4.92179,-0.30055 -5.31101,-6.40995 -12.91863,-29.51728 l -2.79316,189.11459 c -114.00493,19.91895 -231.4414,29.19268 -340.42775,-4.42932 l -1.5726,-174.27259 c -64.35731,-18.18854 -62.80728,-10.84536 -69.29712,-23.15022 -5.98502,-10.80495 4.07471,-49.18026 18.98296,-61.49997 13.01545,-2.97537 33.16084,-2.08858 53.91611,-2.13518 z"
         style="fill:#ffffff;fill-opacity:1;stroke:#000000;stroke-width:4.35288048;stroke-linecap:butt;stroke-linejoin:miter;stroke-miterlimit:4;stroke-opacity:1;stroke-dasharray:none" />
      <path
         sodipodi:nodetypes="ccccccccccccccccccccccccccccscccccccccc"
         inkscape:connector-curvature="0"
         id="path3871"
         d="m 461.69085,508.4204 -6.32765,24.67785 29.73997,-29.1072 -3.7966,32.90379 36.06763,-33.53656 10.12425,36.06763 13.92083,-28.47445 14.5536,22.77956 10.12426,-36.06763 11.38977,41.12975 13.92083,-35.43486 20.2485,31.0055 -3.79659,-37.33315 25.94338,31.0055 1.89829,-32.9038 32.27103,28.47445 0.63277,-35.43486 32.27103,29.1072 0,-28.47444 29.73997,33.53657 -1.26553,-27.84168 -5.3785,-8.85871 c 29.91164,0.1783 60.94253,5.39324 88.67708,-4.22541 -18.34088,-0.13403 -36.68176,0.0839 -55.02264,-7.00153 28.51159,-2.21409 27.24161,-22.62802 36.18005,-36.80349 -12.86412,10.56104 -22.56696,25.33711 -41.99282,27.14917 -1.92697,-19.57247 3.67663,-39.46848 12.56922,-56.32929 -15.31799,17.317 -36.80845,38.80744 -40.72728,74.3631 1.67149,-1.22576 -52.71434,-44.2423 -126.55306,-43.66081 -68.1045,0.53634 -115.27247,40.73754 -115.79607,44.92634 -12.23867,-22.77676 -16.45595,-43.94925 -39.28573,-68.84423 0.5195,9.05473 -3.04753,19.87944 -2.16039,34.99129 -8.88994,-7.26372 -15.23422,-13.25462 -21.82109,-19.3668 2.36168,10.25219 13.24823,20.50438 23.71939,30.75657 -8.75883,-5.74227 -23.46677,-8.20565 -33.28764,-5.77166 7.34674,3.19909 19.33566,5.62447 20.31594,9.88464 -0.75788,4.5034 -11.98437,9.6409 -22.00642,12.39321 21.93586,11.63376 48.79349,6.67516 70.72935,9.43719 z"
         style="fill:#140a0a;fill-opacity:1;stroke:#000000;stroke-width:4.35288048;stroke-linecap:butt;stroke-linejoin:miter;stroke-miterlimit:4;stroke-opacity:1;stroke-dasharray:none" />
    </g>
    <text
       xml:space="preserve"
       style="font-size:7.01001501px;font-style:normal;font-variant:normal;font-weight:600;font-stretch:normal;text-align:start;line-height:125%;letter-spacing:0px;word-spacing:0px;text-anchor:start;fill:#ffffff;fill-opacity:1;stroke:none;font-family:Lucida Sans;-inkscape-font-specification:Lucida Sans Semi-Bold"
       x="246.91501"
       y="516.27295"
       id="text3873"
       sodipodi:linespacing="125%"><tspan
         sodipodi:role="line"
         id="tspan3875"
         x="246.91499"
         y="516.27295"
         style="font-size:63.09013367px;font-style:normal;font-variant:normal;font-weight:normal;font-stretch:normal;text-align:center;text-anchor:middle;fill:#ffffff;fill-opacity:1;font-family:TF2 Build;-inkscape-font-specification:TF2 Build">happy happy</tspan><tspan
         sodipodi:role="line"
         x="246.91501"
         y="595.13562"
         style="font-size:63.09013367px;font-style:normal;font-variant:normal;font-weight:normal;font-stretch:normal;text-align:center;text-anchor:middle;fill:#ffffff;fill-opacity:1;font-family:TF2 Build;-inkscape-font-specification:TF2 Build"
         id="tspan3881">birthday</tspan><tspan
         sodipodi:role="line"
         x="246.91501"
         y="673.99823"
         style="font-size:63.09013367px;font-style:normal;font-variant:normal;font-weight:normal;font-stretch:normal;text-align:center;text-anchor:middle;fill:#ffffff;fill-opacity:1;font-family:TF2 Build;-inkscape-font-specification:TF2 Build"
         id="tspan3883">Michelle!!! -</tspan></text>
    <path
       sodipodi:type="arc"
       style="fill:#344d6e;fill-opacity:1;fill-rule:nonzero;stroke:#20395a;stroke-width:30;stroke-linecap:round;stroke-linejoin:bevel;stroke-miterlimit:4;stroke-opacity:1;stroke-dasharray:none;stroke-dashoffset:0"
       id="path3885"
       sodipodi:cx="198.06258"
       sodipodi:cy="879.2226"
       sodipodi:rx="140.64261"
       sodipodi:ry="48.334538"
       d="m 338.70518,879.2226 a 140.64261,48.334538 0 1 1 -281.285212,0 140.64261,48.334538 0 1 1 281.285212,0 z"
       transform="matrix(0.69812699,0,0,0.69812703,15.629055,217.48854)" />
    <g
       id="g4398"
       transform="matrix(0.69812699,0,0,0.69812703,1.9286281,459.16906)">
      <path
         sodipodi:nodetypes="ccccc"
         inkscape:connector-curvature="0"
         id="path3911"
         d="m 291.51916,420.28453 7.8e-4,106.95945 c -0.12586,9.41335 -7.82886,18.15851 -13.98532,27.03382 l -0.0199,-106.46077 c 6.48972,-8.76765 14.07888,-17.28792 14.00444,-27.5325 z"
         style="fill:#ffffff;fill-opacity:1;stroke:#000000;stroke-width:1px;stroke-linecap:round;stroke-linejoin:round;stroke-opacity:1" />
      <path
         sodipodi:nodetypes="ccc"
         inkscape:connector-curvature="0"
         id="path3889"
         d="m 138.75849,419.13569 137.2327,-19.57829 c 27.55297,17.95999 12.22167,32.96244 1.48084,48.28148"
         style="fill:#ffffff;fill-opacity:1;stroke:#000000;stroke-width:1px;stroke-linecap:round;stroke-linejoin:round;stroke-opacity:1" />
      <path
         sodipodi:nodetypes="ccccc"
         inkscape:connector-curvature="0"
         id="path3887"
         d="m 138.8096,419.11298 -0.5516,105.84824 139.214,29.29516 c 1.00708,-35.47013 -0.35737,-68.98685 -10e-4,-106.41038 z"
         style="fill:#ffff96;fill-opacity:1;stroke:#000000;stroke-width:1px;stroke-linecap:round;stroke-linejoin:round;stroke-opacity:1" />
      <path
         d="m 280.23128,899.60535 c 0,1.73856 -1.35186,3.14794 -3.01946,3.14794 -1.6676,0 -3.01945,-1.40938 -3.01945,-3.14794 0,-1.73856 1.35185,-3.14795 3.01945,-3.14795 1.6676,0 3.01946,1.40939 3.01946,3.14795 z"
         sodipodi:ry="3.1479442"
         sodipodi:rx="3.0194566"
         sodipodi:cy="899.60535"
         sodipodi:cx="277.21182"
         id="path3918-73"
         style="fill:#e12e42;fill-opacity:1;fill-rule:nonzero;stroke:#000000;stroke-width:1;stroke-linecap:round;stroke-linejoin:round;stroke-miterlimit:4;stroke-opacity:1;stroke-dasharray:none;stroke-dashoffset:0"
         sodipodi:type="arc"
         transform="translate(-0.65104086,-500.30457)" />
      <path
         d="m 280.23128,899.60535 c 0,1.73856 -1.35186,3.14794 -3.01946,3.14794 -1.6676,0 -3.01945,-1.40938 -3.01945,-3.14794 0,-1.73856 1.35185,-3.14795 3.01945,-3.14795 1.6676,0 3.01946,1.40939 3.01946,3.14795 z"
         sodipodi:ry="3.1479442"
         sodipodi:rx="3.0194566"
         sodipodi:cy="899.60535"
         sodipodi:cx="277.21182"
         id="path3918-49"
         style="fill:#e12e42;fill-opacity:1;fill-rule:nonzero;stroke:#000000;stroke-width:1;stroke-linecap:round;stroke-linejoin:round;stroke-miterlimit:4;stroke-opacity:1;stroke-dasharray:none;stroke-dashoffset:0"
         sodipodi:type="arc"
         transform="translate(3.528261,-497.57894)" />
      <path
         d="m 280.23128,899.60535 c 0,1.73856 -1.35186,3.14794 -3.01946,3.14794 -1.6676,0 -3.01945,-1.40938 -3.01945,-3.14794 0,-1.73856 1.35185,-3.14795 3.01945,-3.14795 1.6676,0 3.01946,1.40939 3.01946,3.14795 z"
         sodipodi:ry="3.1479442"
         sodipodi:rx="3.0194566"
         sodipodi:cy="899.60535"
         sodipodi:cx="277.21182"
         id="path3918-3"
         style="fill:#e12e42;fill-opacity:1;fill-rule:nonzero;stroke:#000000;stroke-width:1;stroke-linecap:round;stroke-linejoin:round;stroke-miterlimit:4;stroke-opacity:1;stroke-dasharray:none;stroke-dashoffset:0"
         sodipodi:type="arc"
         transform="translate(6.2538929,-494.67159)" />
      <path
         d="m 280.23128,899.60535 c 0,1.73856 -1.35186,3.14794 -3.01946,3.14794 -1.6676,0 -3.01945,-1.40938 -3.01945,-3.14794 0,-1.73856 1.35185,-3.14795 3.01945,-3.14795 1.6676,0 3.01946,1.40939 3.01946,3.14795 z"
         sodipodi:ry="3.1479442"
         sodipodi:rx="3.0194566"
         sodipodi:cy="899.60535"
         sodipodi:cx="277.21182"
         id="path3918-71"
         style="fill:#e12e42;fill-opacity:1;fill-rule:nonzero;stroke:#000000;stroke-width:1;stroke-linecap:round;stroke-linejoin:round;stroke-miterlimit:4;stroke-opacity:1;stroke-dasharray:none;stroke-dashoffset:0"
         sodipodi:type="arc"
         transform="translate(9.7063599,-491.21913)" />
      <path
         d="m 280.23128,899.60535 c 0,1.73856 -1.35186,3.14794 -3.01946,3.14794 -1.6676,0 -3.01945,-1.40938 -3.01945,-3.14794 0,-1.73856 1.35185,-3.14795 3.01945,-3.14795 1.6676,0 3.01946,1.40939 3.01946,3.14795 z"
         sodipodi:ry="3.1479442"
         sodipodi:rx="3.0194566"
         sodipodi:cy="899.60535"
         sodipodi:cx="277.21182"
         id="path3918-98"
         style="fill:#e12e42;fill-opacity:1;fill-rule:nonzero;stroke:#000000;stroke-width:1;stroke-linecap:round;stroke-linejoin:round;stroke-miterlimit:4;stroke-opacity:1;stroke-dasharray:none;stroke-dashoffset:0"
         sodipodi:type="arc"
         transform="translate(11.886865,-487.94837)" />
      <path
         d="m 280.23128,899.60535 c 0,1.73856 -1.35186,3.14794 -3.01946,3.14794 -1.6676,0 -3.01945,-1.40938 -3.01945,-3.14794 0,-1.73856 1.35185,-3.14795 3.01945,-3.14795 1.6676,0 3.01946,1.40939 3.01946,3.14795 z"
         sodipodi:ry="3.1479442"
         sodipodi:rx="3.0194566"
         sodipodi:cy="899.60535"
         sodipodi:cx="277.21182"
         id="path3918-47"
         style="fill:#e12e42;fill-opacity:1;fill-rule:nonzero;stroke:#000000;stroke-width:1;stroke-linecap:round;stroke-linejoin:round;stroke-miterlimit:4;stroke-opacity:1;stroke-dasharray:none;stroke-dashoffset:0"
         sodipodi:type="arc"
         transform="translate(13.703953,-484.85932)" />
      <path
         d="m 280.23128,899.60535 c 0,1.73856 -1.35186,3.14794 -3.01946,3.14794 -1.6676,0 -3.01945,-1.40938 -3.01945,-3.14794 0,-1.73856 1.35185,-3.14795 3.01945,-3.14795 1.6676,0 3.01946,1.40939 3.01946,3.14795 z"
         sodipodi:ry="3.1479442"
         sodipodi:rx="3.0194566"
         sodipodi:cy="899.60535"
         sodipodi:cx="277.21182"
         id="path3918-2"
         style="fill:#e12e42;fill-opacity:1;fill-rule:nonzero;stroke:#000000;stroke-width:1;stroke-linecap:round;stroke-linejoin:round;stroke-miterlimit:4;stroke-opacity:1;stroke-dasharray:none;stroke-dashoffset:0"
         sodipodi:type="arc"
         transform="translate(14.24908,-481.40685)" />
      <path
         d="m 280.23128,899.60535 c 0,1.73856 -1.35186,3.14794 -3.01946,3.14794 -1.6676,0 -3.01945,-1.40938 -3.01945,-3.14794 0,-1.73856 1.35185,-3.14795 3.01945,-3.14795 1.6676,0 3.01946,1.40939 3.01946,3.14795 z"
         sodipodi:ry="3.1479442"
         sodipodi:rx="3.0194566"
         sodipodi:cy="899.60535"
         sodipodi:cx="277.21182"
         id="path3918-6"
         style="fill:#e12e42;fill-opacity:1;fill-rule:nonzero;stroke:#000000;stroke-width:1;stroke-linecap:round;stroke-linejoin:round;stroke-miterlimit:4;stroke-opacity:1;stroke-dasharray:none;stroke-dashoffset:0"
         sodipodi:type="arc"
         transform="translate(14.067371,-477.95438)" />
      <path
         d="m 280.23128,899.60535 c 0,1.73856 -1.35186,3.14794 -3.01946,3.14794 -1.6676,0 -3.01945,-1.40938 -3.01945,-3.14794 0,-1.73856 1.35185,-3.14795 3.01945,-3.14795 1.6676,0 3.01946,1.40939 3.01946,3.14795 z"
         sodipodi:ry="3.1479442"
         sodipodi:rx="3.0194566"
         sodipodi:cy="899.60535"
         sodipodi:cx="277.21182"
         id="path3918-471"
         style="fill:#e12e42;fill-opacity:1;fill-rule:nonzero;stroke:#000000;stroke-width:1;stroke-linecap:round;stroke-linejoin:round;stroke-miterlimit:4;stroke-opacity:1;stroke-dasharray:none;stroke-dashoffset:0"
         sodipodi:type="arc"
         transform="translate(13.158827,-475.04704)" />
      <path
         d="m 280.23128,899.60535 c 0,1.73856 -1.35186,3.14794 -3.01946,3.14794 -1.6676,0 -3.01945,-1.40938 -3.01945,-3.14794 0,-1.73856 1.35185,-3.14795 3.01945,-3.14795 1.6676,0 3.01946,1.40939 3.01946,3.14795 z"
         sodipodi:ry="3.1479442"
         sodipodi:rx="3.0194566"
         sodipodi:cy="899.60535"
         sodipodi:cx="277.21182"
         id="path3918-5"
         style="fill:#e12e42;fill-opacity:1;fill-rule:nonzero;stroke:#000000;stroke-width:1;stroke-linecap:round;stroke-linejoin:round;stroke-miterlimit:4;stroke-opacity:1;stroke-dasharray:none;stroke-dashoffset:0"
         sodipodi:type="arc"
         transform="translate(12.977118,-471.59458)" />
      <path
         d="m 280.23128,899.60535 c 0,1.73856 -1.35186,3.14794 -3.01946,3.14794 -1.6676,0 -3.01945,-1.40938 -3.01945,-3.14794 0,-1.73856 1.35185,-3.14795 3.01945,-3.14795 1.6676,0 3.01946,1.40939 3.01946,3.14795 z"
         sodipodi:ry="3.1479442"
         sodipodi:rx="3.0194566"
         sodipodi:cy="899.60535"
         sodipodi:cx="277.21182"
         id="path3918-75"
         style="fill:#e12e42;fill-opacity:1;fill-rule:nonzero;stroke:#000000;stroke-width:1;stroke-linecap:round;stroke-linejoin:round;stroke-miterlimit:4;stroke-opacity:1;stroke-dasharray:none;stroke-dashoffset:0"
         sodipodi:type="arc"
         transform="translate(11.16003,-468.50553)" />
      <path
         d="m 280.23128,899.60535 c 0,1.73856 -1.35186,3.14794 -3.01946,3.14794 -1.6676,0 -3.01945,-1.40938 -3.01945,-3.14794 0,-1.73856 1.35185,-3.14795 3.01945,-3.14795 1.6676,0 3.01946,1.40939 3.01946,3.14795 z"
         sodipodi:ry="3.1479442"
         sodipodi:rx="3.0194566"
         sodipodi:cy="899.60535"
         sodipodi:cx="277.21182"
         id="path3918-58"
         style="fill:#e12e42;fill-opacity:1;fill-rule:nonzero;stroke:#000000;stroke-width:1;stroke-linecap:round;stroke-linejoin:round;stroke-miterlimit:4;stroke-opacity:1;stroke-dasharray:none;stroke-dashoffset:0"
         sodipodi:type="arc"
         transform="translate(9.5246511,-465.41648)" />
      <path
         d="m 280.23128,899.60535 c 0,1.73856 -1.35186,3.14794 -3.01946,3.14794 -1.6676,0 -3.01945,-1.40938 -3.01945,-3.14794 0,-1.73856 1.35185,-3.14795 3.01945,-3.14795 1.6676,0 3.01946,1.40939 3.01946,3.14795 z"
         sodipodi:ry="3.1479442"
         sodipodi:rx="3.0194566"
         sodipodi:cy="899.60535"
         sodipodi:cx="277.21182"
         id="path3918-64"
         style="fill:#e12e42;fill-opacity:1;fill-rule:nonzero;stroke:#000000;stroke-width:1;stroke-linecap:round;stroke-linejoin:round;stroke-miterlimit:4;stroke-opacity:1;stroke-dasharray:none;stroke-dashoffset:0"
         sodipodi:type="arc"
         transform="translate(7.889272,-462.69085)" />
      <path
         d="m 280.23128,899.60535 c 0,1.73856 -1.35186,3.14794 -3.01946,3.14794 -1.6676,0 -3.01945,-1.40938 -3.01945,-3.14794 0,-1.73856 1.35185,-3.14795 3.01945,-3.14795 1.6676,0 3.01946,1.40939 3.01946,3.14795 z"
         sodipodi:ry="3.1479442"
         sodipodi:rx="3.0194566"
         sodipodi:cy="899.60535"
         sodipodi:cx="277.21182"
         id="path3918-62"
         style="fill:#e12e42;fill-opacity:1;fill-rule:nonzero;stroke:#000000;stroke-width:1;stroke-linecap:round;stroke-linejoin:round;stroke-miterlimit:4;stroke-opacity:1;stroke-dasharray:none;stroke-dashoffset:0"
         sodipodi:type="arc"
         transform="translate(5.7087665,-459.7835)" />
      <path
         d="m 280.23128,899.60535 c 0,1.73856 -1.35186,3.14794 -3.01946,3.14794 -1.6676,0 -3.01945,-1.40938 -3.01945,-3.14794 0,-1.73856 1.35185,-3.14795 3.01945,-3.14795 1.6676,0 3.01946,1.40939 3.01946,3.14795 z"
         sodipodi:ry="3.1479442"
         sodipodi:rx="3.0194566"
         sodipodi:cy="899.60535"
         sodipodi:cx="277.21182"
         id="path3918-33"
         style="fill:#e12e42;fill-opacity:1;fill-rule:nonzero;stroke:#000000;stroke-width:1;stroke-linecap:round;stroke-linejoin:round;stroke-miterlimit:4;stroke-opacity:1;stroke-dasharray:none;stroke-dashoffset:0"
         sodipodi:type="arc"
         transform="translate(3.8916786,-457.42129)" />
      <path
         d="m 280.23128,899.60535 c 0,1.73856 -1.35186,3.14794 -3.01946,3.14794 -1.6676,0 -3.01945,-1.40938 -3.01945,-3.14794 0,-1.73856 1.35185,-3.14795 3.01945,-3.14795 1.6676,0 3.01946,1.40939 3.01946,3.14795 z"
         sodipodi:ry="3.1479442"
         sodipodi:rx="3.0194566"
         sodipodi:cy="899.60535"
         sodipodi:cx="277.21182"
         id="path3918-85"
         style="fill:#e12e42;fill-opacity:1;fill-rule:nonzero;stroke:#000000;stroke-width:1;stroke-linecap:round;stroke-linejoin:round;stroke-miterlimit:4;stroke-opacity:1;stroke-dasharray:none;stroke-dashoffset:0"
         sodipodi:type="arc"
         transform="translate(2.0745907,-454.51395)" />
      <path
         d="m 280.23128,899.60535 c 0,1.73856 -1.35186,3.14794 -3.01946,3.14794 -1.6676,0 -3.01945,-1.40938 -3.01945,-3.14794 0,-1.73856 1.35185,-3.14795 3.01945,-3.14795 1.6676,0 3.01946,1.40939 3.01946,3.14795 z"
         sodipodi:ry="3.1479442"
         sodipodi:rx="3.0194566"
         sodipodi:cy="899.60535"
         sodipodi:cx="277.21182"
         id="path3918-65"
         style="fill:#e12e42;fill-opacity:1;fill-rule:nonzero;stroke:#000000;stroke-width:1;stroke-linecap:round;stroke-linejoin:round;stroke-miterlimit:4;stroke-opacity:1;stroke-dasharray:none;stroke-dashoffset:0"
         sodipodi:type="arc"
         transform="translate(0.25750276,-451.78832)" />
      <path
         d="m 280.23128,899.60535 c 0,1.73856 -1.35186,3.14794 -3.01946,3.14794 -1.6676,0 -3.01945,-1.40938 -3.01945,-3.14794 0,-1.73856 1.35185,-3.14795 3.01945,-3.14795 1.6676,0 3.01946,1.40939 3.01946,3.14795 z"
         sodipodi:ry="3.1479442"
         sodipodi:rx="3.0194566"
         sodipodi:cy="899.60535"
         sodipodi:cx="277.21182"
         id="path3918"
         style="fill:#e12e42;fill-opacity:1;fill-rule:nonzero;stroke:#000000;stroke-width:1;stroke-linecap:round;stroke-linejoin:round;stroke-miterlimit:4;stroke-opacity:1;stroke-dasharray:none;stroke-dashoffset:0"
         sodipodi:type="arc"
         transform="translate(14.794206,-371.10961)" />
      <path
         d="m 280.23128,899.60535 c 0,1.73856 -1.35186,3.14794 -3.01946,3.14794 -1.6676,0 -3.01945,-1.40938 -3.01945,-3.14794 0,-1.73856 1.35185,-3.14795 3.01945,-3.14795 1.6676,0 3.01946,1.40939 3.01946,3.14795 z"
         sodipodi:ry="3.1479442"
         sodipodi:rx="3.0194566"
         sodipodi:cy="899.60535"
         sodipodi:cx="277.21182"
         id="path3918-4"
         style="fill:#e12e42;fill-opacity:1;fill-rule:nonzero;stroke:#000000;stroke-width:1;stroke-linecap:round;stroke-linejoin:round;stroke-miterlimit:4;stroke-opacity:1;stroke-dasharray:none;stroke-dashoffset:0"
         sodipodi:type="arc"
         transform="translate(13.703953,-368.02056)" />
      <path
         d="m 280.23128,899.60535 c 0,1.73856 -1.35186,3.14794 -3.01946,3.14794 -1.6676,0 -3.01945,-1.40938 -3.01945,-3.14794 0,-1.73856 1.35185,-3.14795 3.01945,-3.14795 1.6676,0 3.01946,1.40939 3.01946,3.14795 z"
         sodipodi:ry="3.1479442"
         sodipodi:rx="3.0194566"
         sodipodi:cy="899.60535"
         sodipodi:cx="277.21182"
         id="path3918-8"
         style="fill:#e12e42;fill-opacity:1;fill-rule:nonzero;stroke:#000000;stroke-width:1;stroke-linecap:round;stroke-linejoin:round;stroke-miterlimit:4;stroke-opacity:1;stroke-dasharray:none;stroke-dashoffset:0"
         sodipodi:type="arc"
         transform="translate(12.068574,-364.5681)" />
      <path
         d="m 280.23128,899.60535 c 0,1.73856 -1.35186,3.14794 -3.01946,3.14794 -1.6676,0 -3.01945,-1.40938 -3.01945,-3.14794 0,-1.73856 1.35185,-3.14795 3.01945,-3.14795 1.6676,0 3.01946,1.40939 3.01946,3.14795 z"
         sodipodi:ry="3.1479442"
         sodipodi:rx="3.0194566"
         sodipodi:cy="899.60535"
         sodipodi:cx="277.21182"
         id="path3918-9"
         style="fill:#e12e42;fill-opacity:1;fill-rule:nonzero;stroke:#000000;stroke-width:1;stroke-linecap:round;stroke-linejoin:round;stroke-miterlimit:4;stroke-opacity:1;stroke-dasharray:none;stroke-dashoffset:0"
         sodipodi:type="arc"
         transform="translate(10.433195,-361.47905)" />
      <path
         d="m 280.23128,899.60535 c 0,1.73856 -1.35186,3.14794 -3.01946,3.14794 -1.6676,0 -3.01945,-1.40938 -3.01945,-3.14794 0,-1.73856 1.35185,-3.14795 3.01945,-3.14795 1.6676,0 3.01946,1.40939 3.01946,3.14795 z"
         sodipodi:ry="3.1479442"
         sodipodi:rx="3.0194566"
         sodipodi:cy="899.60535"
         sodipodi:cx="277.21182"
         id="path3918-43"
         style="fill:#e12e42;fill-opacity:1;fill-rule:nonzero;stroke:#000000;stroke-width:1;stroke-linecap:round;stroke-linejoin:round;stroke-miterlimit:4;stroke-opacity:1;stroke-dasharray:none;stroke-dashoffset:0"
         sodipodi:type="arc"
         transform="translate(8.6161072,-357.84487)" />
      <path
         d="m 280.23128,899.60535 c 0,1.73856 -1.35186,3.14794 -3.01946,3.14794 -1.6676,0 -3.01945,-1.40938 -3.01945,-3.14794 0,-1.73856 1.35185,-3.14795 3.01945,-3.14795 1.6676,0 3.01946,1.40939 3.01946,3.14795 z"
         sodipodi:ry="3.1479442"
         sodipodi:rx="3.0194566"
         sodipodi:cy="899.60535"
         sodipodi:cx="277.21182"
         id="path3918-7"
         style="fill:#e12e42;fill-opacity:1;fill-rule:nonzero;stroke:#000000;stroke-width:1;stroke-linecap:round;stroke-linejoin:round;stroke-miterlimit:4;stroke-opacity:1;stroke-dasharray:none;stroke-dashoffset:0"
         sodipodi:type="arc"
         transform="translate(6.6173105,-354.57411)" />
      <path
         d="m 280.23128,899.60535 c 0,1.73856 -1.35186,3.14794 -3.01946,3.14794 -1.6676,0 -3.01945,-1.40938 -3.01945,-3.14794 0,-1.73856 1.35185,-3.14795 3.01945,-3.14795 1.6676,0 3.01946,1.40939 3.01946,3.14795 z"
         sodipodi:ry="3.1479442"
         sodipodi:rx="3.0194566"
         sodipodi:cy="899.60535"
         sodipodi:cx="277.21182"
         id="path3918-81"
         style="fill:#e12e42;fill-opacity:1;fill-rule:nonzero;stroke:#000000;stroke-width:1;stroke-linecap:round;stroke-linejoin:round;stroke-miterlimit:4;stroke-opacity:1;stroke-dasharray:none;stroke-dashoffset:0"
         sodipodi:type="arc"
         transform="translate(4.6185138,-351.84848)" />
      <path
         d="m 280.23128,899.60535 c 0,1.73856 -1.35186,3.14794 -3.01946,3.14794 -1.6676,0 -3.01945,-1.40938 -3.01945,-3.14794 0,-1.73856 1.35185,-3.14795 3.01945,-3.14795 1.6676,0 3.01946,1.40939 3.01946,3.14795 z"
         sodipodi:ry="3.1479442"
         sodipodi:rx="3.0194566"
         sodipodi:cy="899.60535"
         sodipodi:cx="277.21182"
         id="path3918-20"
         style="fill:#e12e42;fill-opacity:1;fill-rule:nonzero;stroke:#000000;stroke-width:1;stroke-linecap:round;stroke-linejoin:round;stroke-miterlimit:4;stroke-opacity:1;stroke-dasharray:none;stroke-dashoffset:0"
         sodipodi:type="arc"
         transform="translate(2.4380083,-348.94114)" />
      <path
         d="m 280.23128,899.60535 c 0,1.73856 -1.35186,3.14794 -3.01946,3.14794 -1.6676,0 -3.01945,-1.40938 -3.01945,-3.14794 0,-1.73856 1.35185,-3.14795 3.01945,-3.14795 1.6676,0 3.01946,1.40939 3.01946,3.14795 z"
         sodipodi:ry="3.1479442"
         sodipodi:rx="3.0194566"
         sodipodi:cy="899.60535"
         sodipodi:cx="277.21182"
         id="path3918-0"
         style="fill:#e12e42;fill-opacity:1;fill-rule:nonzero;stroke:#000000;stroke-width:1;stroke-linecap:round;stroke-linejoin:round;stroke-miterlimit:4;stroke-opacity:1;stroke-dasharray:none;stroke-dashoffset:0"
         sodipodi:type="arc"
         transform="translate(-0.10591483,-345.67038)" />
      <path
         sodipodi:nodetypes="ccccc"
         inkscape:connector-curvature="0"
         id="path4157"
         d="m 138.58702,467.01002 -0.061,10.0396 138.88278,25.82265 0.0796,-9.46659 z"
         style="fill:#e12e42;fill-opacity:1;stroke:#000000;stroke-width:1px;stroke-linecap:butt;stroke-linejoin:miter;stroke-opacity:1" />
    </g>
    <path
       transform="matrix(1.7082803,0,0,1.7082805,-319.12476,-788.97446)"
       sodipodi:type="arc"
       style="fill:#e12e42;fill-opacity:1;fill-rule:nonzero;stroke:#000000;stroke-width:0.66750646;stroke-linecap:round;stroke-linejoin:round;stroke-miterlimit:4;stroke-opacity:1;stroke-dasharray:none;stroke-dashoffset:0"
       id="path3918-65-7"
       sodipodi:cx="277.21182"
       sodipodi:cy="899.60535"
       sodipodi:rx="3.0194566"
       sodipodi:ry="3.1479442"
       d="m 280.23128,899.60535 a 3.0194566,3.1479442 0 1 1 -6.03891,0 3.0194566,3.1479442 0 1 1 6.03891,0 z" />
    <path
       transform="matrix(1.7082803,0,0,1.7082805,-319.259,-796.01932)"
       sodipodi:type="arc"
       style="fill:#e12e42;fill-opacity:1;fill-rule:nonzero;stroke:#000000;stroke-width:0.66750646;stroke-linecap:round;stroke-linejoin:round;stroke-miterlimit:4;stroke-opacity:1;stroke-dasharray:none;stroke-dashoffset:0"
       id="path3918-65-7-0"
       sodipodi:cx="277.21182"
       sodipodi:cy="899.60535"
       sodipodi:rx="3.0194566"
       sodipodi:ry="3.1479442"
       d="m 280.23128,899.60535 a 3.0194566,3.1479442 0 1 1 -6.03891,0 3.0194566,3.1479442 0 1 1 6.03891,0 z" />
    <path
       transform="matrix(1.7082803,0,0,1.7082805,-319.36259,-802.64976)"
       sodipodi:type="arc"
       style="fill:#e12e42;fill-opacity:1;fill-rule:nonzero;stroke:#000000;stroke-width:0.66750646;stroke-linecap:round;stroke-linejoin:round;stroke-miterlimit:4;stroke-opacity:1;stroke-dasharray:none;stroke-dashoffset:0"
       id="path3918-65-7-08"
       sodipodi:cx="277.21182"
       sodipodi:cy="899.60535"
       sodipodi:rx="3.0194566"
       sodipodi:ry="3.1479442"
       d="m 280.23128,899.60535 a 3.0194566,3.1479442 0 1 1 -6.03891,0 3.0194566,3.1479442 0 1 1 6.03891,0 z" />
    <path
       transform="matrix(1.7082803,0,0,1.7082805,-319.36259,-808.86576)"
       sodipodi:type="arc"
       style="fill:#e12e42;fill-opacity:1;fill-rule:nonzero;stroke:#000000;stroke-width:0.66750646;stroke-linecap:round;stroke-linejoin:round;stroke-miterlimit:4;stroke-opacity:1;stroke-dasharray:none;stroke-dashoffset:0"
       id="path3918-65-7-1"
       sodipodi:cx="277.21182"
       sodipodi:cy="899.60535"
       sodipodi:rx="3.0194566"
       sodipodi:ry="3.1479442"
       d="m 280.23128,899.60535 a 3.0194566,3.1479442 0 1 1 -6.03891,0 3.0194566,3.1479442 0 1 1 6.03891,0 z" />
    <path
       transform="matrix(1.7082803,0,0,1.7082805,-319.15628,-815.50517)"
       sodipodi:type="arc"
       style="fill:#e12e42;fill-opacity:1;fill-rule:nonzero;stroke:#000000;stroke-width:0.66750646;stroke-linecap:round;stroke-linejoin:round;stroke-miterlimit:4;stroke-opacity:1;stroke-dasharray:none;stroke-dashoffset:0"
       id="path3918-65-7-2"
       sodipodi:cx="277.21182"
       sodipodi:cy="899.60535"
       sodipodi:rx="3.0194566"
       sodipodi:ry="3.1479442"
       d="m 280.23128,899.60535 a 3.0194566,3.1479442 0 1 1 -6.03891,0 3.0194566,3.1479442 0 1 1 6.03891,0 z" />
    <path
       transform="matrix(1.7082803,0,0,1.7082805,-319.15628,-823.12392)"
       sodipodi:type="arc"
       style="fill:#e12e42;fill-opacity:1;fill-rule:nonzero;stroke:#000000;stroke-width:0.66750646;stroke-linecap:round;stroke-linejoin:round;stroke-miterlimit:4;stroke-opacity:1;stroke-dasharray:none;stroke-dashoffset:0"
       id="path3918-65-7-6"
       sodipodi:cx="277.21182"
       sodipodi:cy="899.60535"
       sodipodi:rx="3.0194566"
       sodipodi:ry="3.1479442"
       d="m 280.23128,899.60535 a 3.0194566,3.1479442 0 1 1 -6.03891,0 3.0194566,3.1479442 0 1 1 6.03891,0 z" />
    <path
       style="fill:#e12e42;fill-opacity:1;stroke:#000000;stroke-width:1.14028823px;stroke-linecap:butt;stroke-linejoin:miter;stroke-opacity:1"
       d="m 154.25268,712.92165 0,-7.32563"
       id="path4248"
       inkscape:connector-curvature="0" />
    <path
       style="fill:#ff0010;fill-opacity:1;fill-rule:nonzero;stroke:none"
       d="m 154.1161,688.3217 -4.56114,13.71909 c -0.0841,0.29213 -0.14254,0.61338 -0.14254,0.92648 0,2.18476 2.17597,3.95538 4.84622,3.95538 2.67026,0 4.84622,-1.77062 4.84622,-3.95538 0,-0.54618 -0.1473,-1.05899 -0.39196,-1.53225 l -4.5968,-13.11332 z"
       id="path4252"
       inkscape:connector-curvature="0" />
    <path
       inkscape:connector-curvature="0"
       style="fill:#ffff60;fill-opacity:1;fill-rule:nonzero;stroke:none"
       d="m 154.14946,696.69014 -2.40687,7.23941 c -0.0444,0.15415 -0.0752,0.32367 -0.0752,0.48889 0,1.15287 1.14824,2.08721 2.5573,2.08721 1.40907,0 2.5573,-0.93434 2.5573,-2.08721 0,-0.28823 -0.0778,-0.55883 -0.20684,-0.80855 l -2.42567,-6.91975 z"
       id="path4252-4" />
    <path
       style="fill:#ff3232;fill-opacity:1;stroke:#000000;stroke-width:1.86951661;stroke-linecap:butt;stroke-linejoin:miter;stroke-miterlimit:4;stroke-opacity:1;stroke-dasharray:none"
       d="m 425.18292,646.10754 c 0,0 -6.65197,-18.20512 -12.85021,-15.57902 -13.69407,5.80199 4.97813,44.33891 4.97813,44.33891 0,0 35.07564,-21.47754 27.30444,-33.65527 -3.59337,-5.63099 -19.43236,4.89538 -19.43236,4.89538 z"
       id="path3940"
       inkscape:connector-curvature="0"
       sodipodi:nodetypes="cscsc"
       inkscape:export-xdpi="90"
       inkscape:export-ydpi="90" />
  </g>
</svg>
