<?xml version="1.0" encoding="UTF-8" standalone="no"?>
<!-- Created with Inkscape (http://www.inkscape.org/) -->

<svg
   xmlns:osb="http://www.openswatchbook.org/uri/2009/osb"
   xmlns:dc="http://purl.org/dc/elements/1.1/"
   xmlns:cc="http://creativecommons.org/ns#"
   xmlns:rdf="http://www.w3.org/1999/02/22-rdf-syntax-ns#"
   xmlns:svg="http://www.w3.org/2000/svg"
   xmlns="http://www.w3.org/2000/svg"
   xmlns:sodipodi="http://sodipodi.sourceforge.net/DTD/sodipodi-0.dtd"
   xmlns:inkscape="http://www.inkscape.org/namespaces/inkscape"
   width="500"
   height="500"
   id="svg2"
   version="1.1"
   inkscape:version="0.48.1 "
   sodipodi:docname="rob-bday.svg"
   inkscape:export-filename="C:\Users\Cnidaria\Desktop\Dropbox\Art\rob-bday.png"
   inkscape:export-xdpi="90"
   inkscape:export-ydpi="90">
  <defs
     id="defs4">
    <linearGradient
       id="linearGradient4531"
       osb:paint="solid">
      <stop
         style="stop-color:#005dff;stop-opacity:1;"
         offset="0"
         id="stop4533" />
    </linearGradient>
    <inkscape:perspective
       sodipodi:type="inkscape:persp3d"
       inkscape:vp_x="-507.70929 : 420.33774 : 0"
       inkscape:vp_y="0 : 1000 : 0"
       inkscape:vp_z="669.97061 : 443.09837 : 0"
       inkscape:persp3d-origin="133.99413 : 12.481648 : 1"
       id="perspective2985" />
  </defs>
  <sodipodi:namedview
     id="base"
     pagecolor="#ffffff"
     bordercolor="#666666"
     borderopacity="1.0"
     inkscape:pageopacity="0.0"
     inkscape:pageshadow="2"
     inkscape:zoom="0.665"
     inkscape:cx="27.343635"
     inkscape:cy="307.14308"
     inkscape:document-units="px"
     inkscape:current-layer="layer1"
     showgrid="false"
     showguides="false"
     inkscape:guide-bbox="true"
     inkscape:window-width="1600"
     inkscape:window-height="848"
     inkscape:window-x="1912"
     inkscape:window-y="172"
     inkscape:window-maximized="1">
    <sodipodi:guide
       orientation="1,0"
       position="49.926579,412.62849"
       id="guide3063" />
    <sodipodi:guide
       orientation="1,0"
       position="450.07342,389.13363"
       id="guide3065" />
    <sodipodi:guide
       orientation="1,0"
       position="250.36711,408.95742"
       id="guide3067" />
    <sodipodi:guide
       orientation="0,1"
       position="318.64905,49.926579"
       id="guide3069" />
    <sodipodi:guide
       orientation="0,1"
       position="338.47283,450.07342"
       id="guide3071" />
    <inkscape:grid
       type="xygrid"
       id="grid3075"
       empspacing="5"
       visible="true"
       enabled="true"
       snapvisiblegridlinesonly="true" />
  </sodipodi:namedview>
  <metadata
     id="metadata7">
    <rdf:RDF>
      <cc:Work
         rdf:about="">
        <dc:format>image/svg+xml</dc:format>
        <dc:type
           rdf:resource="http://purl.org/dc/dcmitype/StillImage" />
        <dc:title></dc:title>
      </cc:Work>
    </rdf:RDF>
  </metadata>
  <g
     inkscape:label="Layer 1"
     inkscape:groupmode="layer"
     id="layer1"
     transform="translate(0,-552.36217)">
    <rect
       style="fill:#000000;fill-opacity:1;fill-rule:nonzero;stroke:none"
       id="rect4624"
       width="500"
       height="500"
       x="0"
       y="552.36218" />
    <g
       id="g4589"
       transform="matrix(0.74998637,0,0,0.75545896,40.720896,245.1381)"
       style="stroke:#646464;stroke-opacity:1">
      <path
         sodipodi:nodetypes="ccccc"
         inkscape:connector-curvature="0"
         id="path3932-1"
         d="m 120.1361,842.97501 158.96622,-39.57676 -39.85844,39.86734 -159.2,39.28617 z"
         style="fill:#0064ff;fill-opacity:1;stroke:#646464;stroke-width:1.99999225;stroke-linecap:round;stroke-linejoin:round;stroke-miterlimit:4;stroke-opacity:1;stroke-dasharray:none" />
      <path
         sodipodi:nodetypes="ccccc"
         inkscape:connector-curvature="0"
         id="path3932-3-2"
         d="m 438.24387,843.26559 -158.96622,-39.57676 39.56622,39.57676 159.20001,39.28617 z"
         style="fill:#0064ff;fill-opacity:1;stroke:#646464;stroke-width:1.99999225;stroke-linecap:round;stroke-linejoin:round;stroke-miterlimit:4;stroke-opacity:1;stroke-dasharray:none" />
    </g>
    <g
       id="g4597"
       transform="matrix(0.74998637,0,0,0.75545896,40.720896,245.1381)"
       style="stroke:#646464;stroke-opacity:1">
      <path
         inkscape:connector-curvature="0"
         id="path3854-5-8"
         d="m 278.75166,922.12852 -158.90778,39.28616 -0.0584,-118.43967 159.25844,-39.63489 z"
         style="fill:#ffff64;fill-opacity:1;stroke:#646464;stroke-width:1.99999225;stroke-linecap:round;stroke-linejoin:round;stroke-miterlimit:4;stroke-opacity:1;stroke-dasharray:none" />
      <path
         inkscape:connector-curvature="0"
         id="path3854-5-8-0"
         d="m 279.33609,922.12852 158.90778,39.28616 0.0585,-118.43967 -159.25844,-39.63489 z"
         style="fill:#ffff64;fill-opacity:1;stroke:#646464;stroke-width:1.99999225;stroke-linecap:round;stroke-linejoin:round;stroke-miterlimit:4;stroke-opacity:1;stroke-dasharray:none" />
    </g>
    <g
       id="g4593"
       transform="matrix(0.74998637,0,0,0.75545896,40.720896,245.1381)"
       style="stroke:#646464;stroke-opacity:1">
      <path
         inkscape:connector-curvature="0"
         id="path3854"
         d="m 279.33609,882.55176 158.90778,-39.28617 0.0585,118.43967 -159.25844,39.63484 z"
         style="fill:#0064ff;fill-opacity:1;stroke:#646464;stroke-width:1.99999225;stroke-linecap:round;stroke-linejoin:round;stroke-miterlimit:4;stroke-opacity:1;stroke-dasharray:none" />
      <path
         inkscape:connector-curvature="0"
         id="path3854-5"
         d="m 278.69323,882.26118 -158.90779,-39.28617 -0.0584,118.43967 159.25845,39.63482 z"
         style="fill:#0064ff;fill-opacity:1;stroke:#646464;stroke-width:1.99999225;stroke-linecap:round;stroke-linejoin:round;stroke-miterlimit:4;stroke-opacity:1;stroke-dasharray:none" />
    </g>
    <g
       id="g4555"
       transform="matrix(0.39592573,-0.05307514,0.05269067,0.39881476,-194.208,412.7009)"
       style="stroke:#646464;stroke-opacity:1">
      <path
         id="rect3799-0"
         d="m 887.27118,1269.9437 c -10.313,0 -18.68207,8.1601 -18.98963,18.3354 l -0.036,0 0,0.5729 0,77.3522 0.036,0 c -0.0135,0.2984 -0.036,0.5933 -0.036,0.8953 0,10.4427 8.51801,18.9083 19.02566,18.9083 10.50766,0 19.02567,-8.4656 19.02567,-18.9083 0,-0.302 -0.022,-0.5969 -0.036,-0.8953 l 0.036,0 0,-77.3522 0,-0.5729 -0.036,0 c -0.30762,-10.1753 -8.67673,-18.3354 -18.9897,-18.3354 z"
         style="fill:#a4c739;fill-opacity:1;fill-rule:nonzero;stroke:#646464;stroke-width:3.85294938;stroke-linecap:square;stroke-linejoin:round;stroke-miterlimit:4;stroke-opacity:1;stroke-dasharray:none;stroke-dashoffset:0"
         inkscape:connector-curvature="0" />
      <path
         id="rect3799-6"
         d="m 993.94231,1269.9453 c -10.31286,0 -18.68183,8.16 -18.98937,18.3351 l -0.036,0 0,0.5729 0,77.3512 0.036,0 c -0.0135,0.2983 -0.036,0.5934 -0.036,0.8951 0,10.4429 8.51789,18.9082 19.02542,18.9082 10.50754,0 19.02544,-8.4653 19.02544,-18.9082 0,-0.3017 -0.022,-0.5968 -0.036,-0.8951 l 0.036,0 0,-77.3512 0,-0.5729 -0.036,0 c -0.3076,-10.1751 -8.6766,-18.3351 -18.98948,-18.3351 z"
         style="fill:#a4c739;fill-opacity:1;fill-rule:nonzero;stroke:#646464;stroke-width:3.85294938;stroke-linecap:square;stroke-linejoin:round;stroke-miterlimit:4;stroke-opacity:1;stroke-dasharray:none;stroke-dashoffset:0"
         inkscape:connector-curvature="0" />
      <path
         inkscape:connector-curvature="0"
         id="path2997"
         d="m 826.46932,1121.8022 c -0.0193,-0.8113 -0.0376,-1.6174 -0.0376,-2.4329 0,-60.6708 51.09093,-109.8728 114.13618,-109.8728 63.0452,0 114.1739,49.202 114.1739,109.8728 0,0.8155 -0.019,1.6216 -0.038,2.4329 l -228.23472,0 z"
         style="fill:#a4c739;fill-opacity:1;fill-rule:nonzero;stroke:#646464;stroke-width:3.85294938;stroke-miterlimit:4;stroke-opacity:1;stroke-dasharray:none" />
      <rect
         y="1129.8005"
         x="826.43213"
         height="169.60271"
         width="228.30927"
         id="rect3775"
         style="fill:#a4c739;fill-opacity:1;fill-rule:nonzero;stroke:#646464;stroke-width:3.85294938;stroke-linecap:square;stroke-linejoin:round;stroke-miterlimit:4;stroke-opacity:1;stroke-dasharray:none;stroke-dashoffset:0" />
      <path
         inkscape:connector-curvature="0"
         id="rect3799"
         d="m 770.59556,1050.1937 c -9.81687,3.133 -15.2679,13.4452 -12.42401,23.227 l -0.0342,0.011 0.17661,0.5456 23.84476,73.6512 0.0343,-0.012 c 0.0786,0.2884 0.14853,0.5759 0.24167,0.8634 3.21912,9.9431 13.93695,15.4159 23.93912,12.2237 10.00216,-3.1923 15.50084,-13.8405 12.2817,-23.7836 -0.0931,-0.2875 -0.20488,-0.5616 -0.31029,-0.8415 l 0.0343,-0.012 -23.84477,-73.6512 -0.17662,-0.5456 -0.0343,0.012 c -3.42937,-9.595 -13.91125,-14.8221 -23.72813,-11.689 z"
         style="fill:#a4c739;fill-opacity:1;fill-rule:nonzero;stroke:#646464;stroke-width:3.85294938;stroke-linecap:square;stroke-linejoin:round;stroke-miterlimit:4;stroke-opacity:1;stroke-dasharray:none;stroke-dashoffset:0" />
      <path
         id="rect3799-7"
         d="m 1120.6804,1054.4347 c -9.3652,-4.2839 -20.4028,-0.3469 -24.969,8.7696 l -0.033,-0.015 -0.2414,0.5206 -32.5882,70.2741 0.033,0.015 c -0.1385,0.2652 -0.2826,0.5241 -0.4098,0.7984 -4.3996,9.4873 -0.2309,20.7164 9.3111,25.081 9.5419,4.3646 20.8436,0.212 25.243,-9.2753 0.1272,-0.2742 0.2316,-0.5513 0.3446,-0.8282 l 0.033,0.015 32.5883,-70.2741 0.2413,-0.5205 -0.033,-0.015 c 4.0075,-9.372 -0.1547,-20.2618 -9.5198,-24.5456 z"
         style="fill:#a4c739;fill-opacity:1;fill-rule:nonzero;stroke:#646464;stroke-width:3.85294938;stroke-linecap:square;stroke-linejoin:round;stroke-miterlimit:4;stroke-opacity:1;stroke-dasharray:none;stroke-dashoffset:0"
         inkscape:connector-curvature="0" />
      <path
         sodipodi:nodetypes="ccccccccccccccc"
         inkscape:connector-curvature="0"
         id="path3912"
         d="m 826.54954,1103.5113 c 8.91083,-18.1961 19.17694,-35.4427 34.03337,-49.4729 -4.33518,8.668 -7.62273,17.872 -6.60349,29.2799 10.45086,-20.5517 27.97305,-30.8812 45.71648,-40.8909 -6.17507,8.5236 -7.15345,17.5637 -6.60348,26.7557 9.73342,-13.4461 24.35548,-21.4938 40.12889,-28.2702 -4.63877,6.731 -6.11644,13.9668 -5.58758,20.6978 9.83482,-12.4078 23.18601,-20.7385 41.14482,-23.7268 -3.58182,7.6198 -2.29101,16.8539 -2.03184,25.7462 12.79474,-24.8707 12.90054,-24.9013 32.30966,-38.275 11.17113,13.5331 17.01693,28.3893 22.55013,43.3232 1.5683,-6.1786 2.5767,-12.3573 0.3592,-18.536 9.3206,9.0394 15.0381,21.8269 18.9794,30.8662 1.2023,-10.3063 -1.1956,-14.4565 -4.6078,-21.4171 -40.74292,-66.5475 -178.13274,-78.20565 -209.78776,43.9199 z"
         style="fill:#1c1400;fill-opacity:1;stroke:#646464;stroke-width:1.92647469;stroke-linecap:butt;stroke-linejoin:miter;stroke-miterlimit:4;stroke-opacity:1;stroke-dasharray:none" />
      <path
         sodipodi:nodetypes="ccccccc"
         inkscape:connector-curvature="0"
         id="path3914"
         d="m 1020.8445,1039.146 c 1.8565,-26.1669 28.1085,-37.045 44.5921,-44.7104 -1.9412,2.7472 -5.7469,9.6783 -5.7469,9.6783 0,-2.2761 14.4868,-0.1479 16.0688,0.7139 -3.3951,1.2824 -9.3029,7.7126 -8.7778,9.5458 4.2663,-0.9556 10.519,2.4284 13.1725,5.4765 -16.1682,-2.0026 -40.0875,5.4996 -59.3087,19.2959 z"
         style="fill:#1c1400;fill-opacity:1;stroke:#646464;stroke-width:1.92647469;stroke-linecap:butt;stroke-linejoin:miter;stroke-miterlimit:4;stroke-opacity:1;stroke-dasharray:none" />
      <path
         sodipodi:nodetypes="ccccccc"
         inkscape:connector-curvature="0"
         id="path3914-7"
         d="m 861.23539,1039.1465 c -1.85643,-26.1669 -27.39012,-43.5596 -45.22062,-43.9072 10.53477,7.2093 11.31426,12.3555 11.31426,12.3555 0,-2.2761 -18.9766,-2.0221 -20.55855,-1.1601 4.4422,1.71 9.40629,6.7477 11.4716,9.4565 -4.12248,-0.5514 -9.66306,1.4411 -13.53161,5.2981 17.48256,-0.5871 38.85865,2.8292 56.52492,17.9572 z"
         style="fill:#1c1400;fill-opacity:1;stroke:#646464;stroke-width:1.92647469;stroke-linecap:butt;stroke-linejoin:miter;stroke-miterlimit:4;stroke-opacity:1;stroke-dasharray:none" />
      <path
         transform="matrix(1.9264747,0,0,1.9264747,237.60678,867.97569)"
         d="m 340.57418,117.24341 c 0,2.50887 -2.03384,4.54272 -4.54272,4.54272 -2.50887,0 -4.54272,-2.03385 -4.54272,-4.54272 0,-2.50888 2.03385,-4.54272 4.54272,-4.54272 2.50888,0 4.54272,2.03384 4.54272,4.54272 z"
         sodipodi:ry="4.5427198"
         sodipodi:rx="4.5427198"
         sodipodi:cy="117.24341"
         sodipodi:cx="336.03146"
         id="path4242"
         style="fill:#320000;fill-opacity:1;fill-rule:nonzero;stroke:#646464;stroke-width:2;stroke-linecap:round;stroke-linejoin:round;stroke-miterlimit:4;stroke-opacity:1;stroke-dasharray:none;stroke-dashoffset:0"
         sodipodi:type="arc" />
      <path
         transform="matrix(1.9264747,0,0,1.9264747,339.90675,867.97569)"
         d="m 340.57418,117.24341 c 0,2.50887 -2.03384,4.54272 -4.54272,4.54272 -2.50887,0 -4.54272,-2.03385 -4.54272,-4.54272 0,-2.50888 2.03385,-4.54272 4.54272,-4.54272 2.50888,0 4.54272,2.03384 4.54272,4.54272 z"
         sodipodi:ry="4.5427198"
         sodipodi:rx="4.5427198"
         sodipodi:cy="117.24341"
         sodipodi:cx="336.03146"
         id="path4242-1"
         style="fill:#320000;fill-opacity:1;fill-rule:nonzero;stroke:#646464;stroke-width:2;stroke-linecap:round;stroke-linejoin:round;stroke-miterlimit:4;stroke-opacity:1;stroke-dasharray:none;stroke-dashoffset:0"
         sodipodi:type="arc" />
      <path
         sodipodi:nodetypes="ccccc"
         inkscape:connector-curvature="0"
         id="path4529"
         d="m 825.3304,1128.9296 c 95.49613,10.1396 129.48081,9.9943 230.6901,-0.092 l -0.9177,123.5315 c -78.18183,8.8661 -154.27907,6.267 -229.70942,0 z"
         style="fill:#ffffff;fill-opacity:1;stroke:#646464;stroke-width:2;stroke-linecap:round;stroke-linejoin:round;stroke-miterlimit:4;stroke-opacity:1;stroke-dasharray:none" />
      <path
         sodipodi:nodetypes="cssc"
         inkscape:connector-curvature="0"
         id="path4282"
         d="m 937.31534,1150.1098 c 0,0 -13.65962,-13.9186 -20,-10 -5.67101,3.5048 -5.67101,16.4951 0,20 6.34038,3.9185 20,-10 20,-10 z"
         style="fill:#327800;fill-opacity:1;stroke:#646464;stroke-width:2;stroke-linecap:round;stroke-linejoin:round;stroke-miterlimit:4;stroke-opacity:1;stroke-dasharray:none" />
      <path
         sodipodi:nodetypes="cssc"
         inkscape:connector-curvature="0"
         id="path4282-6"
         d="m 937.31534,1150.1098 c 0,0 13.65962,-13.9186 20,-10 5.67101,3.5048 5.67101,16.4951 0,20 -6.34038,3.9185 -20,-10 -20,-10 z"
         style="fill:#327800;fill-opacity:1;stroke:#646464;stroke-width:2;stroke-linecap:round;stroke-linejoin:round;stroke-miterlimit:4;stroke-opacity:1;stroke-dasharray:none" />
      <path
         transform="matrix(1.1006607,0,0,1.1006623,567.4587,1021.0644)"
         d="m 340.57418,117.24341 c 0,2.50887 -2.03384,4.54272 -4.54272,4.54272 -2.50887,0 -4.54272,-2.03385 -4.54272,-4.54272 0,-2.50888 2.03385,-4.54272 4.54272,-4.54272 2.50888,0 4.54272,2.03384 4.54272,4.54272 z"
         sodipodi:ry="4.5427198"
         sodipodi:rx="4.5427198"
         sodipodi:cy="117.24341"
         sodipodi:cx="336.03146"
         id="path4242-7"
         style="fill:#327800;fill-opacity:1;fill-rule:nonzero;stroke:#646464;stroke-width:1.81708908;stroke-linecap:round;stroke-linejoin:round;stroke-miterlimit:4;stroke-opacity:1;stroke-dasharray:none;stroke-dashoffset:0"
         sodipodi:type="arc" />
      <path
         sodipodi:nodetypes="cc"
         inkscape:connector-curvature="0"
         id="path4302"
         d="m 932.31534,1149.1098 c -1.48764,-0.9521 -3.02471,-1.6571 -4.68466,-1.7476"
         style="fill:none;stroke:#646464;stroke-width:2;stroke-linecap:round;stroke-linejoin:round;stroke-miterlimit:4;stroke-opacity:1;stroke-dasharray:none" />
      <path
         sodipodi:nodetypes="cc"
         inkscape:connector-curvature="0"
         id="path4302-7"
         d="m 932.31534,1151.8622 c -1.48764,0.9521 -3.02471,1.657 -4.68466,1.7476"
         style="fill:none;stroke:#646464;stroke-width:2;stroke-linecap:round;stroke-linejoin:round;stroke-miterlimit:4;stroke-opacity:1;stroke-dasharray:none" />
      <path
         sodipodi:nodetypes="cc"
         inkscape:connector-curvature="0"
         id="path4302-2"
         d="m 942.31534,1149.1098 c 1.48764,-0.9521 3.02471,-1.6571 4.68466,-1.7476"
         style="fill:none;stroke:#646464;stroke-width:2;stroke-linecap:round;stroke-linejoin:round;stroke-miterlimit:4;stroke-opacity:1;stroke-dasharray:none" />
      <path
         sodipodi:nodetypes="cc"
         inkscape:connector-curvature="0"
         id="path4302-7-4"
         d="m 942.31534,1151.8622 c 1.48764,0.9521 3.02471,1.657 4.68466,1.7476"
         style="fill:none;stroke:#646464;stroke-width:2;stroke-linecap:round;stroke-linejoin:round;stroke-miterlimit:4;stroke-opacity:1;stroke-dasharray:none" />
      <path
         sodipodi:nodetypes="csscc"
         inkscape:connector-curvature="0"
         id="path4537"
         d="m 825.07342,1252.5529 c 0,0 -25.90645,76.217 -10.07342,74.8093 99.84095,-8.8765 238.5026,10.8196 250,0 9.9612,-9.374 -8.4655,-75.1764 -8.4655,-75.1764 -81.57688,10.738 -156.66853,5.9115 -231.46108,0.3671 z"
         style="fill:#327800;fill-opacity:1;stroke:#646464;stroke-width:2;stroke-linecap:butt;stroke-linejoin:miter;stroke-miterlimit:4;stroke-opacity:1;stroke-dasharray:none" />
    </g>
    <g
       id="g4585"
       transform="matrix(0.74998637,0,0,0.75545896,40.720896,245.1381)"
       style="stroke:#646464;stroke-opacity:1">
      <path
         sodipodi:nodetypes="ccccc"
         inkscape:connector-curvature="0"
         id="path3932"
         d="m 298.94387,941.91688 159.2,-39.57675 -20.19221,-59.36512 -159.2,39.57675 z"
         style="fill:#c8ff64;fill-opacity:1;stroke:#646464;stroke-width:1.99999225;stroke-linecap:round;stroke-linejoin:round;stroke-miterlimit:4;stroke-opacity:1;stroke-dasharray:none" />
      <path
         sodipodi:nodetypes="ccccc"
         inkscape:connector-curvature="0"
         id="path3932-3"
         d="M 259.14388,941.91688 99.943879,902.34013 120.1361,842.97501 279.33609,882.55176 z"
         style="fill:#c8ff64;fill-opacity:1;stroke:#646464;stroke-width:1.99999225;stroke-linecap:round;stroke-linejoin:round;stroke-miterlimit:4;stroke-opacity:1;stroke-dasharray:none" />
    </g>
    <text
       xml:space="preserve"
       style="font-size:7.3242588px;font-style:normal;font-variant:normal;font-weight:600;font-stretch:normal;text-align:start;line-height:125%;letter-spacing:0px;word-spacing:0px;text-anchor:start;fill:#ffffff;fill-opacity:1;stroke:none;font-family:Lucida Sans;-inkscape-font-specification:Lucida Sans Semi-Bold"
       x="52.324928"
       y="589.95856"
       id="text4601"
       sodipodi:linespacing="125%"
       transform="scale(0.95556747,1.0464986)"><tspan
         sodipodi:role="line"
         id="tspan4603"
         x="52.324928"
         y="589.95856"
         style="font-size:20.14171219px;font-style:normal;font-variant:normal;font-weight:normal;font-stretch:normal;fill:#ffffff;fill-opacity:1;stroke:none;font-family:Source Code Pro;-inkscape-font-specification:Source Code Pro"><tspan
           style="fill:#96ffff;fill-opacity:1"
           id="tspan4626">#include</tspan><tspan
           style="fill:#ffff96;fill-opacity:1"
           id="tspan4632"> &lt;stdio.h&gt;</tspan></tspan><tspan
         sodipodi:role="line"
         x="52.324928"
         y="615.13568"
         style="font-size:20.14171219px;font-style:normal;font-variant:normal;font-weight:normal;font-stretch:normal;fill:#ffffff;fill-opacity:1;stroke:none;font-family:Source Code Pro;-inkscape-font-specification:Source Code Pro"
         id="tspan4620" /><tspan
         sodipodi:role="line"
         x="52.324928"
         y="640.31287"
         style="font-size:20.14171219px;font-style:normal;font-variant:normal;font-weight:normal;font-stretch:normal;fill:#ffffff;fill-opacity:1;stroke:none;font-family:Source Code Pro;-inkscape-font-specification:Source Code Pro"
         id="tspan4622"><tspan
   style="fill:#ff96ff;fill-opacity:1"
   id="tspan4670">void</tspan> main() {</tspan><tspan
         sodipodi:role="line"
         x="52.324928"
         y="665.48999"
         style="font-size:20.14171219px;font-style:normal;font-variant:normal;font-weight:normal;font-stretch:normal;fill:#ffffff;fill-opacity:1;stroke:none;font-family:Source Code Pro;-inkscape-font-specification:Source Code Pro"
         id="tspan4612">  printf(<tspan
   style="fill:#ff9696;fill-opacity:1"
   id="tspan4634">&quot;Happy birthday, Rob!</tspan><tspan
   style="fill:#9696ff;fill-opacity:1"
   id="tspan4642">\n</tspan><tspan
   style="fill:#ff9696;fill-opacity:1"
   id="tspan4636">&quot;</tspan>);</tspan><tspan
         sodipodi:role="line"
         x="52.324928"
         y="690.66711"
         style="font-size:20.14171219px;font-style:normal;font-variant:normal;font-weight:normal;font-stretch:normal;fill:#ffffff;fill-opacity:1;stroke:none;font-family:Source Code Pro;-inkscape-font-specification:Source Code Pro"
         id="tspan4616"><tspan
   style="fill:#96ff96;fill-opacity:1"
   id="tspan4676">  return </tspan><tspan
   id="tspan4690"
   style="fill:#969696;fill-opacity:1">0</tspan>;</tspan><tspan
         sodipodi:role="line"
         x="52.324928"
         y="715.84424"
         style="font-size:20.14171219px;font-style:normal;font-variant:normal;font-weight:normal;font-stretch:normal;fill:#ffffff;fill-opacity:1;stroke:none;font-family:Source Code Pro;-inkscape-font-specification:Source Code Pro"
         id="tspan4618">}  </tspan></text>
  </g>
</svg>
