<?xml version="1.0" encoding="UTF-8" standalone="no"?>
<!-- Created with Inkscape (http://www.inkscape.org/) -->

<svg
   xmlns:dc="http://purl.org/dc/elements/1.1/"
   xmlns:cc="http://creativecommons.org/ns#"
   xmlns:rdf="http://www.w3.org/1999/02/22-rdf-syntax-ns#"
   xmlns:svg="http://www.w3.org/2000/svg"
   xmlns="http://www.w3.org/2000/svg"
   xmlns:sodipodi="http://sodipodi.sourceforge.net/DTD/sodipodi-0.dtd"
   xmlns:inkscape="http://www.inkscape.org/namespaces/inkscape"
   width="1050"
   height="1100"
   id="svg2"
   version="1.1"
   inkscape:version="0.48.1 "
   sodipodi:docname="scott.svg"
   inkscape:export-filename="C:\Users\Cnidaria\Github\doodles\scott.png"
   inkscape:export-xdpi="90"
   inkscape:export-ydpi="90">
  <defs
     id="defs4">
    <clipPath
       clipPathUnits="userSpaceOnUse"
       id="clipPath3862">
      <rect
         style="fill:#000000;fill-opacity:1;stroke:#000000;stroke-width:1.875;stroke-linecap:round;stroke-linejoin:round;stroke-miterlimit:4;stroke-opacity:1;stroke-dasharray:none;stroke-dashoffset:0"
         id="rect3864"
         width="1853.2285"
         height="1940.6449"
         x="-262.24933"
         y="-455.57138" />
    </clipPath>
    <clipPath
       clipPathUnits="userSpaceOnUse"
       id="clipPath3868">
      <rect
         style="fill:#000000;fill-opacity:1;fill-rule:nonzero;stroke:#000000;stroke-width:2.88703012;stroke-linecap:round;stroke-linejoin:round;stroke-miterlimit:4;stroke-opacity:1;stroke-dasharray:none;stroke-dashoffset:0"
         id="rect3870"
         width="2089.1165"
         height="1703.6531"
         x="-339.09067"
         y="-302.19827" />
    </clipPath>
    <clipPath
       clipPathUnits="userSpaceOnUse"
       id="clipPath3874">
      <rect
         style="fill:#000000;fill-opacity:1;fill-rule:nonzero;stroke:#000000;stroke-width:3.02570844;stroke-linecap:round;stroke-linejoin:round;stroke-miterlimit:4;stroke-opacity:1;stroke-dasharray:none;stroke-dashoffset:0"
         id="rect3876"
         width="1613.7111"
         height="1613.7111"
         x="-337.57782"
         y="-213.68553" />
    </clipPath>
  </defs>
  <sodipodi:namedview
     id="base"
     pagecolor="#ffffff"
     bordercolor="#666666"
     borderopacity="1.0"
     inkscape:pageopacity="0.0"
     inkscape:pageshadow="2"
     inkscape:zoom="0.45860926"
     inkscape:cx="-197.29299"
     inkscape:cy="682.4498"
     inkscape:document-units="px"
     inkscape:current-layer="layer1"
     showgrid="false"
     inkscape:window-width="1600"
     inkscape:window-height="848"
     inkscape:window-x="-8"
     inkscape:window-y="172"
     inkscape:window-maximized="1" />
  <metadata
     id="metadata7">
    <rdf:RDF>
      <cc:Work
         rdf:about="">
        <dc:format>image/svg+xml</dc:format>
        <dc:type
           rdf:resource="http://purl.org/dc/dcmitype/StillImage" />
        <dc:title />
      </cc:Work>
    </rdf:RDF>
  </metadata>
  <g
     inkscape:label="Layer 1"
     inkscape:groupmode="layer"
     id="layer1"
     transform="translate(0,47.63783)">
    <rect
       style="fill:#ffffff;fill-opacity:1;fill-rule:nonzero;stroke:none"
       id="rect3023"
       width="1050"
       height="1100"
       x="0"
       y="-47.637829" />
    <path
       style="fill:none;stroke:#000000;stroke-width:4.87594271;stroke-linecap:butt;stroke-linejoin:miter;stroke-miterlimit:4;stroke-opacity:1;stroke-dasharray:none"
       d="m 357.1889,377.29472 c 15.00732,-3.64615 30.02712,-7.27986 57.12355,1.16084"
       id="path2998"
       inkscape:connector-curvature="0"
       sodipodi:nodetypes="cc" />
    <path
       style="fill:none;stroke:#000000;stroke-width:4.87594271;stroke-linecap:butt;stroke-linejoin:miter;stroke-miterlimit:4;stroke-opacity:1;stroke-dasharray:none"
       d="m 223.43619,355.47112 c 18.06171,-9.5618 87.13545,-8.32285 120.28455,5.10766 24.39668,9.8844 5.9845,62.49699 1.16106,67.09595 -19.16972,18.27752 -108.51653,12.64091 -124.92875,-5.80414 -10.59279,-11.90483 -10.15186,-59.18114 3.48314,-66.39947 z"
       id="path3768"
       inkscape:connector-curvature="0"
       sodipodi:nodetypes="sssss" />
    <path
       style="fill:none;stroke:#000000;stroke-width:4.87594271;stroke-linecap:butt;stroke-linejoin:miter;stroke-miterlimit:4;stroke-opacity:1;stroke-dasharray:none"
       d="m 557.93839,365.22441 c -20.78304,-13.38019 -95.89199,-18.88597 -128.86923,-5.03902 -25.48603,10.70142 -11.57923,61.74923 -7.16995,66.74654 17.52366,19.86062 116.78599,19.56229 132.84587,4.97727 11.27765,-10.24196 16.16509,-58.33352 3.19331,-66.68479 z"
       id="path3768-3"
       inkscape:connector-curvature="0"
       sodipodi:nodetypes="sssss" />
    <path
       style="fill:none;stroke:#000000;stroke-width:6.50125694;stroke-linecap:butt;stroke-linejoin:miter;stroke-miterlimit:4;stroke-opacity:1;stroke-dasharray:none"
       d="m 565.65224,380.64558 c 0,0 16.63397,2.38118 25.07403,2.2619 4.65446,-0.0658 77.4076,-13.51557 90.4842,-12.10846 4.58386,0.49325 8.50252,10.90686 8.50252,10.90686"
       id="path3788"
       inkscape:connector-curvature="0"
       sodipodi:nodetypes="cssc" />
    <path
       style="fill:none;stroke:#000000;stroke-width:6.50125694;stroke-linecap:butt;stroke-linejoin:miter;stroke-miterlimit:4;stroke-opacity:1;stroke-dasharray:none"
       d="m 214.07013,372.93319 c 0,0 -16.15653,0.82316 -21.18141,-0.65667 -7.87968,-2.32056 21.34561,-13.46162 21.34561,-13.46162"
       id="path3790"
       inkscape:connector-curvature="0"
       sodipodi:nodetypes="csc" />
    <path
       style="fill:none;stroke:#000000;stroke-width:3.125;stroke-linecap:round;stroke-linejoin:round;stroke-miterlimit:4;stroke-opacity:1;stroke-dasharray:none"
       d="m 215.7121,358.15824 c 0,0 1.91801,-111.03817 9.68762,-150.04782 2.84025,-14.26035 63.18678,-88.0558 111.65393,-96.52968 34.88377,-6.09899 80.59864,7.94243 99.17496,38.08654 5.77071,9.36424 2.8337,23.13455 -2.3551,32.83323 -11.14148,20.82516 -34.11449,30.28476 -37.40391,25.35158 0,0 30.47157,5.20912 43.20231,0.90132 14.77309,-4.99888 32.85733,-30.23601 31.25376,-32.64089 0,0 13.40989,32.29791 17.986,43.53219 11.19038,27.47228 81.77975,22.64526 81.77975,22.64526 -17.11545,-12.96078 -34.0913,-19.19491 -32.8064,-30.92923 0,0 16.14739,10.80109 29.45353,9.91848 16.66926,-1.10569 26.93631,-13.00129 26.93631,-13.00129 0,0 -22.37864,12.72105 -32.50935,5.57198 -18.29077,-12.90751 -7.4307,-59.43448 -7.4307,-59.43448 0,0 8.16396,32.60149 30.65166,45.04019 7.605,4.20656 42.26214,17.64461 42.26214,17.64461 0,0 -24.80202,-12.52958 -30.65166,-24.14527 -4.73613,-9.40456 -0.92884,-31.57456 -0.92884,-31.57456 0,0 32.13975,27.98428 41.79772,46.43319 5.57539,10.65026 8.5041,23.08129 8.27808,35.10003 -0.1238,6.58371 -4.91192,12.46733 -5.25429,19.04328 -0.89999,17.28537 7.03963,33.97602 8.53824,51.21983 2.31214,26.605 -6.52598,71.32471 0.65679,80.11305 3.58633,4.38799 25.57684,0.86729 38.09368,-1.31332 7.79483,-1.35798 21.09193,-10.85099 21.09193,-10.85099 -7.09236,4.38802 -25.24224,8.38035 -16.13855,1.16082 1.13428,1.41758 13.61784,-8.98821 22.75653,-9.63488 2.70124,-0.19116 6.96628,4.17897 6.96628,4.17897 0,0 0.30622,-18.38175 3.25094,-26.93124 3.12067,-9.06027 13.02036,-15.20559 14.86142,-24.60958 1.71602,-8.76527 -3.5517,-17.55743 -4.17977,-26.46693 -1.37156,-19.45612 4.0229,-31.86654 -1.7694,-58.50581 -4.1925,-19.28167 -7.47387,-31.89743 -15.31587,-50.00497 -8.37739,-19.34378 -19.79087,-37.31567 -31.5805,-54.79116 C 672.58916,113.09062 657.96887,89.51401 637.68865,71.601089 614.72779,51.320424 586.29276,37.9891 558.87412,24.321252 541.11917,15.47062 523.72591,4.4447817 503.9116,3.4479298 484.70847,2.4818271 460.88936,5.8972817 439.5464,8.7012452 c -19.41474,2.5506468 -39.60718,2.3493298 -58.00499,9.0533618 -26.53369,9.668697 -49.9338,26.558551 -73.56023,42.026523 -23.29755,15.252682 -44.94229,20.897215 -61.52819,43.26298 -6.92919,9.34387 -11.91499,22.12375 -16.45576,32.83322 -10.47066,24.6952 -25.89866,47.17442 -35.46653,72.23309 -5.58209,14.6197 -11.77112,29.5842 -12.66001,45.2077 -0.49866,8.76458 2.9028,17.31716 4.17976,26.00257 1.02211,6.95191 1.46776,13.99314 2.78652,20.89494 0.71863,3.76096 2.57703,7.32073 2.78651,11.14397 0.37602,6.86294 -4.54902,13.78711 -2.78651,20.4306 3.0007,11.31069 21.36328,27.85991 21.36328,27.85991"
       id="path3792"
       inkscape:connector-curvature="0"
       sodipodi:nodetypes="csssscscsccscscscscssssssccscssssssssssssssssssssc" />
    <path
       style="fill:none;stroke:#000000;stroke-width:3.125;stroke-linecap:round;stroke-linejoin:round;stroke-miterlimit:4;stroke-opacity:1;stroke-dasharray:none"
       d="m 234.14161,337.82128 c 27.81587,-25.36726 94.11643,4.89542 103.16554,6.15984 0,0 -10.03606,-16.23373 -15.59752,-18.08283 -22.71935,-7.5538 -46.73576,-13.52241 -70.7984,-6.7678 -8.24549,1.65325 -21.01747,22.70108 -16.76962,18.69079 z"
       id="path3794"
       inkscape:connector-curvature="0"
       sodipodi:nodetypes="ccscc" />
    <path
       style="fill:none;stroke:#000000;stroke-width:3.125;stroke-linecap:round;stroke-linejoin:round;stroke-miterlimit:4;stroke-opacity:1;stroke-dasharray:none"
       d="m 428.94166,349.43481 c 0,0 13.45891,-18.60353 25.01365,-19.89184 32.687,-3.64449 113.08606,4.17898 113.08606,4.17898 0,0 -13.18989,7.76348 -20.05365,7.47763 -106.69889,-4.44372 -118.04606,8.23523 -118.04606,8.23523 z"
       id="path3796"
       inkscape:connector-curvature="0"
       sodipodi:nodetypes="cscsc" />
    <path
       style="fill:none;stroke:#000000;stroke-width:1.25;stroke-linecap:butt;stroke-linejoin:miter;stroke-miterlimit:4;stroke-opacity:1;stroke-dasharray:none"
       d="m 250.87437,381.01086 c 30.87377,-16.17246 60.53935,-13.62163 88.93626,8.59014 -25.10256,3.04918 -44.58219,12.38239 -88.93626,-8.59014 z"
       id="path3798"
       inkscape:connector-curvature="0"
       sodipodi:nodetypes="ccc" />
    <path
       sodipodi:type="arc"
       style="fill:none;stroke:#000000;stroke-width:1.92270517;stroke-linecap:round;stroke-linejoin:round;stroke-miterlimit:4;stroke-opacity:1;stroke-dasharray:none;stroke-dashoffset:0"
       id="path3802"
       sodipodi:cx="129.46428"
       sodipodi:cy="362.54074"
       sodipodi:rx="9.6428576"
       sodipodi:ry="9.6428576"
       d="m 139.10714,362.54074 c 0,5.3256 -4.31726,9.64286 -9.64286,9.64286 -5.3256,0 -9.64286,-4.31726 -9.64286,-9.64286 0,-5.3256 4.31726,-9.64286 9.64286,-9.64286 5.3256,0 9.64286,4.31726 9.64286,9.64286 z"
       transform="matrix(0.65018676,0,0,0.6500646,214.41747,146.72895)" />
    <path
       style="fill:none;stroke:#000000;stroke-width:1.25;stroke-linecap:butt;stroke-linejoin:miter;stroke-miterlimit:4;stroke-opacity:1;stroke-dasharray:none"
       d="m 284.42865,371.02773 c -4.05452,7.7891 -4.1178,15.19342 2.00281,21.93967"
       id="path3804"
       inkscape:connector-curvature="0"
       sodipodi:nodetypes="cc" />
    <path
       style="fill:none;stroke:#000000;stroke-width:1.25;stroke-linecap:butt;stroke-linejoin:miter;stroke-miterlimit:4;stroke-opacity:1;stroke-dasharray:none"
       d="m 316.82189,376.13538 c 0.95235,8.39981 -2.45518,13.80684 -6.9663,17.70264"
       id="path3806"
       inkscape:connector-curvature="0"
       sodipodi:nodetypes="cc" />
    <path
       style="fill:none;stroke:#000000;stroke-width:1.25;stroke-linecap:butt;stroke-linejoin:miter;stroke-miterlimit:4;stroke-opacity:1;stroke-dasharray:none"
       d="m 443.57086,389.77999 c 32.28438,10.41275 65.48344,13.2047 100.54673,0.46433 -51.95372,-26.12193 -76.8005,-14.06808 -100.54673,-0.46433 z"
       id="path3808"
       inkscape:connector-curvature="0"
       sodipodi:nodetypes="ccc" />
    <path
       style="fill:none;stroke:#000000;stroke-width:1.25;stroke-linecap:butt;stroke-linejoin:miter;stroke-miterlimit:4;stroke-opacity:1;stroke-dasharray:none"
       d="m 484.55584,375.26962 c -11.76708,8.0924 -4.35975,21.48537 1.74157,22.92638"
       id="path3810"
       inkscape:connector-curvature="0"
       sodipodi:nodetypes="cc" />
    <path
       style="fill:none;stroke:#000000;stroke-width:1.25;stroke-linecap:butt;stroke-linejoin:miter;stroke-miterlimit:4;stroke-opacity:1;stroke-dasharray:none"
       d="m 507.8929,376.89478 c 8.99605,6.66533 5.12126,18.0422 -2.72846,21.30122"
       id="path3812"
       inkscape:connector-curvature="0"
       sodipodi:nodetypes="cc" />
    <path
       sodipodi:type="arc"
       style="fill:none;stroke:#000000;stroke-width:1.92270517;stroke-linecap:round;stroke-linejoin:round;stroke-miterlimit:4;stroke-opacity:1;stroke-dasharray:none;stroke-dashoffset:0"
       id="path3814"
       sodipodi:cx="424.24106"
       sodipodi:cy="372.40683"
       sodipodi:rx="11.383928"
       sodipodi:ry="11.383928"
       d="m 435.62499,372.40683 c 0,6.28717 -5.09676,11.38393 -11.38393,11.38393 -6.28717,0 -11.38393,-5.09676 -11.38393,-11.38393 0,-6.28717 5.09676,-11.38393 11.38393,-11.38393 6.28717,0 11.38393,5.09676 11.38393,11.38393 z"
       transform="matrix(0.65018676,0,0,0.6500646,219.48863,144.00586)" />
    <path
       style="fill:none;stroke:#000000;stroke-width:0.65012574px;stroke-linecap:butt;stroke-linejoin:miter;stroke-opacity:1"
       d="m 354.63459,420.94192 c 0,0 -27.6161,30.20111 -26.9363,48.75483 0.31123,8.49439 13.93258,21.35928 13.93258,21.35928 0,0 -6.72043,-6.17166 -2.08989,-9.51881 6.82193,-4.93119 15.57491,9.80159 23.91757,14.16212 8.3866,4.3835 23.16999,2.0584 25.31084,0.46434 3.07199,-2.28738 11.72623,-14.91293 30.53557,-14.39429 6.71419,0.18513 6.30035,20.55339 5.92134,19.0376 0,0 16.58545,-11.24593 18.80898,-21.12709 2.41637,-10.7382 -10.91386,-28.55641 -10.91386,-28.55641"
       id="path3816"
       inkscape:connector-curvature="0"
       sodipodi:nodetypes="cscsssscsc" />
    <path
       style="fill:none;stroke:#000000;stroke-width:0.65012574px;stroke-linecap:butt;stroke-linejoin:miter;stroke-opacity:1"
       d="m 300.61965,558.29465 c 58.09494,7.62669 118.93339,10.15924 181.35565,9.75098"
       id="path3818"
       inkscape:connector-curvature="0"
       sodipodi:nodetypes="cc" />
    <path
       style="fill:none;stroke:#000000;stroke-width:1;stroke-linecap:butt;stroke-linejoin:miter;stroke-opacity:1;stroke-miterlimit:4;stroke-dasharray:none"
       d="m 190.69465,373.11574 c 2.33582,0 -3.05964,31.39601 -1.85768,46.8975 3.00202,38.71685 28.1674,110.49333 30.98006,108.54941"
       id="path3822"
       inkscape:connector-curvature="0"
       sodipodi:nodetypes="csc" />
    <path
       style="fill:none;stroke:#000000;stroke-width:0.65012574px;stroke-linecap:butt;stroke-linejoin:miter;stroke-opacity:1"
       d="m 202.41215,444.18128 c -1.5844,-19.23332 10.82401,-45.85 5.2543,-53.84649 -2.51078,-3.60475 -5.16134,-7.34923 -8.53824,-11.81995"
       id="path3826"
       inkscape:connector-curvature="0"
       sodipodi:nodetypes="csc" />
    <path
       style="fill:none;stroke:#000000;stroke-width:1;stroke-linecap:butt;stroke-linejoin:miter;stroke-opacity:1;stroke-miterlimit:4;stroke-dasharray:none"
       d="m 217.8291,422.46695 1.97036,109.9913 c 0.82224,-0.11744 2.44736,53.48232 14.55058,72.82341 18.79939,30.04166 41.0087,76.05114 72.18347,106.59731 14.26774,13.98005 54.07249,21.66979 81.84085,24.53534 36.452,3.76166 92.31898,-19.85775 118.32352,-40.48574 31.27494,-24.80871 58.88988,-28.08327 71.88113,-45.49044"
       id="path3828"
       inkscape:connector-curvature="0"
       sodipodi:nodetypes="ccssssc" />
    <path
       style="fill:none;stroke:#000000;stroke-width:1;stroke-linecap:butt;stroke-linejoin:miter;stroke-opacity:1;stroke-miterlimit:4;stroke-dasharray:none"
       d="m 662.54447,396.33233 c -7.15896,21.99991 1.53603,42.72604 -0.0688,62.43238 -9.34124,18.23539 -12.08105,13.08585 -15.7302,22.46984 -7.32066,18.82545 -9.70637,43.5582 -16.1077,64.40138 -10.01397,47.873 -21.80448,89.83963 -17.07647,135.92952 2.53302,24.6927 46.40798,78.62215 80.16796,94.28771"
       id="path3830"
       inkscape:connector-curvature="0"
       sodipodi:nodetypes="ccscsc" />
    <path
       style="fill:none;stroke:#000000;stroke-width:0.65012574px;stroke-linecap:butt;stroke-linejoin:miter;stroke-opacity:1"
       d="m 662.65621,449.76293 c 19.48311,-23.46663 55.47628,-70.47983 58.86948,-61.78858 10.09093,25.84657 3.40034,45.52527 0.92883,50.61218"
       id="path3832"
       inkscape:connector-curvature="0"
       sodipodi:nodetypes="csc" />
    <path
       style="fill:none;stroke:#000000;stroke-width:0.65012574px;stroke-linecap:butt;stroke-linejoin:miter;stroke-opacity:1"
       d="m 709.21859,397.9575 c 0,0 2.10991,11.11534 1.85767,16.71595 -0.20963,4.65468 -2.91056,9.04001 -2.78651,13.69777 0.36087,13.54974 6.76765,32.73841 0.46441,47.12969 -3.51717,8.03026 -12.90195,14.8785 -19.5056,17.6446 -2.96938,1.24382 -8.59175,-4.41114 -8.59175,-4.41114"
       id="path3834"
       inkscape:connector-curvature="0"
       sodipodi:nodetypes="cssssc" />
    <path
       style="fill:none;stroke:#000000;stroke-width:0.65012574px;stroke-linecap:butt;stroke-linejoin:miter;stroke-opacity:1"
       d="m 681.12123,432.31804 c 0,0 19.74751,21.61691 18.34456,34.59273 -0.78502,7.26058 -7.13768,14.72337 -14.16479,16.71595 -3.60297,1.02164 -6.94173,-3.67895 -10.68164,-3.48249 -3.97908,0.20901 -6.96329,4.35599 -10.91384,4.87549 -3.88592,0.51097 -11.61048,-1.85733 -11.61048,-1.85733"
       id="path3836"
       inkscape:connector-curvature="0"
       sodipodi:nodetypes="cssssc" />
    <path
       style="fill:none;stroke:#000000;stroke-width:1;stroke-linecap:butt;stroke-linejoin:miter;stroke-opacity:1;stroke-miterlimit:4;stroke-dasharray:none"
       d="m 722.91894,376.59823 6.26968,13.00129 c 4.6419,12.75937 4.43166,34.10705 2.08988,45.04019 -3.14782,14.69633 -7.50531,16.68319 -11.14607,25.07392 -6.32229,14.57073 -9.4665,30.86794 -18.57676,43.87936 -3.51772,5.02406 -9.22373,8.10948 -13.46815,12.53696 -8.73729,9.11415 -5.71665,22.57642 -28.06235,28.46024 -14.875,3.9167 -25.44664,-11.10255 -25.44664,-11.10255"
       id="path3838"
       inkscape:connector-curvature="0"
       sodipodi:nodetypes="ccsssssc" />
    <path
       style="fill:none;stroke:#000000;stroke-width:1;stroke-linecap:butt;stroke-linejoin:miter;stroke-opacity:1;stroke-miterlimit:4;stroke-dasharray:none"
       d="m 303.08407,709.29199 c 17.21541,113.31872 49.22104,187.41736 57.58797,253.52521"
       id="path3840"
       inkscape:connector-curvature="0"
       sodipodi:nodetypes="cc" />
    <path
       style="fill:none;stroke:#000000;stroke-width:3.75;stroke-linecap:butt;stroke-linejoin:miter;stroke-miterlimit:4;stroke-opacity:1;stroke-dasharray:none"
       d="m 332.34248,843.94828 c -124.61727,270.59482 325.20647,16.63787 361.55028,-68.7211"
       id="path3842"
       inkscape:connector-curvature="0"
       sodipodi:nodetypes="cc" />
    <path
       style="fill:none;stroke:#000000;stroke-width:3.75;stroke-linecap:butt;stroke-linejoin:miter;stroke-miterlimit:4;stroke-opacity:1;stroke-dasharray:none"
       d="m 684.82279,770.70765 c 0,0 13.98607,-5.64998 17.89748,-2.4625 42.28841,34.46164 348.59303,179.17755 346.94813,231.80255"
       id="path3844"
       inkscape:connector-curvature="0"
       sodipodi:nodetypes="csc" />
    <path
       style="fill:none;stroke:#000000;stroke-width:3.75;stroke-linecap:butt;stroke-linejoin:miter;stroke-miterlimit:4;stroke-opacity:1;stroke-dasharray:none"
       d="m 72.924208,1052.037 c 0.901853,0 3.477566,-19.0972 14.669398,-33.0357 62.922084,-78.36425 238.619164,-166.13678 234.067224,-174.58868 -1.05127,-1.95204 4.7871,-8.9738 6.85458,-14.11271"
       id="path3846"
       inkscape:connector-curvature="0"
       sodipodi:nodetypes="cssc" />
    <path
       style="fill:none;stroke:#000000;stroke-width:3.75;stroke-linecap:butt;stroke-linejoin:miter;stroke-miterlimit:4;stroke-opacity:1;stroke-dasharray:none"
       d="m 321.78333,844.74662 c 0,0 -58.00493,68.14858 -64.31369,87.24704 -7.56374,22.89763 11.4973,61.57662 33.04543,79.84094 31.71712,26.8837 73.3701,30.398 113.2589,18.6586 135.28501,-39.81473 349.45116,-219.19548 343.7592,-234.37117"
       id="path3848"
       inkscape:connector-curvature="0"
       sodipodi:nodetypes="csssc" />
    <path
       style="fill:none;stroke:#000000;stroke-width:0.65012574px;stroke-linecap:round;stroke-linejoin:round;stroke-opacity:1"
       d="m 208.80699,469.23243 c 0,0 4.86652,6.18971 6.38576,9.98314 1.04219,2.60227 1.97378,8.1258 1.97378,8.1258 -4.4761,-4.72243 -6.63936,-11.24342 -8.35954,-18.10894 z"
       id="path3850"
       inkscape:connector-curvature="0"
       sodipodi:nodetypes="cscc" />
    <path
       style="fill:none;stroke:#000000;stroke-width:3.125;stroke-linecap:round;stroke-linejoin:round;stroke-miterlimit:4;stroke-opacity:1;stroke-dasharray:none"
       d="m 620.16245,596.17898 c 9.33355,-9.01097 20.50854,-12.39378 20.09493,-29.63443 -0.29249,-12.1918 26.93796,-11.24049 32.62284,-27.46836"
       id="path3852"
       inkscape:connector-curvature="0"
       sodipodi:nodetypes="csc" />
    <path
       style="fill:none;stroke:#000000;stroke-width:0.65012574px;stroke-linecap:butt;stroke-linejoin:miter;stroke-opacity:1"
       d="m 303.01762,558.40479 c 2.63931,1.93144 28.08901,-12.63015 45.08798,-13.56151 9.65067,-0.52876 20.48249,6.2109 30.14238,6.52961 9.11571,0.30076 23.08711,-5.02658 32.15187,-4.01822 13.55561,1.50792 56.88285,17.0089 69.39025,20.65621"
       id="path3854"
       inkscape:connector-curvature="0"
       sodipodi:nodetypes="csssc" />
    <path
       style="fill:none;stroke:#000000;stroke-width:0.65012574px;stroke-linecap:butt;stroke-linejoin:miter;stroke-opacity:1"
       d="m 306.34585,559.28379 c 0,0 35.46341,26.44336 54.82145,29.50885 8.33651,1.32017 17.18203,-0.0952 25.62101,-0.25113 9.90984,-0.18313 19.45243,3.72943 28.63527,0 11.80581,-4.79472 63.72367,-20.84902 65.30848,-20.37368"
       id="path3856"
       inkscape:connector-curvature="0"
       sodipodi:nodetypes="csssc" />
  </g>
</svg>
