<?xml version="1.0" encoding="UTF-8" standalone="no"?>
<!-- Created with Inkscape (http://www.inkscape.org/) -->

<svg
   xmlns:dc="http://purl.org/dc/elements/1.1/"
   xmlns:cc="http://creativecommons.org/ns#"
   xmlns:rdf="http://www.w3.org/1999/02/22-rdf-syntax-ns#"
   xmlns:svg="http://www.w3.org/2000/svg"
   xmlns="http://www.w3.org/2000/svg"
   xmlns:sodipodi="http://sodipodi.sourceforge.net/DTD/sodipodi-0.dtd"
   xmlns:inkscape="http://www.inkscape.org/namespaces/inkscape"
   width="700"
   height="700"
   id="svg3060"
   version="1.1"
   inkscape:version="0.48.2 r9819"
   inkscape:export-filename="/Users/younjin/Github/doodles/suchgit.png"
   inkscape:export-xdpi="90"
   inkscape:export-ydpi="90"
   sodipodi:docname="New document 7">
  <defs
     id="defs3062">
    <linearGradient
       id="linearGradient5525">
      <stop
         style="stop-color:#ffd076;stop-opacity:1;"
         offset="0"
         id="stop5527" />
      <stop
         id="stop5537"
         offset="0.25"
         style="stop-color:#ffd076;stop-opacity:0.74901961;" />
      <stop
         id="stop5535"
         offset="0.5"
         style="stop-color:#ffd076;stop-opacity:0.49803922;" />
      <stop
         style="stop-color:#ffd076;stop-opacity:0;"
         offset="1"
         id="stop5529" />
    </linearGradient>
    <linearGradient
       id="linearGradient4075">
      <stop
         style="stop-color:#ffd042;stop-opacity:1;"
         offset="0"
         id="stop4077" />
      <stop
         style="stop-color:#ffd076;stop-opacity:0;"
         offset="1"
         id="stop4079" />
    </linearGradient>
  </defs>
  <sodipodi:namedview
     id="base"
     pagecolor="#ffffff"
     bordercolor="#666666"
     borderopacity="1.0"
     inkscape:pageopacity="0.0"
     inkscape:pageshadow="2"
     inkscape:zoom="0.94857143"
     inkscape:cx="350"
     inkscape:cy="350"
     inkscape:document-units="px"
     inkscape:current-layer="layer1"
     showgrid="false"
     inkscape:window-width="1440"
     inkscape:window-height="852"
     inkscape:window-x="0"
     inkscape:window-y="0"
     inkscape:window-maximized="1" />
  <metadata
     id="metadata3065">
    <rdf:RDF>
      <cc:Work
         rdf:about="">
        <dc:format>image/svg+xml</dc:format>
        <dc:type
           rdf:resource="http://purl.org/dc/dcmitype/StillImage" />
        <dc:title></dc:title>
      </cc:Work>
    </rdf:RDF>
  </metadata>
  <g
     inkscape:label="Layer 1"
     inkscape:groupmode="layer"
     id="layer1"
     transform="translate(0,-352.36215)">
    <rect
       style="fill:#066c75;fill-opacity:1;stroke:none"
       id="rect4027"
       width="700"
       height="700"
       x="0"
       y="352.36215" />
    <text
       xml:space="preserve"
       style="font-size:40px;font-style:normal;font-weight:normal;line-height:125%;letter-spacing:0px;word-spacing:0px;fill:#800033;fill-opacity:1;stroke:none;font-family:Sans"
       x="10.542178"
       y="538.9585"
       id="text4029"
       sodipodi:linespacing="125%"><tspan
         sodipodi:role="line"
         id="tspan4031"
         x="10.542178"
         y="538.9585"
         style="font-style:normal;font-variant:normal;font-weight:normal;font-stretch:normal;fill:#800033;font-family:Comic Sans MS;-inkscape-font-specification:Comic Sans MS">so repo</tspan></text>
    <text
       xml:space="preserve"
       style="font-size:21.96702385px;font-style:normal;font-variant:normal;font-weight:normal;font-stretch:normal;line-height:125%;letter-spacing:0px;word-spacing:0px;fill:#e5ff80;fill-opacity:1;stroke:none;font-family:Comic Sans MS;-inkscape-font-specification:Comic Sans MS"
       x="580.51428"
       y="470.03345"
       id="text4033"
       sodipodi:linespacing="125%"><tspan
         sodipodi:role="line"
         id="tspan4035"
         x="580.51428"
         y="470.03345">much push</tspan></text>
    <text
       xml:space="preserve"
       style="font-size:67.63566589px;font-style:normal;font-weight:normal;line-height:125%;letter-spacing:0px;word-spacing:0px;fill:#80ff80;fill-opacity:1;stroke:none;font-family:Sans"
       x="249.76968"
       y="427.15033"
       id="text4037"
       sodipodi:linespacing="125%"><tspan
         sodipodi:role="line"
         id="tspan4039"
         x="249.76968"
         y="427.15033"
         style="font-style:normal;font-variant:normal;font-weight:normal;font-stretch:normal;fill:#80ff80;font-family:Comic Sans MS;-inkscape-font-specification:Comic Sans MS">wow</tspan></text>
    <text
       xml:space="preserve"
       style="font-size:55.90985107px;font-style:normal;font-variant:normal;font-weight:normal;font-stretch:normal;line-height:125%;letter-spacing:0px;word-spacing:0px;fill:#80e5ff;fill-opacity:1;stroke:none;font-family:Comic Sans MS;-inkscape-font-specification:Comic Sans MS"
       x="494.99255"
       y="842.17578"
       id="text4041"
       sodipodi:linespacing="125%"><tspan
         sodipodi:role="line"
         id="tspan4043"
         x="494.99255"
         y="842.17578"
         style="font-size:33.54590988px">comit msg?</tspan></text>
    <text
       xml:space="preserve"
       style="font-size:42.86065674px;font-style:normal;font-weight:normal;line-height:125%;letter-spacing:0px;word-spacing:0px;fill:#000000;fill-opacity:1;stroke:none;font-family:Sans"
       x="18.930082"
       y="1015.1464"
       id="text4045"
       sodipodi:linespacing="125%"><tspan
         sodipodi:role="line"
         id="tspan4047"
         x="18.930082"
         y="1015.1464"
         style="font-size:34.28852844px;font-style:normal;font-variant:normal;font-weight:normal;font-stretch:normal;fill:#502d16;font-family:Comic Sans MS;-inkscape-font-specification:Comic Sans MS">such branch</tspan></text>
    <path
       sodipodi:type="star"
       style="fill:#80b3ff;fill-opacity:0.52232140000000005;stroke:none"
       id="path4049"
       sodipodi:sides="5"
       sodipodi:cx="71.686745"
       sodipodi:cy="46.385544"
       sodipodi:r1="26.690639"
       sodipodi:r2="17.348915"
       sodipodi:arg1="1.7294516"
       sodipodi:arg2="2.3577701"
       inkscape:flatsided="false"
       inkscape:rounded="0.15"
       inkscape:randomized="0"
       d="M 67.469877,72.740966 C 65.062644,72.355808 61.120998,60.36027 59.399896,58.633735 57.678793,56.9072 45.695735,52.927773 45.318165,50.519337 44.940596,48.110903 55.130995,40.65535 56.241177,38.484955 57.35136,36.31456 57.433052,23.688284 59.606934,22.584947 c 2.173882,-1.103337 12.413541,6.284416 14.820774,6.669573 2.407233,0.385157 14.44078,-3.438883 16.161883,-1.712348 1.721102,1.726535 -2.14084,13.747971 -1.76327,16.156406 0.377569,2.408435 7.733018,12.671324 6.622836,14.841719 -1.110183,2.170394 -13.736653,2.212297 -15.910535,3.315634 -2.173883,1.103337 -9.661512,11.270192 -12.068745,10.885035 z"
       transform="matrix(0.7692501,0,0,0.72742399,45.243958,356.37924)"
       inkscape:transform-center-x="1.0023973"
       inkscape:transform-center-y="0.9292203" />
    <path
       sodipodi:type="star"
       style="fill:#ffb380;fill-opacity:0.52232139000000000;stroke:none"
       id="path4051"
       sodipodi:sides="5"
       sodipodi:cx="44.277107"
       sodipodi:cy="465.96387"
       sodipodi:r1="23.690578"
       sodipodi:r2="15.398876"
       sodipodi:arg1="-0.36397896"
       sodipodi:arg2="0.26433957"
       inkscape:flatsided="false"
       inkscape:rounded="0.15"
       inkscape:randomized="0"
       d="m 66.415662,457.53013 c 0.770315,2.02208 -6.709206,10.36836 -7.274554,12.45703 -0.565349,2.08867 1.683216,13.06809 -0.0019,14.42556 -1.685068,1.35747 -11.93415,-3.17684 -14.095299,-3.06908 -2.161149,0.10775 -11.908348,5.63909 -13.720092,4.45598 -1.811744,-1.18312 -0.666504,-12.33175 -1.436819,-14.35382 -0.770314,-2.02208 -9.04298,-9.58294 -8.477631,-11.67161 0.565349,-2.08868 11.522227,-4.44461 13.207295,-5.80208 1.685069,-1.35746 6.319479,-11.56167 8.480628,-11.66943 2.161149,-0.10775 7.787633,9.58483 9.599377,10.76795 1.811744,1.18311 12.948633,2.43743 13.718947,4.4595 z"
       transform="matrix(0.64929211,0,0,0.71027164,592.5891,586.98542)"
       inkscape:transform-center-x="0.23671194"
       inkscape:transform-center-y="-1.358551" />
    <path
       sodipodi:type="star"
       style="fill:#80b3ff;fill-opacity:0.52232140000000005;stroke:none"
       id="path4053"
       sodipodi:sides="5"
       sodipodi:cx="582.98193"
       sodipodi:cy="120.18072"
       sodipodi:r1="17.921686"
       sodipodi:r2="11.649096"
       sodipodi:arg1="-1.080839"
       sodipodi:arg2="-0.45252047"
       inkscape:flatsided="false"
       inkscape:rounded="0.15"
       inkscape:randomized="0"
       d="m 591.41567,104.36746 c 1.44434,0.77032 1.32714,9.24772 2.04285,10.71988 0.71572,1.47216 7.45516,6.61608 7.16888,8.22777 -0.28629,1.61169 -8.38499,4.11989 -9.56393,5.2555 -1.17894,1.13561 -3.9885,9.13476 -5.60977,9.36052 -1.62128,0.22577 -6.50935,-6.70148 -7.95369,-7.4718 -1.44434,-0.77031 -9.92019,-0.97049 -10.63591,-2.44265 -0.71571,-1.47216 4.362,-8.26163 4.64828,-9.87332 0.28629,-1.61169 -2.14251,-9.73456 -0.96358,-10.87016 1.17894,-1.13561 9.20521,1.59551 10.82649,1.36975 1.62127,-0.22577 8.59604,-5.0458 10.04038,-4.27549 z"
       transform="translate(44.277108,285.94649)"
       inkscape:transform-center-x="-0.76381647"
       inkscape:transform-center-y="0.96858122" />
    <path
       sodipodi:type="star"
       style="fill:#ffb380;fill-opacity:0.52232140000000005;stroke:none"
       id="path4055"
       sodipodi:sides="5"
       sodipodi:cx="653.61444"
       sodipodi:cy="230.87349"
       sodipodi:r1="16.467394"
       sodipodi:r2="10.703806"
       sodipodi:arg1="2.2655346"
       sodipodi:arg2="2.8938531"
       inkscape:flatsided="false"
       inkscape:rounded="0.15"
       inkscape:randomized="0"
       d="m 643.07227,243.52409 c -1.15547,-0.96289 0.53398,-8.56772 0.16516,-10.02589 -0.36882,-1.45816 -5.47084,-7.34519 -4.91214,-8.74166 0.55871,-1.39647 8.3134,-2.13972 9.58623,-2.94109 1.27282,-0.80137 5.29511,-7.47287 6.79588,-7.37304 1.50077,0.0998 4.60398,7.24529 5.75945,8.20819 1.15547,0.96289 8.7434,2.7267 9.11222,4.18487 0.36882,1.45816 -5.46798,6.61757 -6.02668,8.01403 -0.55871,1.39647 0.10861,9.15807 -1.16422,9.95944 -1.27283,0.80137 -7.98338,-3.15542 -9.48415,-3.25525 -1.50077,-0.0998 -8.67628,2.9333 -9.83175,1.9704 z"
       transform="translate(-41.114458,361.8501)"
       inkscape:transform-center-x="-0.337742"
       inkscape:transform-center-y="-1.2478171" />
    <path
       sodipodi:type="star"
       style="fill:#ffb380;fill-opacity:0.52232139000000000;stroke:none"
       id="path4057"
       sodipodi:sides="5"
       sodipodi:cx="564.00604"
       sodipodi:cy="621.98798"
       sodipodi:r1="11.206479"
       sodipodi:r2="7.2842116"
       sodipodi:arg1="0.85196633"
       sodipodi:arg2="1.4802849"
       inkscape:flatsided="false"
       inkscape:rounded="0.15"
       inkscape:randomized="0"
       d="m 571.38556,630.42171 c -0.77031,0.67403 -5.70173,-1.27186 -6.72111,-1.17934 -1.01938,0.0925 -5.51989,2.89444 -6.39897,2.37011 -0.87908,-0.52433 -0.55232,-5.81569 -0.95532,-6.75659 -0.40299,-0.9409 -4.45851,-4.3553 -4.2315,-5.35338 0.22702,-0.99807 5.36038,-2.32244 6.1307,-2.99646 0.77031,-0.67403 2.76437,-5.58616 3.78375,-5.67868 1.01938,-0.0925 3.86522,4.38035 4.7443,4.90468 0.87907,0.52432 6.16699,0.90286 6.56999,1.84375 0.40299,0.9409 -2.97154,5.02965 -3.19856,6.02773 -0.22702,0.99807 1.04704,6.14416 0.27672,6.81818 z"
       transform="translate(-462.8012,122.54288)"
       inkscape:transform-center-x="0.31301274"
       inkscape:transform-center-y="-0.76805031" />
    <path
       sodipodi:type="star"
       style="fill:#ffaacc;fill-opacity:0.52232139000000000;stroke:none"
       id="path4059"
       sodipodi:sides="5"
       sodipodi:cx="610.39154"
       sodipodi:cy="572.43976"
       sodipodi:r1="30.408264"
       sodipodi:r2="19.765371"
       sodipodi:arg1="-2.1587989"
       sodipodi:arg2="-1.5304804"
       inkscape:flatsided="false"
       inkscape:rounded="0.15"
       inkscape:randomized="0"
       d="m 593.52407,547.13855 c 2.31094,-1.54063 14.88896,5.43995 17.66411,5.5519 2.77516,0.11194 15.87456,-5.83287 18.0539,-4.11111 2.17935,1.72176 -0.57276,15.84128 0.17835,18.5152 0.7511,2.67392 10.45289,13.29514 9.48886,15.89987 -0.96404,2.60474 -15.24295,4.3505 -17.55389,5.89113 -2.31095,1.54063 -9.41431,14.04972 -12.18947,13.93777 -2.77515,-0.11194 -8.84789,-13.15252 -11.02724,-14.87428 -2.17935,-1.72176 -16.27126,-4.61194 -17.02236,-7.28586 -0.75111,-2.67392 9.77464,-12.4792 10.73868,-15.08394 0.96403,-2.60473 -0.64188,-16.90005 1.66906,-18.44068 z"
       transform="translate(-518.6747,342.8742)"
       inkscape:transform-center-x="0.37873286"
       inkscape:transform-center-y="2.5411749" />
    <path
       sodipodi:type="star"
       style="fill:#ffaacc;fill-opacity:0.52232140000000005;stroke:none"
       id="path4061"
       sodipodi:sides="5"
       sodipodi:cx="621.98798"
       sodipodi:cy="400.60242"
       sodipodi:r1="16.365847"
       sodipodi:r2="10.637801"
       sodipodi:arg1="0.26060239"
       sodipodi:arg2="0.88892092"
       inkscape:flatsided="false"
       inkscape:rounded="0.15"
       inkscape:randomized="0"
       d="m 637.80123,404.81928 c -0.38516,1.44434 -7.94822,3.10014 -9.10878,4.04224 -1.16056,0.94211 -4.33572,8.00326 -5.82839,8.08328 -1.49267,0.08 -5.40453,-6.60121 -6.65916,-7.41384 -1.25463,-0.81264 -8.95136,-1.65038 -9.48873,-3.04526 -0.53736,-1.39489 4.60803,-7.17991 4.99319,-8.62425 0.38516,-1.44434 -1.19652,-9.02324 -0.036,-9.96535 1.16056,-0.9421 8.25245,2.16379 9.74512,2.08377 1.49267,-0.08 8.21187,-3.9263 9.4665,-3.11367 1.25463,0.81264 0.49227,8.5172 1.02963,9.91209 0.53736,1.39488 6.27174,6.59665 5.88658,8.04099 z"
       transform="translate(0,352.36215)"
       inkscape:transform-center-x="-0.27072504"
       inkscape:transform-center-y="1.3030837" />
    <path
       sodipodi:type="star"
       style="fill:#80b3ff;fill-opacity:0.52232139000000000;stroke:none"
       id="path4063"
       sodipodi:sides="5"
       sodipodi:cx="183.43373"
       sodipodi:cy="688.40363"
       sodipodi:r1="23.336084"
       sodipodi:r2="15.168455"
       sodipodi:arg1="-1.2490458"
       sodipodi:arg2="-0.62072724"
       inkscape:flatsided="false"
       inkscape:rounded="0.15"
       inkscape:randomized="0"
       d="m 190.81325,666.26507 c 2.02207,0.67403 3.71964,11.58233 4.95935,13.31617 1.23971,1.73385 11.01272,6.86814 10.99654,8.99953 -0.0162,2.1314 -9.86601,7.11673 -11.13191,8.83155 -1.26589,1.71482 -3.12886,12.59609 -5.16094,13.23934 -2.03207,0.64325 -9.81717,-7.18395 -11.83925,-7.85797 -2.02207,-0.67403 -12.94647,0.91667 -14.18618,-0.81717 -1.23971,-1.73384 3.79867,-11.55665 3.81485,-13.68804 0.0162,-2.1314 -4.87249,-12.02956 -3.6066,-13.74438 1.26589,-1.71482 12.16488,0.0416 14.19696,-0.6017 2.03207,-0.64325 9.9351,-8.35135 11.95718,-7.67733 z"
       transform="matrix(0.72723729,0,0,0.7392069,113.32663,515.56643)"
       inkscape:transform-center-x="-1.5826656"
       inkscape:transform-center-y="0.04046097" />
    <path
       inkscape:transform-center-y="-0.96139055"
       inkscape:transform-center-x="0.17281894"
       transform="matrix(0.38125602,0.18063155,-0.1731104,0.35573556,23.742766,434.95056)"
       d="M 67.469877,72.740966 C 65.062644,72.355808 61.120998,60.36027 59.399896,58.633735 57.678793,56.9072 45.695735,52.927773 45.318165,50.519337 44.940596,48.110903 55.130995,40.65535 56.241177,38.484955 57.35136,36.31456 57.433052,23.688284 59.606934,22.584947 c 2.173882,-1.103337 12.413541,6.284416 14.820774,6.669573 2.407233,0.385157 14.44078,-3.438883 16.161883,-1.712348 1.721102,1.726535 -2.14084,13.747971 -1.76327,16.156406 0.377569,2.408435 7.733018,12.671324 6.622836,14.841719 -1.110183,2.170394 -13.736653,2.212297 -15.910535,3.315634 -2.173883,1.103337 -9.661512,11.270192 -12.068745,10.885035 z"
       inkscape:randomized="0"
       inkscape:rounded="0.15"
       inkscape:flatsided="false"
       sodipodi:arg2="2.3577701"
       sodipodi:arg1="1.7294516"
       sodipodi:r2="17.348915"
       sodipodi:r1="26.690639"
       sodipodi:cy="46.385544"
       sodipodi:cx="71.686745"
       sodipodi:sides="5"
       id="path4065"
       style="fill:#ffb380;fill-opacity:0.52232140000000005;stroke:none"
       sodipodi:type="star" />
    <path
       inkscape:transform-center-y="-0.42919427"
       inkscape:transform-center-x="0.85503693"
       transform="matrix(0.46481047,0.12574115,-0.11890428,0.43953753,445.60976,362.00335)"
       d="M 67.469877,72.740966 C 65.062644,72.355808 61.120998,60.36027 59.399896,58.633735 57.678793,56.9072 45.695735,52.927773 45.318165,50.519337 44.940596,48.110903 55.130995,40.65535 56.241177,38.484955 57.35136,36.31456 57.433052,23.688284 59.606934,22.584947 c 2.173882,-1.103337 12.413541,6.284416 14.820774,6.669573 2.407233,0.385157 14.44078,-3.438883 16.161883,-1.712348 1.721102,1.726535 -2.14084,13.747971 -1.76327,16.156406 0.377569,2.408435 7.733018,12.671324 6.622836,14.841719 -1.110183,2.170394 -13.736653,2.212297 -15.910535,3.315634 -2.173883,1.103337 -9.661512,11.270192 -12.068745,10.885035 z"
       inkscape:randomized="0"
       inkscape:rounded="0.15"
       inkscape:flatsided="false"
       sodipodi:arg2="2.3577701"
       sodipodi:arg1="1.7294516"
       sodipodi:r2="17.348915"
       sodipodi:r1="26.690639"
       sodipodi:cy="46.385544"
       sodipodi:cx="71.686745"
       sodipodi:sides="5"
       id="path4067"
       style="fill:#ffaacc;fill-opacity:0.52232140000000005;stroke:none"
       sodipodi:type="star" />
    <path
       sodipodi:type="star"
       style="fill:#ffaacc;fill-opacity:0.52232140000000005;stroke:none"
       id="path4069"
       sodipodi:sides="5"
       sodipodi:cx="71.686745"
       sodipodi:cy="46.385544"
       sodipodi:r1="26.690639"
       sodipodi:r2="17.348915"
       sodipodi:arg1="1.7294516"
       sodipodi:arg2="2.3577701"
       inkscape:flatsided="false"
       inkscape:rounded="0.15"
       inkscape:randomized="0"
       d="M 67.469877,72.740966 C 65.062644,72.355808 61.120998,60.36027 59.399896,58.633735 57.678793,56.9072 45.695735,52.927773 45.318165,50.519337 44.940596,48.110903 55.130995,40.65535 56.241177,38.484955 57.35136,36.31456 57.433052,23.688284 59.606934,22.584947 c 2.173882,-1.103337 12.413541,6.284416 14.820774,6.669573 2.407233,0.385157 14.44078,-3.438883 16.161883,-1.712348 1.721102,1.726535 -2.14084,13.747971 -1.76327,16.156406 0.377569,2.408435 7.733018,12.671324 6.622836,14.841719 -1.110183,2.170394 -13.736653,2.212297 -15.910535,3.315634 -2.173883,1.103337 -9.661512,11.270192 -12.068745,10.885035 z"
       transform="matrix(0.65033114,0.77829715,-0.73597913,0.61497095,33.543572,546.37489)"
       inkscape:transform-center-x="-1.8542921"
       inkscape:transform-center-y="0.91849215" />
    <path
       inkscape:transform-center-y="0.91588602"
       inkscape:transform-center-x="0.98801497"
       transform="matrix(0.75821491,0,0,0.71698881,527.0214,961.5024)"
       d="M 67.469877,72.740966 C 65.062644,72.355808 61.120998,60.36027 59.399896,58.633735 57.678793,56.9072 45.695735,52.927773 45.318165,50.519337 44.940596,48.110903 55.130995,40.65535 56.241177,38.484955 57.35136,36.31456 57.433052,23.688284 59.606934,22.584947 c 2.173882,-1.103337 12.413541,6.284416 14.820774,6.669573 2.407233,0.385157 14.44078,-3.438883 16.161883,-1.712348 1.721102,1.726535 -2.14084,13.747971 -1.76327,16.156406 0.377569,2.408435 7.733018,12.671324 6.622836,14.841719 -1.110183,2.170394 -13.736653,2.212297 -15.910535,3.315634 -2.173883,1.103337 -9.661512,11.270192 -12.068745,10.885035 z"
       inkscape:randomized="0"
       inkscape:rounded="0.15"
       inkscape:flatsided="false"
       sodipodi:arg2="2.3577701"
       sodipodi:arg1="1.7294516"
       sodipodi:r2="17.348915"
       sodipodi:r1="26.690639"
       sodipodi:cy="46.385544"
       sodipodi:cx="71.686745"
       sodipodi:sides="5"
       id="path4071"
       style="fill:#80b3ff;fill-opacity:0.52232140000000005;stroke:none"
       sodipodi:type="star" />
    <path
       style="fill:#dca155;fill-opacity:1;stroke:none"
       d="m 248.93984,891.84201 c -40.9545,17.02095 -88.37221,-5.18807 -89.7842,-46.50477 -0.8731,-25.54778 8.19212,-43.43758 30.71564,-52.84633 13.67994,-5.71452 29.77857,-13.2776 55.13066,8.19117 l 9.45097,16.6466 -6.03812,52.84633 c -11.25991,6.11451 -47.83151,-18.21114 -43.50718,-29.39272 8.61659,4.58378 23.29858,-3.12105 22.76755,-11.82742 -0.40368,-6.61853 -8.26734,-13.31599 -14.7015,-11.89042 -8.71553,1.93103 -13.78558,18.47256 -11.81372,24.04508 10.41156,29.42322 49.96418,32.37951 47.25485,28.53702 z"
       id="path3964"
       inkscape:connector-curvature="0"
       sodipodi:nodetypes="cssccccssscc" />
    <path
       style="fill:none;stroke:#e3a657;stroke-width:7.6191473;stroke-linecap:round;stroke-linejoin:round;stroke-miterlimit:4;stroke-opacity:1;stroke-dasharray:none"
       d="m 247.07754,869.25061 c -14.22561,1.50716 -41.85031,-13.903 -45.76019,-38.12724 -1.31063,-8.12026 5.98355,-12.7932 15.06158,-12.06408 16.53094,1.32779 6.17201,28.82387 -5.4112,27.28654"
       id="path3897"
       inkscape:connector-curvature="0"
       sodipodi:nodetypes="cssc" />
    <path
       style="fill:none;stroke:#e3a657;stroke-width:7.6191473;stroke-linecap:round;stroke-linejoin:round;stroke-miterlimit:4;stroke-opacity:1;stroke-dasharray:none"
       d="m 231.16575,894.79158 c -2.55021,9.07691 -26.18324,9.97568 -33.74483,9.34328"
       id="path3899"
       inkscape:connector-curvature="0"
       sodipodi:nodetypes="cc" />
    <path
       sodipodi:nodetypes="cc"
       inkscape:connector-curvature="0"
       id="path3901"
       d="m 207.63211,888.24408 c -12.57774,4.22501 -26.7452,3.69921 -34.1258,2.82353"
       style="fill:none;stroke:#e3a657;stroke-width:7.6191473;stroke-linecap:round;stroke-linejoin:round;stroke-miterlimit:4;stroke-opacity:1;stroke-dasharray:none" />
    <path
       style="fill:none;stroke:#e3a657;stroke-width:7.6191473;stroke-linecap:round;stroke-linejoin:round;stroke-miterlimit:4;stroke-opacity:1;stroke-dasharray:none"
       d="m 203.97997,887.56778 c -13.11177,1.98832 -26.97906,-0.97831 -34.10062,-3.11665"
       id="path3903"
       inkscape:connector-curvature="0"
       sodipodi:nodetypes="cc" />
    <path
       sodipodi:nodetypes="cc"
       inkscape:connector-curvature="0"
       id="path3907"
       d="m 181.33449,869.27188 c -13.11177,1.98832 -22.44028,-1.77276 -29.56183,-7.88345"
       style="fill:none;stroke:#e3a657;stroke-width:7.6191473;stroke-linecap:round;stroke-linejoin:round;stroke-miterlimit:4;stroke-opacity:1;stroke-dasharray:none" />
    <path
       style="fill:none;stroke:#e3a657;stroke-width:7.6191473;stroke-linecap:round;stroke-linejoin:round;stroke-miterlimit:4;stroke-opacity:1;stroke-dasharray:none"
       d="m 180.6229,869.88658 c -13.11176,-1.30037 -25.79503,-12.38588 -30.15385,-16.0269"
       id="path3909"
       inkscape:connector-curvature="0"
       sodipodi:nodetypes="cc" />
    <path
       sodipodi:nodetypes="cc"
       inkscape:connector-curvature="0"
       id="path3925"
       d="m 169.47827,854.99015 c -11.13838,-7.74403 -15.92813,-11.70374 -21.6683,-15.03381"
       style="fill:none;stroke:#e3a657;stroke-width:7.6191473;stroke-linecap:round;stroke-linejoin:round;stroke-miterlimit:4;stroke-opacity:1;stroke-dasharray:none" />
    <path
       style="fill:none;stroke:#e3a657;stroke-width:7.6191473;stroke-linecap:round;stroke-linejoin:round;stroke-miterlimit:4;stroke-opacity:1;stroke-dasharray:none"
       d="m 174.31872,832.7137 c -9.165,-10.12749 -17.50684,-18.65547 -20.87895,-22.97862"
       id="path3946"
       inkscape:connector-curvature="0"
       sodipodi:nodetypes="cc" />
    <path
       sodipodi:nodetypes="cc"
       inkscape:connector-curvature="0"
       id="path3948"
       d="m 165.8729,828.72329 c -3.92323,-13.59502 -6.15204,-18.15894 -6.77277,-24.22369"
       style="fill:none;stroke:#e3a657;stroke-width:7.6191473;stroke-linecap:round;stroke-linejoin:round;stroke-miterlimit:4;stroke-opacity:1;stroke-dasharray:none" />
    <path
       style="fill:none;stroke:#e3a657;stroke-width:7.6191473;stroke-linecap:round;stroke-linejoin:round;stroke-miterlimit:4;stroke-opacity:1;stroke-dasharray:none"
       d="m 172.64518,815.63732 c -1.19587,-14.55514 -2.13861,-17.27897 -0.45735,-24.18174"
       id="path3950"
       inkscape:connector-curvature="0"
       sodipodi:nodetypes="cc" />
    <path
       sodipodi:nodetypes="cc"
       inkscape:connector-curvature="0"
       id="path3952"
       d="m 176.83179,806.24312 c 0.8976,-13.08543 2.88762,-15.39682 5.35503,-19.24946"
       style="fill:none;stroke:#e3a657;stroke-width:7.6191473;stroke-linecap:round;stroke-linejoin:round;stroke-miterlimit:4;stroke-opacity:1;stroke-dasharray:none" />
    <path
       style="fill:none;stroke:#e3a657;stroke-width:7.6191473;stroke-linecap:round;stroke-linejoin:round;stroke-miterlimit:4;stroke-opacity:1;stroke-dasharray:none"
       d="m 193.35305,801.97097 c 0.99268,-7.63554 3.3171,-16.54434 9.87789,-20.85918"
       id="path3954"
       inkscape:connector-curvature="0"
       sodipodi:nodetypes="cc" />
    <path
       sodipodi:nodetypes="cc"
       inkscape:connector-curvature="0"
       id="path3956"
       d="m 204.30347,790.23996 c 5.04335,-9.1344 15.44864,-9.12166 17.00998,-7.68492"
       style="fill:none;stroke:#e3a657;stroke-width:7.6191473;stroke-linecap:round;stroke-linejoin:round;stroke-miterlimit:4;stroke-opacity:1;stroke-dasharray:none" />
    <path
       style="fill:none;stroke:#e3a657;stroke-width:7.6191473;stroke-linecap:round;stroke-linejoin:round;stroke-miterlimit:4;stroke-opacity:1;stroke-dasharray:none"
       d="m 216.73578,786.86342 c 13.92355,-2.18268 24.32885,0.21341 25.89018,1.65015"
       id="path3958"
       inkscape:connector-curvature="0"
       sodipodi:nodetypes="cc" />
    <path
       sodipodi:nodetypes="cc"
       inkscape:connector-curvature="0"
       id="path3960"
       d="m 215.31637,792.37323 c 14.44569,-3.48758 34.17186,3.04244 36.1985,3.65313"
       style="fill:none;stroke:#e3a657;stroke-width:7.6191473;stroke-linecap:round;stroke-linejoin:round;stroke-miterlimit:4;stroke-opacity:1;stroke-dasharray:none" />
    <path
       style="fill:none;stroke:#e3a657;stroke-width:7.6191473;stroke-linecap:round;stroke-linejoin:round;stroke-miterlimit:4;stroke-opacity:1;stroke-dasharray:none"
       d="m 244.22211,802.49056 c 14.10293,9.84624 10.49915,16.84914 11.30135,17.95841"
       id="path3962"
       inkscape:connector-curvature="0"
       sodipodi:nodetypes="cc" />
    <path
       sodipodi:nodetypes="cc"
       inkscape:connector-curvature="0"
       id="path3966"
       d="m 185.14077,804.21726 c 0.22752,-7.56365 1.79376,-16.50781 8.61463,-21.39559"
       style="fill:none;stroke:#e3a657;stroke-width:7.99779558;stroke-linecap:round;stroke-linejoin:round;stroke-miterlimit:4;stroke-opacity:1;stroke-dasharray:none" />
    <path
       sodipodi:nodetypes="cc"
       inkscape:connector-curvature="0"
       id="path3968"
       d="m 170.9488,821.70413 c -4.66301,-13.83017 -6.23317,-16.24305 -6.26315,-23.35016"
       style="fill:none;stroke:#e3a657;stroke-width:7.6191473;stroke-linecap:round;stroke-linejoin:round;stroke-miterlimit:4;stroke-opacity:1;stroke-dasharray:none" />
    <path
       sodipodi:nodetypes="cc"
       inkscape:connector-curvature="0"
       id="path3970"
       d="m 170.71564,839.30728 c -9.16499,-10.12749 -17.50683,-18.65547 -20.87895,-22.97862"
       style="fill:none;stroke:#e3a657;stroke-width:7.6191473;stroke-linecap:round;stroke-linejoin:round;stroke-miterlimit:4;stroke-opacity:1;stroke-dasharray:none" />
    <path
       style="fill:none;stroke:#e3a657;stroke-width:7.6191473;stroke-linecap:round;stroke-linejoin:round;stroke-miterlimit:4;stroke-opacity:1;stroke-dasharray:none"
       d="m 168.09523,845.2415 c -9.165,-10.12748 -17.50684,-18.65547 -20.87895,-22.97862"
       id="path3972"
       inkscape:connector-curvature="0"
       sodipodi:nodetypes="cc" />
    <path
       sodipodi:nodetypes="cc"
       inkscape:connector-curvature="0"
       id="path3974"
       d="m 166.45746,853.81315 c -9.16499,-10.12748 -17.50684,-18.65546 -20.87895,-22.97862"
       style="fill:none;stroke:#e3a657;stroke-width:7.6191473;stroke-linecap:round;stroke-linejoin:round;stroke-miterlimit:4;stroke-opacity:1;stroke-dasharray:none" />
    <path
       style="fill:none;stroke:#e3a657;stroke-width:7.6191473;stroke-linecap:round;stroke-linejoin:round;stroke-miterlimit:4;stroke-opacity:1;stroke-dasharray:none"
       d="M 172.1842,866.70714 C 161.72437,857.94223 152.29809,850.6479 148.36813,846.83173"
       id="path3976"
       inkscape:connector-curvature="0"
       sodipodi:nodetypes="cc" />
    <path
       sodipodi:nodetypes="cc"
       inkscape:connector-curvature="0"
       id="path3978"
       d="m 189.89522,872.73223 c -13.11176,1.98832 -26.97906,-0.97831 -34.10061,-3.11665"
       style="fill:none;stroke:#e3a657;stroke-width:7.6191473;stroke-linecap:round;stroke-linejoin:round;stroke-miterlimit:4;stroke-opacity:1;stroke-dasharray:none" />
    <path
       style="fill:none;stroke:#e3a657;stroke-width:7.6191473;stroke-linecap:round;stroke-linejoin:round;stroke-miterlimit:4;stroke-opacity:1;stroke-dasharray:none"
       d="m 194.80851,878.99614 c -13.11176,1.98831 -26.97906,-0.97831 -34.10061,-3.11665"
       id="path3980"
       inkscape:connector-curvature="0"
       sodipodi:nodetypes="cc" />
    <path
       sodipodi:nodetypes="cc"
       inkscape:connector-curvature="0"
       id="path3982"
       d="m 199.39424,884.27101 c -13.11177,1.98832 -26.97906,-0.97831 -34.10061,-3.11665"
       style="fill:none;stroke:#e3a657;stroke-width:7.6191473;stroke-linecap:round;stroke-linejoin:round;stroke-miterlimit:4;stroke-opacity:1;stroke-dasharray:none" />
    <path
       style="fill:none;stroke:#e3a657;stroke-width:7.6191473;stroke-linecap:round;stroke-linejoin:round;stroke-miterlimit:4;stroke-opacity:1;stroke-dasharray:none"
       d="m 213.79571,894.17831 c -12.57774,4.22501 -26.74521,3.69921 -34.1258,2.82353"
       id="path3995"
       inkscape:connector-curvature="0"
       sodipodi:nodetypes="cc" />
    <path
       sodipodi:nodetypes="cc"
       inkscape:connector-curvature="0"
       id="path3997"
       d="m 222.01247,894.56652 c -12.02619,5.62121 -26.16259,6.70158 -33.5942,6.66645"
       style="fill:none;stroke:#e3a657;stroke-width:7.6191473;stroke-linecap:round;stroke-linejoin:round;stroke-miterlimit:4;stroke-opacity:1;stroke-dasharray:none" />
    <path
       sodipodi:nodetypes="cc"
       inkscape:connector-curvature="0"
       id="path3999"
       d="m 239.39891,889.17171 c 0.32661,9.42712 -21.90396,17.54917 -29.29604,19.2719"
       style="fill:none;stroke:#e3a657;stroke-width:7.6191473;stroke-linecap:round;stroke-linejoin:round;stroke-miterlimit:4;stroke-opacity:1;stroke-dasharray:none" />
    <path
       style="fill:none;stroke:#e3a657;stroke-width:7.6191473;stroke-linecap:round;stroke-linejoin:round;stroke-miterlimit:4;stroke-opacity:1;stroke-dasharray:none"
       d="m 249.55302,890.82011 c 0.32662,9.42712 -21.90395,17.54917 -29.29603,19.2719"
       id="path4001"
       inkscape:connector-curvature="0"
       sodipodi:nodetypes="cc" />
    <path
       sodipodi:nodetypes="cc"
       inkscape:connector-curvature="0"
       id="path4003"
       d="m 249.55302,887.19364 c 0.32662,9.42711 -21.90395,17.54917 -29.29603,19.2719"
       style="fill:none;stroke:#e3a657;stroke-width:7.6191473;stroke-linecap:round;stroke-linejoin:round;stroke-miterlimit:4;stroke-opacity:1;stroke-dasharray:none" />
    <path
       style="fill:none;stroke:#e3a657;stroke-width:7.6191473;stroke-linecap:round;stroke-linejoin:round;stroke-miterlimit:4;stroke-opacity:1;stroke-dasharray:none"
       d="m 223.50518,798.96681 c 14.44568,-3.48758 34.17185,3.04244 36.1985,3.65313"
       id="path4005"
       inkscape:connector-curvature="0"
       sodipodi:nodetypes="cc" />
    <path
       sodipodi:nodetypes="cc"
       inkscape:connector-curvature="0"
       id="path4007"
       d="m 226.45315,805.5604 c 14.44569,-3.48759 34.17186,3.04243 36.1985,3.65312"
       style="fill:none;stroke:#e3a657;stroke-width:7.6191473;stroke-linecap:round;stroke-linejoin:round;stroke-miterlimit:4;stroke-opacity:1;stroke-dasharray:none" />
    <path
       style="fill:#e9aa59;fill-opacity:1;stroke:#c28d4a;stroke-width:4.06354523;stroke-miterlimit:4;stroke-opacity:1;stroke-dasharray:none"
       d="m 425.33992,785.62362 c 16.73585,15.1606 24.51363,29.27783 23.42337,51.91421 l 3.15741,99.91147 c 0.52859,16.72636 29.49022,29.66974 19.81314,42.30012 -7.99159,10.43048 -56.21473,13.15506 -59.37654,-36.46613 -1.66049,-26.05971 0.3674,-65.77046 -8.64766,-66.03225 -12.0088,-0.34876 -7.34643,58.40933 -6.91132,78.13911 0.27303,12.38038 29.92063,25.35912 9.8181,36.87815 -15.52862,8.8982 -33.94941,12.9658 -47.63203,-9.34098 -19.68421,-32.0912 1.61605,-112.11041 -17.46153,-112.58323 -14.75608,-0.36571 -2.10453,99.03202 -14.11258,112.58323 -13.57146,15.31552 -43.99383,24.18058 -50.03974,10.96994 -5.0793,-11.09856 8.29699,-18.04895 10.34092,-30.09382 3.38474,-19.94625 6.12825,-89.03805 -1.44327,-88.49972 -6.42868,0.45721 -3.33002,77.15493 -7.79777,83.78928 -16.41321,24.37265 -46.1604,22.98616 -50.51857,15.88962 -7.80744,-12.71314 11.42144,-11.1859 22.10188,-38.92949 5.44874,-14.15365 -5.83542,-50.17389 -0.78935,-93.7484 2.35472,-20.33385 7.81142,-36.16761 21.12098,-50.18856 40.20593,25.89643 92.31848,43.96855 154.95456,-6.49255 z"
       id="path3895"
       inkscape:connector-curvature="0"
       sodipodi:nodetypes="ccsssssssssssssssscc" />
    <path
       style="fill:#e9aa59;fill-opacity:1;stroke:#c28d4a;stroke-width:4.06354523;stroke-miterlimit:4;stroke-opacity:1;stroke-dasharray:none"
       d="m 161.21986,518.40894 c -16.31292,11.11915 -39.82923,146.5376 -23.25706,174.51662 20.6284,34.82729 39.27395,47.66284 80.18484,75.15714 37.85813,25.44269 69.17286,58.51842 129.05229,58.00343 46.37061,-0.39881 84.87647,-22.72689 122.35192,-56.12315 47.9671,-42.74581 86.94441,-44.54068 99.89444,-96.68067 10.49677,-42.26241 -17.79256,-132.89793 -37.08451,-161.10341 4.74816,-32.83755 9.12804,-86.30125 -6.63369,-103.62373 -17.54533,-19.28267 -73.32726,33.0472 -94.6267,62.85656 -69.41667,-18.77695 -129.33274,-10.77945 -185.16185,8.73579 -21.63648,-32.51977 -67.28275,-77.76837 -83.90147,-66.97465 -23.88915,15.51578 -1.97185,97.18648 -0.81821,105.23607 z"
       id="path3079"
       inkscape:connector-curvature="0"
       sodipodi:nodetypes="cssssscsccsc" />
    <path
       transform="matrix(0.71581215,0,0,1.2397436,-4.8921032,-1323.0644)"
       d="m 672.76162,1565.0146 a 39.901024,34.850262 0 1 1 -79.80205,0 39.901024,34.850262 0 1 1 79.80205,0 z"
       sodipodi:ry="34.850262"
       sodipodi:rx="39.901024"
       sodipodi:cy="1565.0146"
       sodipodi:cx="632.8606"
       id="path4025"
       style="fill:#ffffff;fill-opacity:1;stroke:none"
       sodipodi:type="arc" />
    <path
       style="fill:#e5b468;fill-opacity:1;fill-rule:evenodd;stroke:none"
       d="m 350.82639,830.15664 c -31.75597,0.59319 -51.95019,-3.7449 -83.79907,-20.9515 -17.61128,-9.51462 -49.20113,-42.45061 -83.26533,-62.8545 -12.9201,-7.73894 -45.7002,-40.47795 -50.44742,-56.34734 -5.55954,-18.58492 -1.28859,-64.13565 -1.28859,-64.13565 21.58186,8.27879 26.044,17.7063 33.19991,26.95307 3.93681,-6.0756 8.65378,-11.49685 6.78245,-22.44399 20.66397,8.57513 24.64732,18.6176 30.03074,26.2315 2.62051,-6.89468 8.212,-12.33374 7.46142,-19.85006 14.17974,12.38612 17.86419,20.54687 22.29918,29.00978 12.68648,-3.74698 19.73449,-10.58944 21.35008,-20.4143 12.55124,8.6932 19.39228,18.42223 28.00302,34.05608 8.41162,-3.52885 9.17428,-10.35709 10.80455,-16.81111 18.17691,19.86876 36.25938,34.32488 54.38907,51.48731 l 60.52396,-46.61416 c -0.0544,4.94561 -5.67605,6.95956 0.75483,23.83312 9.74017,-11.83896 16.7447,-18.40099 35.39969,-23.70278 -0.96578,11.14785 5.52399,11.5877 11.68889,15.81304 6.47043,-15.42197 15.90403,-23.98203 33.21103,-37.42091 3.81367,14.23363 7.62733,14.4762 11.441,17.12579 1.72048,-14.29021 8.30016,-21.87168 21.84589,-32.7433 3.65842,8.8371 8.09032,14.17104 13.75916,13.90249 3.33556,-11.06902 11.03168,-21.04083 22.41759,-30.0842 -3.44249,10.79987 -1.33475,16.63419 4.27002,19.33984 2.43905,-3.22331 4.12904,-8.34597 9.23011,-12.32901 5.11327,35.90816 2.70308,51.11367 -1.22384,66.05081 -7.80881,29.70301 -49.06232,50.63854 -89.93575,82.80357 -39.24524,30.88372 -92.78763,59.42181 -128.90259,60.09641 z"
       id="path4073"
       inkscape:connector-curvature="0"
       sodipodi:nodetypes="sssscccccccccccccccccccccsss" />
    <path
       style="fill:#222123;fill-opacity:1;stroke:#252527;stroke-width:1.01588631px;stroke-linecap:butt;stroke-linejoin:miter;stroke-opacity:1"
       d="m 407.78155,735.32892 c -15.59635,10.81665 -35.50868,10.77324 -56.51437,7.97875 -21.79507,-0.33949 -46.34819,4.44576 -59.83873,-11.32471 l 15.34327,32.68742 c 19.37833,11.43224 52.12722,14.996 84.38795,1.28692 z"
       id="path3881"
       inkscape:connector-curvature="0"
       sodipodi:nodetypes="cccccc" />
    <path
       style="fill:none;stroke:#000000;stroke-width:6.29849482;stroke-linecap:round;stroke-linejoin:round;stroke-miterlimit:4;stroke-opacity:1;stroke-dasharray:none"
       d="m 281.96677,626.45642 c -21.22395,-13.47233 -42.96218,-25.39183 -69.55615,-22.64953 l 0,0 0,0"
       id="path3849"
       inkscape:connector-curvature="0"
       sodipodi:nodetypes="cccc" />
    <path
       sodipodi:type="arc"
       style="fill:#000000;fill-opacity:1;stroke:none"
       id="path3853"
       sodipodi:cx="632.8606"
       sodipodi:cy="1565.0146"
       sodipodi:rx="39.901024"
       sodipodi:ry="34.850262"
       d="m 672.76162,1565.0146 a 39.901024,34.850262 0 1 1 -79.80205,0 39.901024,34.850262 0 1 1 79.80205,0 z"
       transform="matrix(0.40842524,0,0,0.80458944,190.02778,-639.78424)" />
    <path
       style="fill:#000000;fill-opacity:1;stroke:#000000;stroke-width:5.68896294;stroke-linecap:round;stroke-linejoin:round;stroke-miterlimit:4;stroke-opacity:1;stroke-dasharray:none"
       d="m 310.60753,684.10997 c -3.73127,-29.93514 83.53302,-26.99796 75.69345,-3.08863 -8.20119,25.01219 -22.85006,39.10826 -36.82384,39.12201 -19.48007,0.0194 -37.20633,-22.68927 -38.86961,-36.03338 z"
       id="path3855"
       inkscape:connector-curvature="0"
       sodipodi:nodetypes="ssss" />
    <path
       style="fill:#e2617d;fill-opacity:0.71111115;stroke:#e75266;stroke-width:1.06490648px;stroke-linecap:butt;stroke-linejoin:miter;stroke-opacity:0.5288889"
       d="m 319.43742,744.85203 c 0,0 -1.48041,31.09333 24.7276,29.5988 33.51128,-1.91106 26.9307,-13.41219 30.62851,-30.37103 -12.30395,-1.01999 -55.35611,0.77223 -55.35611,0.77223 z"
       id="path3879"
       inkscape:connector-curvature="0"
       sodipodi:nodetypes="cscc" />
    <path
       style="fill:none;stroke:#000000;stroke-width:3.55560207;stroke-linecap:butt;stroke-linejoin:miter;stroke-miterlimit:4;stroke-opacity:1;stroke-dasharray:none"
       d="m 347.96337,709.84812 -1.02288,32.43008"
       id="path3857"
       inkscape:connector-curvature="0"
       sodipodi:nodetypes="cc" />
    <path
       style="fill:#fff7a0;fill-opacity:1;stroke:#ffe592;stroke-width:1.01588631px;stroke-linecap:butt;stroke-linejoin:miter;stroke-opacity:1"
       d="m 314.69907,767.50156 c -2.76427,-3.72286 -0.25675,-13.16148 2.55721,-13.89865 3.3161,-0.86865 7.97032,13.96316 9.20595,19.56111 z"
       id="path3863"
       inkscape:connector-curvature="0"
       sodipodi:nodetypes="cscc" />
    <path
       style="fill:#fff7a0;fill-opacity:1;stroke:#ffe592;stroke-width:1.01588631px;stroke-linecap:butt;stroke-linejoin:miter;stroke-opacity:1"
       d="m 370.33447,773.85339 c 0.005,-5.23613 0.9251,-16.07317 3.83582,-18.27409 2.33616,-1.76644 5.32919,9.15753 6.64874,12.86898 z"
       id="path3865"
       inkscape:connector-curvature="0"
       sodipodi:nodetypes="cscc" />
    <path
       sodipodi:nodetypes="cscc"
       inkscape:connector-curvature="0"
       id="path3883"
       d="m 325.18363,773.16392 c -2.76427,-3.72286 1.44245,-6.05067 4.34726,-5.91981 3.57183,0.16093 4.13451,1.09409 5.37014,6.69204 z"
       style="fill:#fff7a0;fill-opacity:1;stroke:#ffe592;stroke-width:1.01588631px;stroke-linecap:butt;stroke-linejoin:miter;stroke-opacity:1" />
    <path
       style="fill:#fff7a0;fill-opacity:1;stroke:#ffe592;stroke-width:1.01588631px;stroke-linecap:butt;stroke-linejoin:miter;stroke-opacity:1"
       d="m 333.62243,773.16392 c -2.76427,-3.72286 1.44245,-6.05067 4.34726,-5.91981 3.57183,0.16093 4.13451,1.09409 5.37014,6.69204 z"
       id="path3885"
       inkscape:connector-curvature="0"
       sodipodi:nodetypes="cscc" />
    <path
       sodipodi:nodetypes="cscc"
       inkscape:connector-curvature="0"
       id="path3887"
       d="m 343.33983,773.6787 c -2.76427,-3.72285 1.44245,-6.05066 4.34726,-5.9198 3.57183,0.16093 4.13451,1.09409 5.37014,6.69204 z"
       style="fill:#fff7a0;fill-opacity:1;stroke:#ffe592;stroke-width:1.01588631px;stroke-linecap:butt;stroke-linejoin:miter;stroke-opacity:1" />
    <path
       style="fill:#fff7a0;fill-opacity:1;stroke:#ffe592;stroke-width:1.01588631px;stroke-linecap:butt;stroke-linejoin:miter;stroke-opacity:1"
       d="m 353.05723,773.93605 c -2.76426,-3.72286 1.44246,-6.05067 4.34726,-5.9198 3.57183,0.16092 4.13452,1.09408 5.37015,6.69203 z"
       id="path3889"
       inkscape:connector-curvature="0"
       sodipodi:nodetypes="cscc" />
    <path
       sodipodi:nodetypes="cscc"
       inkscape:connector-curvature="0"
       id="path3891"
       d="m 371.07889,774.19339 c 2.76427,-3.72286 -1.44246,-6.05066 -4.34726,-5.9198 -3.57183,0.16093 -4.13451,1.09409 -5.37014,6.69203 z"
       style="fill:#fff7a0;fill-opacity:1;stroke:#ffe592;stroke-width:1.01588631px;stroke-linecap:butt;stroke-linejoin:miter;stroke-opacity:1" />
    <path
       style="fill:none;stroke:#000000;stroke-width:3.04765892;stroke-linecap:round;stroke-linejoin:round;stroke-miterlimit:4;stroke-opacity:1;stroke-dasharray:none"
       d="m 279.92099,709.33333 c 10.24732,25.55816 11.08497,38.44915 66.4875,33.45965 65.88677,7.08238 63.32254,-14.11471 72.62479,-36.03349 -11.14728,26.71656 -16.2025,48.11586 -28.95311,59.01069 -9.9544,8.50556 -25.19824,9.60372 -47.76322,8.42331 -19.77083,-1.03426 -26.75671,-1.96324 -33.85294,-9.17312 -11.40157,-11.58399 -18.15148,-33.68327 -28.54302,-55.68704 z"
       id="path3861"
       inkscape:connector-curvature="0"
       sodipodi:nodetypes="cccsssc" />
    <path
       style="fill:none;stroke:#b6b4b4;stroke-width:3.04765892;stroke-linecap:round;stroke-linejoin:round;stroke-miterlimit:4;stroke-opacity:1;stroke-dasharray:none"
       d="M 243.75336,702.76349 C 182.4612,663.58093 130.99745,657.37243 79.977314,652.65227"
       id="path4009"
       inkscape:connector-curvature="0"
       sodipodi:nodetypes="cc" />
    <path
       sodipodi:nodetypes="cc"
       inkscape:connector-curvature="0"
       id="path4011"
       d="M 243.75336,702.76349 C 182.4612,663.58093 130.99745,657.37243 79.977314,652.65227"
       style="fill:none;stroke:#e7e7e7;stroke-width:3.04765892;stroke-linecap:round;stroke-linejoin:round;stroke-miterlimit:4;stroke-opacity:1;stroke-dasharray:none" />
    <path
       style="fill:none;stroke:#e7e7e7;stroke-width:3.04765892;stroke-linecap:round;stroke-linejoin:round;stroke-miterlimit:4;stroke-opacity:1;stroke-dasharray:none"
       d="M 244.82601,722.68115 C 179.57944,690.61299 127.74887,690.21202 76.523829,691.2404"
       id="path4013"
       inkscape:connector-curvature="0"
       sodipodi:nodetypes="cc" />
    <path
       sodipodi:nodetypes="cc"
       inkscape:connector-curvature="0"
       id="path4015"
       d="M 456.2467,705.40093 C 517.53885,666.21836 569.0026,660.00986 620.02274,655.2897"
       style="fill:none;stroke:#b6b4b4;stroke-width:3.04765892;stroke-linecap:round;stroke-linejoin:round;stroke-miterlimit:4;stroke-opacity:1;stroke-dasharray:none" />
    <path
       style="fill:none;stroke:#e7e7e7;stroke-width:3.04765892;stroke-linecap:round;stroke-linejoin:round;stroke-miterlimit:4;stroke-opacity:1;stroke-dasharray:none"
       d="M 456.2467,705.40093 C 517.53885,666.21836 569.0026,660.00986 620.02274,655.2897"
       id="path4017"
       inkscape:connector-curvature="0"
       sodipodi:nodetypes="cc" />
    <path
       sodipodi:nodetypes="cc"
       inkscape:connector-curvature="0"
       id="path4019"
       d="m 455.17405,725.31858 c 65.24656,-32.06816 117.07713,-32.46913 168.30217,-31.44075"
       style="fill:none;stroke:#e7e7e7;stroke-width:3.04765892;stroke-linecap:round;stroke-linejoin:round;stroke-miterlimit:4;stroke-opacity:1;stroke-dasharray:none" />
    <path
       transform="matrix(0.08124677,0,0,0.18695881,394.37702,315.24279)"
       d="m 672.76162,1565.0146 a 39.901024,34.850262 0 1 1 -79.80205,0 39.901024,34.850262 0 1 1 79.80205,0 z"
       sodipodi:ry="34.850262"
       sodipodi:rx="39.901024"
       sodipodi:cy="1565.0146"
       sodipodi:cx="632.8606"
       id="path4023"
       style="fill:#ffffff;fill-opacity:1;stroke:none"
       sodipodi:type="arc" />
    <path
       style="fill:#f0bd6d;fill-opacity:1;stroke:none"
       d="m 227.54078,487.16204 c 0,0 -39.95262,-56.16673 -54.20591,-48.92502 -13.64069,6.93047 4.45316,74.27763 4.45316,74.27763 18.58746,-14.4995 34.09749,-19.70679 49.75275,-25.35261 z"
       id="path5539"
       inkscape:connector-curvature="0"
       sodipodi:nodetypes="cscc" />
    <path
       sodipodi:nodetypes="cscc"
       inkscape:connector-curvature="0"
       id="path5541"
       d="m 456.97079,479.18477 c 0,0 41.4623,-59.96545 55.71559,-52.72373 13.64069,6.93047 -0.30155,77.31659 -0.30155,77.31659 -18.58746,-14.49949 -39.00395,-21.22627 -55.41404,-24.59286 z"
       style="fill:#f0bd6d;fill-opacity:1;stroke:none" />
  </g>
</svg>
